{"glyphs":{"0":{"ha":924,"x_min":0,"x_max":888,"o":"m 574 1177 q 769 1063 655 1177 l 774 1063 q 859 1144 839 1136 l 888 1144 q 826 968 888 1095 q 560 285 826 634 q 242 0 375 0 q 81 157 140 0 l 62 171 q 33 157 33 163 q 0 190 18 157 q 66 361 66 273 q 199 864 66 480 q 418 1154 272 1010 q 574 1177 483 1177 m 166 536 l 171 541 l 171 603 l 157 603 q 109 337 109 410 l 119 337 q 427 703 332 559 q 693 1021 686 957 l 693 1025 q 565 1097 652 1097 q 176 536 348 1097 l 166 536 m 133 195 l 133 180 q 233 57 172 57 q 508 285 372 57 q 755 812 755 633 l 755 911 l 750 945 l 731 945 q 446 631 633 872 q 133 195 144 271 z "},"1":{"ha":801,"x_min":0,"x_max":764,"o":"m 741 1291 l 745 1291 q 764 1249 764 1285 q 655 902 764 1215 q 508 166 508 239 q 551 123 514 123 l 598 123 l 669 142 l 693 128 q 560 52 693 73 q 76 0 122 33 q 0 57 39 0 q 214 152 0 87 q 437 176 334 176 q 598 954 460 244 l 584 954 q 366 622 428 663 l 356 622 q 332 669 332 633 q 432 817 332 684 q 712 1282 643 1137 l 741 1291 z "},"2":{"ha":859,"x_min":0,"x_max":750,"o":"m 584 1149 q 736 1063 713 1149 l 750 978 q 508 560 724 809 q 247 280 247 294 q 161 147 247 268 l 161 133 l 166 133 q 684 247 578 247 q 726 199 726 239 q 503 142 726 142 q 109 28 252 91 q 28 0 100 13 q 0 33 0 0 q 38 95 0 63 q 517 665 52 171 q 674 926 674 867 l 674 997 q 593 1073 674 1073 q 299 930 451 1073 l 247 845 q 176 731 216 731 q 128 769 128 731 q 418 1116 199 977 q 584 1149 503 1139 z "},"3":{"ha":856,"x_min":0,"x_max":769,"o":"m 152 1149 q 736 1073 403 1101 l 755 1068 l 760 1063 l 760 1049 q 460 741 748 1014 l 460 726 q 684 646 562 726 q 769 437 769 568 q 560 33 769 204 q 404 0 484 0 q 5 218 229 0 l 0 237 q 47 275 0 271 l 47 280 q 185 166 81 280 q 418 76 307 76 l 437 76 q 698 370 628 76 l 698 427 q 489 631 698 600 l 441 631 q 271 579 393 631 q 237 622 252 579 q 389 783 237 655 l 617 1002 l 617 1016 l 593 1021 l 541 1021 q 123 1063 156 1054 l 104 1116 q 152 1149 104 1137 z "},"4":{"ha":785,"x_min":0,"x_max":707,"o":"m 574 1192 l 584 1192 q 603 1130 600 1192 q 190 674 593 1029 l 95 565 l 95 551 q 123 536 100 536 q 513 622 184 536 q 608 821 563 666 q 655 983 630 983 q 707 907 707 983 l 707 888 q 617 475 707 824 q 584 195 585 291 q 612 123 584 172 l 612 114 q 532 9 612 22 l 503 0 q 489 62 489 35 l 555 536 l 555 546 l 546 555 l 532 555 q 85 451 498 555 l 81 451 q 0 555 0 494 q 204 769 0 606 q 532 1149 528 1090 l 574 1192 z "},"5":{"ha":1133,"x_min":0,"x_max":1165,"o":"m 1151 1343 l 1165 1334 q 871 1163 1102 1229 q 467 1092 624 1092 q 351 987 353 1015 l 214 817 l 214 807 q 422 864 372 864 l 437 864 q 783 503 573 864 q 836 294 836 380 q 636 28 836 153 q 508 0 560 0 l 503 0 q 157 123 317 0 q 0 209 3 188 q 66 271 0 251 l 76 271 q 370 100 135 197 q 494 66 432 66 l 532 66 q 755 228 665 66 l 764 285 l 764 304 q 536 731 764 496 q 422 783 463 783 l 413 783 q 199 712 357 783 q 114 698 163 698 q 76 736 76 701 l 76 755 l 138 840 q 272 989 199 901 q 363 1173 345 1078 l 401 1182 q 980 1267 848 1182 q 1151 1343 1048 1291 z "},"6":{"ha":807,"x_min":-3,"x_max":714,"o":"m 522 1237 q 546 1204 546 1230 q 484 1142 546 1181 q 329 1009 374 1072 q 191 759 284 946 q 97 494 97 572 l 102 494 q 372 703 252 665 q 510 751 453 751 q 714 566 714 709 q 320 10 714 338 q 201 -42 257 -33 q 16 143 94 -42 q -3 300 -3 239 q 66 631 -3 473 q 207 928 135 788 q 422 1185 279 1068 q 522 1237 490 1237 m 159 366 l 159 352 l 163 229 l 159 214 l 144 214 q 87 333 87 256 l 83 333 l 64 314 l 64 309 q 163 48 64 170 q 211 29 194 29 l 230 29 q 572 338 332 29 q 652 518 652 482 l 652 542 q 529 665 636 665 l 505 670 q 192 499 338 670 q 159 366 159 446 z "},"7":{"ha":1013,"x_min":9,"x_max":964,"o":"m 945 1214 q 964 1185 964 1209 l 964 1181 q 834 886 964 1110 q 705 639 705 663 l 705 634 l 724 634 l 876 658 q 937 629 915 658 l 937 601 q 899 568 926 577 l 861 577 l 852 577 q 581 420 627 577 q 463 112 463 188 l 463 98 l 486 64 l 486 45 q 382 -26 431 -26 l 368 -7 q 458 254 410 167 q 557 496 458 281 l 562 515 q 277 439 485 494 q 244 482 244 439 q 605 601 244 534 q 797 898 725 744 q 869 1119 869 1053 l 859 1128 q 133 1005 253 1005 q 9 1038 9 1005 l 9 1053 q 52 1072 16 1072 l 62 1072 q 750 1152 428 1072 q 945 1214 876 1200 z "},"8":{"ha":778,"x_min":0,"x_max":688,"o":"m 494 1239 q 655 1144 614 1239 q 688 1049 688 1105 q 541 660 688 867 q 385 465 385 493 q 494 323 385 438 q 536 209 536 260 q 318 5 536 79 l 294 0 q 0 157 28 54 q 256 441 0 255 l 256 451 l 261 451 q 104 774 104 656 l 100 779 l 100 783 l 90 783 l 66 764 l 62 764 q 47 793 54 764 q 62 968 62 884 l 62 1016 l 57 1021 q 233 1163 57 1123 l 290 1163 q 494 1239 372 1239 m 157 930 q 304 508 157 620 l 318 508 q 570 817 519 687 q 631 1044 631 964 q 494 1168 631 1153 l 470 1168 q 309 1092 349 1168 q 256 1035 309 1035 q 161 954 212 1035 l 157 930 m 76 157 q 280 62 76 93 q 470 204 470 98 l 470 214 q 318 418 470 268 l 309 418 l 128 256 l 76 161 l 76 157 z "},"9":{"ha":716,"x_min":10,"x_max":675,"o":"m 390 1253 q 513 1153 469 1253 q 461 1096 497 1096 l 456 1096 q 423 1158 446 1101 l 399 1162 l 385 1162 q 172 1097 264 1162 q 80 898 79 1032 q 167 707 81 764 l 195 702 l 238 702 q 542 882 470 766 q 585 1091 585 974 l 608 1110 q 675 1020 654 1110 q 527 512 675 896 q 273 -16 380 127 q 259 17 259 -14 q 400 388 264 82 q 537 773 537 693 l 532 773 l 461 726 q 181 635 271 635 l 176 635 q 10 849 58 635 l 10 897 q 380 1253 10 1158 l 390 1253 z "}," ":{"ha":550,"x_min":0,"x_max":0,"o":""},"!":{"ha":532,"x_min":98,"x_max":511,"o":"m 473 1402 q 511 1335 509 1402 q 364 932 511 1275 q 264 386 264 648 q 231 300 248 300 l 222 300 q 189 395 189 318 l 189 414 q 407 1274 189 595 q 473 1402 415 1402 m 203 139 q 274 63 260 139 q 179 -65 274 -15 q 98 63 117 -65 l 98 68 q 203 139 98 139 z "},"\"":{"ha":586,"x_min":156,"x_max":574,"o":"m 526 1377 q 574 1330 555 1377 q 398 874 493 1145 l 393 869 l 384 869 l 365 898 q 493 1363 428 1202 l 526 1377 m 289 1325 q 332 1282 319 1325 q 237 1021 309 1183 q 184 874 207 874 l 170 874 l 156 941 q 237 1301 218 1264 q 289 1325 264 1324 z "},"#":{"ha":1159,"x_min":39,"x_max":1079,"o":"m 941 1297 q 960 1250 951 1297 l 960 1245 q 842 1055 854 1094 l 823 979 l 832 970 q 1027 994 891 970 q 1079 951 1079 981 q 899 908 1079 908 q 766 823 766 885 q 742 751 760 823 l 747 747 l 751 747 l 808 751 q 856 718 856 751 q 728 671 856 682 q 661 424 684 644 q 623 348 661 359 q 595 410 595 348 q 633 633 595 465 l 633 642 l 628 642 q 381 538 381 579 q 348 372 348 463 l 386 381 q 414 348 414 381 q 329 267 382 267 q 281 348 292 267 l 310 528 l 300 538 q 106 462 267 538 q 39 514 39 462 q 125 571 39 559 q 381 699 381 633 q 395 766 395 730 l 395 770 l 391 770 l 281 751 q 168 804 168 766 q 400 861 168 861 q 528 1198 473 861 q 566 1236 555 1234 q 604 1188 604 1236 q 524 894 604 1094 l 533 894 l 533 889 q 732 937 607 913 q 903 1283 795 1174 l 941 1297 m 443 680 l 443 671 l 448 671 l 642 723 q 694 832 694 778 l 694 837 q 476 766 476 808 q 443 680 443 719 z "},"$":{"ha":1136,"x_min":6,"x_max":1131,"o":"m 1074 1166 q 1131 1123 1109 1166 q 1069 876 1069 935 q 1031 810 1069 810 q 861 534 932 704 q 970 330 970 425 l 970 321 q 718 102 970 178 q 623 55 623 95 q 576 -121 605 -121 l 566 -121 q 533 -35 533 -106 l 543 69 l 538 69 q 357 7 357 69 l 357 -21 l 372 -21 l 410 3 q 433 -16 431 -7 l 433 -26 q 343 -116 433 -71 l 329 -116 q 291 -35 291 -88 l 296 50 q 130 102 296 87 q 6 174 6 138 q 39 212 6 194 q 329 136 221 136 l 519 544 l 519 553 q 419 653 471 553 l 410 691 q 699 957 445 822 q 832 1038 793 977 q 913 1133 873 1133 l 927 1133 q 951 1114 951 1133 q 908 1004 951 1094 q 975 952 908 988 l 989 952 q 1060 1161 1044 1161 l 1074 1166 m 633 606 q 770 558 633 590 l 789 558 q 941 843 821 566 l 941 871 l 922 890 l 856 890 q 723 748 804 890 q 633 606 633 627 m 519 715 l 519 672 q 538 629 519 635 l 547 629 q 642 753 584 629 q 690 829 659 757 l 713 852 l 713 867 l 709 867 q 519 715 519 798 m 405 140 l 419 126 q 609 212 609 126 q 737 463 732 399 l 737 477 q 614 511 707 511 l 604 511 q 457 269 562 511 q 405 140 405 176 m 818 444 q 675 174 675 216 l 699 174 q 889 311 889 214 l 889 330 q 823 444 889 393 l 818 444 z "},"%":{"ha":1092,"x_min":0,"x_max":968,"o":"m 418 1111 q 603 973 530 1111 l 608 949 q 437 736 608 871 q 285 688 362 688 l 261 688 q 195 802 195 708 q 285 983 195 861 l 285 987 l 280 992 q 166 741 166 937 l 157 741 q 123 826 123 758 q 199 1025 123 930 q 418 1111 323 1111 m 945 1044 l 968 1030 q 603 679 914 898 q 85 161 85 201 l 85 152 q 114 138 114 147 l 114 123 q 57 95 114 109 q 0 133 0 103 q 636 769 0 210 q 926 1040 727 836 l 945 1044 m 404 1030 l 404 1016 q 441 940 438 975 q 408 873 441 901 l 389 873 l 361 902 q 275 779 307 902 l 275 774 q 313 750 288 750 l 323 750 q 532 907 409 750 l 532 935 q 422 1030 497 1030 l 404 1030 m 617 422 q 736 309 691 422 l 741 271 q 532 14 741 131 l 475 0 q 366 157 391 0 q 437 318 366 172 q 612 422 437 386 l 617 422 m 451 128 l 451 114 l 479 85 l 503 85 q 669 233 591 85 l 679 290 q 612 347 679 340 q 541 252 567 347 q 451 128 451 157 z "},"&":{"ha":833,"x_min":0,"x_max":764,"o":"m 571 1294 q 652 1147 652 1274 l 652 1142 q 451 757 652 947 l 413 695 q 484 249 413 458 l 489 249 q 598 391 506 249 l 608 420 l 608 453 q 688 581 608 545 q 717 557 717 574 q 570 225 717 389 q 527 144 527 158 l 527 135 q 636 -26 527 68 l 669 -26 q 736 7 687 -26 q 764 -22 764 7 q 669 -121 764 -86 q 460 45 602 -121 l 456 45 q 347 -50 359 -50 l 290 -64 q 156 -34 224 -64 q 9 144 89 -3 l 0 206 l 0 216 q 242 576 0 325 q 342 918 342 680 q 452 1199 327 1043 q 571 1294 540 1294 m 413 899 l 413 809 l 418 809 q 571 1099 571 963 l 571 1152 l 557 1166 l 543 1166 q 429 1015 444 1095 q 413 899 413 935 m 95 235 l 95 192 q 285 16 109 43 q 418 144 355 16 l 418 149 l 337 548 l 332 548 q 133 339 298 547 q 95 235 95 296 z "},"'":{"ha":296,"x_min":205,"x_max":338,"o":"m 290 1249 q 338 1201 338 1249 l 338 1196 q 262 964 338 1166 l 243 850 l 233 850 q 205 935 212 850 l 205 954 l 252 1239 l 290 1249 z "},"(":{"ha":514,"x_min":0,"x_max":456,"o":"m 404 1244 l 427 1244 q 456 1215 452 1232 q 76 342 89 729 l 76 318 q 109 71 76 71 q 128 62 128 71 l 128 57 q 76 0 115 0 q 0 190 0 0 l 0 366 q 290 1092 0 669 q 404 1244 319 1164 z "},")":{"ha":635,"x_min":75,"x_max":568,"o":"m 459 1296 q 568 1021 546 1296 q 122 14 568 610 q 89 0 104 0 l 75 14 l 75 24 q 241 268 130 87 q 431 660 351 450 q 483 945 483 795 l 483 997 q 421 1258 483 1082 l 421 1267 q 459 1296 431 1296 z "},"*":{"ha":964,"x_min":134,"x_max":907,"o":"m 736 1240 q 774 1221 761 1240 q 680 1079 758 1159 l 642 965 l 642 956 l 708 927 q 907 894 907 918 l 907 884 l 874 851 l 812 865 q 575 775 618 865 l 575 751 q 661 566 575 709 l 661 547 l 651 547 l 651 543 q 532 614 624 546 l 518 614 q 447 495 479 495 q 428 524 428 500 l 475 756 l 471 761 l 461 761 q 181 547 412 761 l 167 547 q 134 595 134 571 q 271 718 134 614 l 271 728 q 200 794 200 739 q 395 832 200 825 q 442 861 441 850 l 442 865 q 371 1069 442 951 q 361 1122 361 1088 l 361 1131 q 380 1174 361 1168 l 399 1174 q 528 899 429 1174 l 532 899 q 618 1098 540 900 q 736 1240 696 1240 z "},"+":{"ha":688,"x_min":58,"x_max":628,"o":"m 309 516 l 224 516 q 116 520 173 516 q 58 583 58 525 q 111 616 58 610 l 139 616 q 323 613 242 616 l 332 669 q 353 776 340 720 q 424 823 367 831 q 448 766 451 818 l 444 737 q 435 608 440 668 q 614 564 614 595 q 628 516 623 564 q 581 478 628 478 q 428 509 515 500 q 359 186 398 179 q 310 179 357 176 q 280 232 272 185 q 309 516 290 378 z "},",":{"ha":378,"x_min":143,"x_max":342,"o":"m 281 114 q 342 52 319 114 q 248 -185 342 14 l 167 -404 l 162 -404 q 143 -380 153 -401 q 276 114 243 114 l 281 114 z "},"-":{"ha":700,"x_min":58,"x_max":628,"o":"m 111 616 l 139 616 q 614 564 614 616 q 628 516 623 564 q 581 478 628 478 q 281 516 467 516 l 224 516 q 116 520 173 516 q 58 583 58 525 q 111 616 58 610 z "},".":{"ha":481,"x_min":250,"x_max":440,"o":"m 359 191 q 440 58 423 191 q 345 10 421 10 q 255 91 255 10 l 250 91 q 359 191 250 177 z "},"/":{"ha":635,"x_min":3,"x_max":614,"o":"m 581 1310 q 605 1238 614 1303 q 291 627 594 1178 q 91 110 140 367 q 42 32 59 28 l 33 34 q 18 133 3 57 l 22 152 q 491 1196 55 329 q 581 1310 523 1321 z "},":":{"ha":378,"x_min":0,"x_max":228,"o":"m 119 579 q 228 503 176 567 l 228 494 q 147 427 228 431 l 138 427 q 52 489 52 427 l 47 513 q 119 579 47 579 m 109 180 q 190 47 173 180 q 95 0 171 0 q 5 81 5 0 l 0 81 q 109 180 0 167 z "},";":{"ha":378,"x_min":138,"x_max":338,"o":"m 243 619 q 329 562 329 603 q 220 467 329 496 q 153 543 158 467 q 243 619 153 601 m 276 208 q 338 146 314 208 q 243 -91 338 109 l 162 -309 l 157 -309 q 138 -286 148 -307 q 271 208 239 208 l 276 208 z "},"<":{"ha":1429,"x_min":58,"x_max":1373,"o":"m 604 610 q 642 544 642 610 q 552 463 642 474 q 414 397 534 463 q 372 373 372 386 l 386 363 q 1364 406 1075 406 l 1373 392 l 1373 330 l 1359 316 l 1297 316 q 281 264 627 316 l 277 259 l 277 254 q 690 150 368 150 l 728 140 l 732 136 l 732 131 q 462 79 720 92 q 87 302 250 79 q 58 359 58 328 q 239 420 58 401 q 604 610 516 578 z "},"=":{"ha":688,"x_min":0,"x_max":864,"o":"m 817 422 q 864 399 845 422 q 498 313 864 313 l 460 313 q 123 347 123 313 l 119 370 l 119 375 q 171 418 119 418 l 494 408 l 817 422 m 669 133 q 821 109 821 127 l 821 95 q 90 0 222 0 q 0 57 0 8 q 123 109 0 102 l 669 133 z "},">":{"ha":1237,"x_min":0,"x_max":1187,"o":"m 873 579 q 1006 513 1006 568 l 1092 437 l 1187 361 l 1187 356 q 859 95 1187 256 l 859 85 l 897 85 l 907 76 q 741 0 836 0 q 684 76 684 0 q 907 204 684 98 q 1078 323 1015 258 l 1078 328 q 930 422 1078 336 q 821 489 911 444 q 798 536 798 514 q 873 579 798 574 m 916 380 q 1011 328 967 380 l 1011 323 q 218 247 1011 279 q 24 228 84 228 q 0 290 5 228 q 76 332 0 332 q 916 380 616 351 z "},"?":{"ha":899,"x_min":176,"x_max":850,"o":"m 698 1385 q 831 1300 798 1385 q 850 1210 850 1251 q 722 887 850 1117 l 513 626 q 351 398 351 462 l 351 360 q 418 322 375 322 l 418 313 q 356 279 400 279 q 256 374 256 294 q 570 778 256 452 q 779 1145 760 998 q 703 1314 798 1292 l 688 1314 q 375 1067 484 1314 l 375 1058 l 394 1025 l 394 1015 l 294 991 q 261 1029 267 991 q 527 1357 326 1223 q 698 1385 622 1385 m 347 113 q 422 42 422 92 l 422 37 q 223 -72 308 -72 q 176 -34 176 -72 l 176 -29 q 309 104 176 18 l 347 113 z "},"@":{"ha":1369,"x_min":0,"x_max":1182,"o":"m 940 1415 q 1149 1282 1095 1359 q 1182 1101 1182 1184 l 1182 1082 q 1025 593 1182 935 q 802 256 865 291 l 755 247 q 636 304 721 247 l 631 304 q 470 242 534 242 l 460 242 q 361 356 361 242 q 565 736 361 562 q 631 750 602 750 q 741 603 705 750 q 783 546 783 589 l 783 541 q 736 427 783 525 l 736 399 q 774 328 736 359 q 940 546 819 360 q 1120 1073 1120 932 q 1030 1305 1120 1256 q 902 1334 968 1334 q 337 897 678 1334 q 81 465 105 614 l 81 451 q 290 119 81 212 q 498 76 409 76 l 541 76 q 897 233 760 76 l 1044 370 l 1049 366 l 1049 337 q 997 261 1049 302 q 508 0 815 0 q 19 285 146 0 l 0 385 q 290 926 31 621 l 627 1301 q 940 1415 753 1385 m 441 385 l 441 366 q 479 313 441 313 l 498 313 q 646 441 568 313 l 655 484 l 655 565 q 622 655 655 641 q 451 475 555 655 l 441 385 z "},"A":{"ha":749,"x_min":0,"x_max":859,"o":"m 817 1324 q 859 1277 848 1324 q 622 451 859 1241 q 565 152 565 227 l 570 62 q 522 14 559 14 q 479 76 479 35 q 555 437 479 133 l 555 441 l 551 441 q 195 299 195 357 q 66 33 90 115 q 24 0 47 0 q 0 43 12 2 q 204 399 0 89 q 323 574 204 427 q 404 693 362 644 q 631 1049 520 900 q 783 1296 631 1061 q 817 1324 795 1316 m 342 489 l 342 479 l 380 479 q 598 598 598 511 q 745 1111 745 1049 l 745 1116 l 741 1116 q 579 902 658 1042 q 342 489 353 559 z "},"B":{"ha":902,"x_min":-17,"x_max":857,"o":"m 690 1293 q 857 1146 857 1269 q 648 766 857 1002 l 648 762 q 724 719 655 745 q 849 465 847 615 q 667 59 852 315 q 358 -150 486 -150 l 254 -155 q -3 31 72 -155 l -17 116 q -5 173 -17 134 q 83 244 7 212 l 87 244 l 87 239 q 54 102 54 126 l 54 87 q 254 -83 54 -24 l 296 -88 q 762 349 573 -88 q 781 434 781 404 l 781 491 q 662 671 781 567 l 629 681 l 591 681 q 429 591 557 681 q 349 486 376 566 l 211 64 l 192 50 l 178 50 l 168 92 q 263 387 168 126 q 311 557 311 526 q 254 605 260 575 q 344 700 254 632 q 429 1032 393 795 l 458 1061 q 500 1008 497 1061 l 500 1004 q 444 762 500 967 l 453 752 q 785 1118 680 752 l 785 1137 q 690 1217 770 1217 l 638 1217 q 334 1049 508 1217 q 138 897 159 882 q 116 951 116 912 q 363 1163 225 1058 q 657 1289 501 1267 l 690 1293 z "},"C":{"ha":949,"x_min":-11,"x_max":945,"o":"m 759 1338 q 878 1196 878 1310 q 783 911 841 911 q 764 935 764 916 q 802 1172 802 1097 q 759 1243 802 1218 l 749 1243 q 400 1018 584 1243 q 143 581 216 793 q 93 235 71 369 q 228 81 114 102 q 470 161 336 81 q 921 517 528 174 l 940 522 l 945 508 q 650 228 835 372 q 209 0 378 0 q 16 282 -11 13 q 147 758 43 551 q 451 1141 251 964 q 754 1338 650 1319 l 759 1338 z "},"D":{"ha":1292,"x_min":-48,"x_max":1274,"o":"m 780 1316 q 905 1322 780 1316 q 1158 1223 1029 1328 q 1257 929 1257 1117 q 819 122 1274 441 q 472 -73 634 -14 q 230 -130 294 -130 l 187 -130 q 45 -68 102 -130 l 45 -49 q 211 13 95 13 l 225 8 l 225 -1 l 187 -44 l 187 -49 l 225 -49 q 690 84 450 -49 q 1162 644 1036 288 q 1196 939 1196 776 q 1068 1218 1196 1165 q 750 1258 941 1271 q 291 1062 559 1246 q -13 876 22 879 q -48 896 -48 872 l -48 905 q 270 1133 9 961 q 780 1316 530 1304 m 586 987 l 591 987 q 605 963 602 987 q 505 486 605 874 q 344 98 405 98 l 344 94 q 315 117 335 94 q 441 507 315 169 q 557 949 515 768 l 586 987 z "},"E":{"ha":1072,"x_min":0,"x_max":1042,"o":"m 866 1352 l 880 1352 q 1042 1257 1042 1334 l 1018 1196 l 1013 1196 q 989 1262 1006 1196 q 861 1295 954 1295 l 833 1295 q 429 1110 668 1253 q 313 764 429 1042 l 437 807 l 612 854 l 726 864 l 774 864 q 1035 836 1035 864 l 1035 826 q 679 783 1035 804 q 370 688 370 741 q 138 437 226 688 q 104 275 104 348 l 104 242 q 304 76 104 139 l 328 76 q 731 166 443 76 l 817 223 l 831 223 l 836 209 q 342 5 836 78 l 256 0 q 57 119 165 0 q 28 214 30 167 q 119 532 28 319 l 119 541 l 109 551 l 19 546 q 0 560 0 553 l 0 574 q 180 707 0 616 q 334 1082 218 707 l 334 1096 l 330 1096 l 239 1077 q 211 1124 218 1077 q 425 1205 211 1160 q 866 1352 790 1352 z "},"F":{"ha":726,"x_min":0,"x_max":968,"o":"m 845 1391 q 968 1320 968 1379 q 921 1282 950 1282 l 850 1324 l 836 1324 q 389 1092 697 1313 q 266 779 351 1065 l 271 779 q 736 921 657 921 q 793 873 793 916 q 760 826 793 838 l 722 836 l 688 836 q 471 768 630 836 q 225 636 312 701 q 71 142 71 223 l 71 119 q 109 66 71 96 q 52 0 100 38 l 43 0 q 0 85 0 26 q 223 836 0 192 l 280 997 l 271 997 l 199 954 q 147 992 159 966 l 147 997 q 252 1097 147 1028 q 304 1135 252 1116 q 361 1244 342 1244 l 413 1225 l 427 1225 l 570 1310 q 840 1391 608 1359 l 845 1391 z "},"G":{"ha":1025,"x_min":5,"x_max":1001,"o":"m 631 1301 q 746 1327 631 1301 q 982 1234 862 1353 q 1001 1168 1001 1206 q 939 997 976 997 q 901 1044 901 1015 l 916 1106 l 916 1139 q 711 1251 916 1256 q 371 1121 507 1246 q 180 840 234 996 q 71 456 71 550 l 71 408 q 294 76 71 160 l 394 62 q 821 309 674 62 q 888 508 888 443 l 888 527 q 717 612 888 585 l 712 612 l 503 584 l 494 584 q 451 627 451 590 l 451 631 q 669 722 451 694 q 964 570 859 722 l 973 513 l 973 508 q 902 294 973 463 q 783 76 902 275 q 707 -242 707 -65 l 707 -252 q 750 -309 707 -272 l 750 -323 q 698 -356 745 -341 q 627 -218 642 -356 l 627 -214 q 717 104 627 -91 l 712 109 q 408 -14 526 -14 q 24 237 101 -14 q 5 375 11 278 q 101 818 5 608 q 299 1139 198 1029 q 631 1301 400 1249 z "},"H":{"ha":683,"x_min":0,"x_max":926,"o":"m 907 1424 l 926 1424 l 926 1410 q 707 949 804 1169 q 622 674 653 808 q 437 71 446 227 l 441 43 q 389 0 441 14 q 375 19 375 0 l 370 19 q 532 612 412 262 l 555 641 l 555 646 l 546 655 l 536 655 q 312 596 481 655 q 142 451 142 538 q 62 85 62 292 q 38 33 47 33 l 24 28 q 0 81 0 28 q 100 522 0 201 q 128 646 100 635 q 285 1165 220 818 q 328 1317 305 1317 q 380 1274 380 1317 q 242 783 380 1200 l 218 688 l 209 657 l 252 665 q 567 747 543 707 q 907 1424 785 1424 z "},"I":{"ha":1039,"x_min":-126,"x_max":1074,"o":"m 1004 1311 q 1056 1273 1074 1311 q 686 1131 1039 1235 q 519 708 668 1027 q 382 167 382 257 l 396 157 l 406 157 q 743 271 473 157 l 895 300 q 956 276 956 290 q 709 191 913 249 l 382 62 q 344 -9 359 -9 l 330 -9 l 306 29 l 268 29 q -17 -109 164 29 q -98 -199 -62 -170 l -112 -199 q -126 -170 -126 -194 q 125 53 -126 -65 q 330 181 330 117 q 543 960 330 288 q 572 1078 572 1036 l 572 1102 l 567 1102 q 352 990 498 1076 q 130 860 205 905 l 125 860 q 87 903 87 860 q 472 1131 87 949 q 1004 1311 578 1189 z "},"J":{"ha":874,"x_min":0,"x_max":1192,"o":"m 1097 1391 q 1192 1353 1192 1391 q 1016 1315 1192 1332 q 793 1192 793 1253 q 755 631 775 1072 q 631 95 688 177 q 470 0 565 0 q 57 532 214 0 l 52 560 q 85 598 58 598 q 138 494 138 598 q 323 128 138 389 q 470 71 389 71 q 688 574 640 71 l 707 964 q 684 1177 703 1177 q 209 978 328 1019 q 38 940 72 940 q 0 987 0 940 q 147 1030 0 1014 l 574 1196 q 945 1358 758 1310 q 1097 1391 1007 1391 z "},"K":{"ha":937,"x_min":0,"x_max":989,"o":"m 589 1457 l 598 1457 q 617 1424 608 1457 q 271 527 617 1394 q 456 760 440 713 q 871 1137 765 1137 l 890 1142 q 989 1099 989 1133 q 833 1028 989 1028 q 536 707 754 1018 q 456 565 456 609 l 456 555 q 627 479 476 526 q 745 351 745 407 q 807 28 777 269 q 783 0 800 9 l 760 0 q 693 294 703 0 q 399 475 693 365 l 347 513 l 342 513 q 190 313 278 456 q 14 123 87 123 l 5 123 l 0 138 q 119 367 0 173 q 484 1263 237 562 q 589 1457 554 1432 z "},"L":{"ha":1192,"x_min":-15,"x_max":1177,"o":"m 1006 1385 q 1029 1337 1029 1385 q 968 1166 1029 1267 q 600 610 937 1068 q 85 -77 262 153 l 85 -96 l 109 -96 q 683 132 336 -26 q 972 179 869 179 q 1177 108 1149 179 l 1177 94 q 1162 13 1177 57 l 1153 13 l 1039 79 q 958 103 989 103 q 431 -39 755 103 q 56 -182 162 -182 l 33 -182 q -15 -144 -15 -182 q 410 457 -15 -86 q 944 1299 836 1000 q 963 1356 954 1299 q 1006 1385 995 1385 z "},"M":{"ha":1020,"x_min":0,"x_max":1137,"o":"m 671 1318 l 676 1318 q 690 1280 690 1315 l 690 1256 q 591 909 690 1211 q 500 544 500 606 l 500 539 l 515 539 q 709 748 581 583 l 823 914 l 937 1047 l 1070 1237 q 1103 1265 1070 1245 q 1137 1237 1122 1265 q 999 843 1137 1183 q 864 195 876 463 l 864 123 q 902 47 864 87 l 902 33 q 854 0 881 0 l 845 0 q 788 85 793 0 l 788 133 q 961 933 800 480 q 994 1019 994 988 l 994 1023 l 985 1023 q 648 582 909 949 q 477 444 529 444 q 420 496 420 449 l 420 501 q 522 926 420 553 l 157 266 q 43 95 100 95 q 0 133 20 106 l 0 147 q 652 1303 143 293 l 671 1318 z "},"N":{"ha":1084,"x_min":7,"x_max":1174,"o":"m 485 1285 q 507 1285 485 1285 q 532 1254 530 1286 q 498 760 502 890 l 507 551 q 592 101 539 163 q 651 82 623 80 q 881 464 747 90 q 1090 1166 961 638 l 1125 1233 q 1171 1200 1168 1236 q 1113 945 1174 1164 q 924 406 1051 726 q 757 68 842 197 q 629 -1 696 5 q 444 508 488 -12 l 441 541 q 447 970 428 692 l 446 1037 q 430 1059 441 1060 l 425 1059 q 205 450 400 962 q 68 69 99 71 l 64 68 q 9 102 31 66 q 135 434 7 116 q 271 750 167 537 q 433 1198 286 814 q 485 1285 441 1284 z "},"O":{"ha":954,"x_min":35,"x_max":1016,"o":"m 764 1318 q 1016 1086 1016 1277 q 603 252 1016 766 q 228 0 384 0 l 218 0 q 47 204 47 0 l 47 209 q 66 545 35 362 q 280 1010 97 728 q 404 1176 303 1059 q 465 1223 421 1223 q 764 1318 567 1318 m 119 223 l 119 214 q 228 76 119 76 l 271 76 q 627 356 394 76 q 891 802 829 641 q 954 1053 954 964 q 779 1242 954 1185 l 707 1247 q 532 1176 575 1247 q 465 1105 522 1105 q 266 820 415 1105 q 128 370 128 537 q 119 223 119 344 z "},"P":{"ha":879,"x_min":-18,"x_max":1074,"o":"m 760 1352 q 1002 1295 882 1352 q 1074 1157 1074 1237 q 855 810 1074 1010 q 319 535 673 685 q 194 234 276 480 q 80 -9 113 -12 q 52 43 52 0 q 238 497 52 78 l 238 521 q 48 564 48 521 l 48 583 q 148 640 62 612 l 162 640 l 167 625 l 162 587 l 181 587 q 300 706 300 587 l 399 1062 l 437 1081 q 471 1048 461 1081 q 338 635 471 981 l 338 621 l 342 621 q 879 905 684 724 q 1002 1124 996 1040 l 1002 1166 q 798 1290 1002 1269 l 751 1290 q 262 1138 524 1290 q 81 910 90 989 l 67 901 q -18 967 16 901 q 333 1233 -18 1044 q 760 1352 576 1352 z "},"Q":{"ha":979,"x_min":-3,"x_max":975,"o":"m 656 1203 q 726 1197 656 1203 q 885 1098 795 1191 q 975 854 975 1005 q 671 296 975 703 q 619 211 619 241 q 681 -36 619 176 l 681 -50 l 671 -60 l 662 -60 q 557 154 557 56 l 538 154 q 197 -3 367 -3 q 9 197 21 -3 q 163 847 -3 397 q 263 947 210 923 q 377 1089 283 954 q 656 1203 517 1216 m 73 277 q 197 59 73 100 l 263 59 q 524 220 355 59 l 529 244 l 529 282 l 477 557 l 477 567 q 519 605 477 605 q 610 349 590 605 q 624 325 616 325 l 633 325 q 838 629 722 418 q 915 927 926 798 q 724 1127 904 1056 l 648 1132 l 629 1132 q 415 1037 415 1117 q 206 724 283 908 q 73 277 73 444 z "},"R":{"ha":870,"x_min":-24,"x_max":1025,"o":"m 821 1329 l 849 1329 q 1025 1210 1025 1329 q 692 673 1025 996 q 317 431 530 513 l 317 417 q 702 23 673 107 q 678 -1 702 4 q 336 294 641 -1 q 208 355 235 355 q 99 56 165 302 l 99 42 q 123 33 123 41 q 18 -138 123 -27 l -1 -143 q -24 -115 -24 -136 l 113 279 q 137 336 137 299 l 137 360 q 80 393 133 374 l 66 427 q 132 469 66 469 q 189 512 189 469 q 412 1025 357 1025 q 431 1006 428 1020 l 251 512 q 237 493 237 512 l 241 488 l 275 488 q 726 778 393 488 q 944 1177 944 1015 l 944 1196 q 821 1267 944 1267 q 412 1148 667 1267 q 104 859 134 956 l 104 825 l 109 797 l 94 783 l 94 778 q 14 844 35 800 l 9 863 q 265 1110 45 958 q 616 1286 346 1178 q 821 1329 750 1329 z "},"S":{"ha":979,"x_min":12,"x_max":953,"o":"m 728 1326 q 828 1227 828 1312 q 728 1089 792 1089 l 719 1103 l 743 1232 l 743 1236 l 733 1246 q 382 1132 538 1246 q 315 1075 328 1104 l 315 1046 q 676 885 315 954 q 923 671 893 801 q 909 432 953 542 q 610 135 866 322 q 235 -17 354 -17 q 16 135 80 -17 l 12 182 q 140 415 12 357 l 168 420 l 173 415 l 173 406 q 87 244 87 328 l 87 220 q 197 73 111 73 l 320 73 q 690 263 422 73 q 874 583 882 448 q 771 762 866 717 q 448 861 659 822 q 258 947 314 891 q 201 1046 212 994 q 294 1175 201 1128 q 520 1274 387 1222 q 728 1326 652 1326 z "},"T":{"ha":1019,"x_min":26,"x_max":1356,"o":"m 1246 1292 l 1284 1292 q 1356 1235 1356 1292 q 1296 1202 1356 1189 q 1161 1216 1236 1216 q 321 903 798 1216 q 183 803 304 903 q 93 732 183 759 q 26 760 45 732 q 202 888 26 790 q 1246 1292 788 1292 m 767 1040 q 791 1007 791 1034 l 791 1002 q 611 442 791 884 q 361 0 431 0 q 337 33 337 7 l 337 38 q 380 104 337 55 l 470 252 q 729 1012 729 954 q 767 1040 746 1036 z "},"U":{"ha":1097,"x_min":0,"x_max":1192,"o":"m 1092 1267 q 1192 1116 1181 1241 l 1192 1106 q 736 370 1192 878 q 218 9 427 58 l 171 0 q 9 128 73 0 l 0 195 l 0 228 q 233 983 0 424 q 328 1249 310 1240 l 356 1253 q 394 1230 394 1253 q 261 907 389 1158 q 66 242 66 502 l 66 233 q 147 95 66 95 l 176 90 q 370 142 300 90 q 802 503 509 190 q 1135 1092 1135 906 l 1135 1101 q 1068 1244 1135 1128 q 1092 1267 1068 1257 z "},"V":{"ha":953,"x_min":0,"x_max":1147,"o":"m 1123 1391 q 1147 1362 1147 1383 l 973 1068 q 180 100 629 594 q 24 0 74 0 q 0 52 2 0 q 76 489 0 102 q 117 1059 103 850 l 117 1112 l 103 1192 q 174 1216 125 1216 l 184 1216 q 206 1075 222 1216 q 142 639 190 935 q 95 157 95 343 l 100 142 q 527 574 171 155 q 821 954 770 865 q 1080 1343 922 1067 q 1123 1391 1090 1391 z "},"W":{"ha":949,"x_min":39,"x_max":1175,"o":"m 1139 1346 l 1149 1347 q 1171 1306 1163 1348 q 1105 1186 1175 1270 q 688 321 867 737 q 412 -103 510 -95 q 315 45 344 -109 q 345 501 286 199 l 340 505 l 335 505 q 166 199 231 273 q 94 155 134 159 q 39 241 62 153 q 99 733 50 463 q 169 996 148 1004 q 212 942 203 998 q 160 628 214 912 q 111 295 106 344 l 113 267 l 123 258 q 235 448 172 286 q 386 743 320 602 l 404 758 l 408 759 q 454 677 448 741 q 362 302 457 640 l 357 192 q 427 -9 375 -16 q 621 286 479 -3 q 829 743 669 372 q 1108 1315 900 874 l 1139 1346 z "},"X":{"ha":916,"x_min":0,"x_max":1204,"o":"m 1168 1288 q 1204 1267 1189 1285 q 1094 1162 1190 1234 q 664 612 659 673 q 682 -159 708 -157 l 672 -159 q 629 71 648 -152 q 612 493 635 222 l 602 549 l 588 548 q 224 69 580 486 q 83 -9 149 -4 q 3 37 6 -4 q 140 96 0 68 q 528 524 288 220 q 604 644 527 539 q 510 1137 571 1031 q 566 1213 507 1174 q 656 759 617 1217 l 662 745 q 827 935 709 754 q 960 1108 903 1017 q 1168 1288 1133 1285 z "},"Y":{"ha":553,"x_min":-18,"x_max":701,"o":"m 208 1318 q 235 1293 233 1312 q 155 836 146 915 q 204 653 151 715 q 299 564 256 591 q 391 736 321 567 q 615 1224 450 826 q 662 1272 645 1270 q 698 1252 694 1263 l 699 1242 q 617 1072 701 1225 q 565 980 618 1059 l 433 703 q 216 274 363 514 q 9 -64 102 32 l 4 -64 l -10 -61 l -12 -52 q 180 303 -18 7 q 284 481 209 365 l 283 491 q 154 582 184 527 q 92 757 105 635 l 90 785 q 208 1318 115 1308 z "},"Z":{"ha":990,"x_min":0,"x_max":983,"o":"m 779 1244 q 869 1182 829 1244 q 555 745 842 1062 l 555 736 l 560 736 q 817 788 758 788 q 973 674 930 788 l 983 627 q 954 570 972 570 l 949 570 q 926 655 939 570 q 817 722 872 722 l 812 722 q 404 574 601 707 q 85 171 124 342 q 166 104 85 104 l 252 104 q 627 247 309 104 l 646 247 q 684 138 672 247 l 669 128 l 603 128 q 304 28 494 128 q 171 0 243 9 q 0 166 0 19 q 166 427 0 264 q 218 508 218 488 q 161 560 161 529 q 337 646 161 616 q 788 1135 628 836 l 788 1149 q 760 1163 783 1163 l 669 1163 q 309 1068 357 1068 q 242 1116 242 1068 q 361 1168 242 1168 q 779 1244 452 1177 z "},"[":{"ha":1937,"x_min":0,"x_max":1885,"o":"m 366 1396 q 491 1215 431 1396 q 560 1030 552 1034 l 565 1030 q 755 1111 649 1111 q 926 1054 851 1111 q 1092 1087 1006 1087 q 1305 1063 1144 1087 q 1486 1249 1331 1063 q 1614 1367 1535 1367 q 1875 1244 1875 1346 l 1885 1192 q 1709 987 1885 1165 q 1481 698 1481 728 l 1481 693 l 1505 214 q 1356 31 1505 57 q 1011 0 1206 5 l 802 52 q 465 76 621 76 l 427 76 q 351 218 351 76 l 347 385 q 389 736 347 549 q 0 1215 2 1081 l 0 1220 q 109 1381 0 1381 l 366 1396 m 123 1277 l 119 1272 l 119 1258 q 465 802 119 1095 q 489 726 489 770 l 437 389 q 484 228 437 228 q 812 161 484 185 l 987 123 l 1097 123 q 1391 176 1391 145 l 1391 489 q 1355 678 1391 674 q 1286 684 1320 682 l 1277 684 q 1231 688 1251 684 q 1158 693 1211 693 l 1054 693 q 954 589 954 674 l 954 532 l 1168 546 q 1215 508 1215 546 q 1168 418 1215 480 q 1149 347 1149 379 l 1154 285 q 1101 228 1141 228 q 1044 271 1089 228 l 1030 271 l 987 266 q 869 408 916 266 l 859 408 q 764 313 833 313 l 641 313 q 532 460 532 313 l 532 821 q 275 1282 366 1282 l 123 1277 m 1605 1263 q 1410 1011 1511 1095 q 1291 836 1291 905 l 1291 831 q 1372 779 1291 791 l 1377 779 q 1567 973 1422 779 q 1771 1234 1771 1202 l 1771 1239 q 1605 1263 1771 1250 m 641 655 l 646 422 l 660 413 l 712 413 q 779 532 765 413 q 873 722 779 574 l 888 793 l 888 826 l 821 983 l 783 997 l 717 997 q 684 930 684 997 q 641 655 641 848 m 973 798 l 978 798 l 1040 812 q 1168 802 1086 802 q 1206 845 1206 802 q 1182 935 1206 871 l 1182 949 q 1097 987 1160 987 l 1082 987 q 973 817 992 987 l 973 798 m 964 418 l 964 413 q 1011 366 973 366 q 1044 399 1044 372 q 978 432 1044 432 l 964 418 z "},"\\":{"ha":1107,"x_min":0,"x_max":1002,"o":"m 223 1244 q 460 1006 309 1244 l 465 1006 q 755 1206 668 1206 l 807 1206 q 1002 916 1002 1206 l 1002 897 q 907 612 1002 752 q 674 422 724 472 q 404 147 535 331 q 299 0 347 0 q 228 152 246 0 q 109 389 209 226 q 0 750 0 591 l 0 783 q 62 1135 0 922 q 223 1244 146 1220 m 138 978 q 294 247 60 625 q 318 180 307 180 l 323 180 q 422 304 357 233 q 726 570 570 494 q 907 831 907 686 l 911 907 q 782 1087 911 1106 q 622 1006 653 1068 q 517 802 564 951 q 470 779 486 779 q 380 954 421 779 q 233 1116 301 1116 l 214 1116 q 138 978 181 1116 z "},"]":{"ha":2223,"x_min":0,"x_max":2127,"o":"m 204 1391 q 313 1282 243 1391 q 361 1211 323 1282 q 555 921 463 1113 q 589 883 564 900 q 630 946 596 883 q 749 1008 663 1010 q 892 907 835 1006 l 897 907 q 987 1049 938 954 q 1059 1082 1023 1082 l 1073 1082 q 1177 997 1136 1082 l 1187 997 q 1294 1077 1255 1034 q 1379 1101 1333 1120 q 1466 1001 1426 1082 q 1513 830 1505 919 q 1538 741 1522 741 l 1562 741 q 1856 854 1622 753 l 1942 873 q 2127 522 2080 873 q 1918 418 2127 418 q 1699 347 1815 418 q 1433 156 1528 285 q 1258 0 1337 28 q 997 85 1165 0 q 679 123 679 105 q 517 318 570 199 l 451 451 q 0 1182 30 1072 q 176 1386 0 1284 l 204 1391 m 123 1206 l 123 1201 q 262 890 123 1059 q 551 494 401 721 q 622 328 593 413 q 873 214 696 214 q 1168 157 989 214 l 1220 157 q 1378 250 1288 157 q 1676 465 1468 344 q 2008 551 1791 522 l 2008 560 l 2013 560 q 1918 736 1981 736 q 1657 650 1814 736 q 1543 603 1647 639 q 1443 494 1481 580 q 1315 404 1355 404 q 1211 479 1286 413 l 1206 479 q 1011 361 1086 361 l 1006 361 q 911 394 983 361 q 850 347 891 394 l 821 332 q 617 679 690 332 l 603 688 l 574 684 q 527 745 529 684 q 418 968 461 853 q 266 1163 327 1102 q 199 1253 233 1224 l 185 1253 q 123 1206 133 1253 m 1282 679 q 1334 517 1282 517 q 1419 631 1373 517 l 1424 660 q 1377 935 1377 814 q 1348 983 1361 982 l 1339 983 q 1282 859 1282 954 l 1282 679 m 949 551 q 992 475 949 475 l 1002 475 q 1187 655 1134 475 l 1187 684 q 1130 726 1187 726 q 1097 935 1107 808 l 1068 954 q 949 551 949 925 m 703 826 l 703 807 q 779 489 703 669 q 817 470 799 470 l 821 470 q 840 584 837 470 q 812 802 840 656 q 779 873 812 859 l 774 873 q 703 826 703 864 z "},"^":{"ha":1006,"x_min":-182,"x_max":1011,"o":"m 777 1293 q 820 1213 820 1285 l 820 1175 q 606 766 820 1005 q 516 534 516 621 q 540 500 516 500 q 725 557 633 557 q 939 381 867 557 q 682 -31 1011 204 q 355 -93 618 -63 q 288 -558 317 -155 q 212 -786 261 -786 q 18 -833 131 -833 q -182 -686 -182 -784 q -101 -515 -168 -591 q 84 -463 -33 -463 l 146 -463 q 245 -88 174 -463 l 245 -83 q 132 -12 245 -50 q 32 121 44 74 q 141 429 45 275 q 454 728 175 473 q 649 1213 574 1132 q 777 1293 649 1258 m 649 994 l 649 985 q 711 1103 690 985 l 711 1108 l 706 1108 q 654 999 692 1098 l 649 994 m 141 144 l 141 125 q 255 35 184 57 l 260 35 q 317 201 282 35 l 269 254 l 260 273 q 345 391 260 283 q 397 519 397 486 l 397 534 q 174 282 274 487 q 141 144 141 191 m 388 7 l 393 7 q 692 87 648 34 q 829 315 829 188 q 715 458 814 458 l 696 458 q 526 358 643 458 q 435 206 455 358 q 388 7 413 206 m -77 -682 q 18 -753 -53 -753 l 32 -753 q 136 -677 136 -753 q 146 -563 146 -635 l 146 -539 l 141 -515 q -44 -615 -44 -576 q -77 -682 -77 -644 z "},"_":{"ha":1432,"x_min":49,"x_max":1373,"o":"m 77 77 q 941 16 683 16 q 1278 58 1135 16 q 1373 -41 1373 7 q 1126 -70 1373 -70 l 865 -75 q 92 -41 551 -51 q 49 20 56 -41 q 77 77 49 60 z "},"`":{"ha":1032,"x_min":-33,"x_max":931,"o":"m 874 1292 q 931 1240 931 1284 q 874 827 874 1114 q 698 166 863 304 q 380 10 533 29 q 186 -56 340 10 q -4 -85 43 -85 q -33 -37 -26 -85 q 100 39 -33 26 q 157 72 157 64 l 157 81 q 53 229 53 81 q 214 608 62 412 q 642 993 365 804 q 827 1259 805 1152 q 874 1292 827 1284 m 138 195 l 138 162 q 210 110 194 134 q 333 395 333 184 q 414 623 366 623 l 428 627 q 447 604 447 623 l 437 499 l 442 494 l 447 494 q 561 675 467 505 l 703 884 l 718 884 q 751 846 727 884 l 675 718 l 665 680 l 670 680 l 736 699 l 741 694 l 746 694 q 561 499 746 661 q 395 134 421 275 l 395 124 l 399 124 q 643 256 514 124 q 779 812 772 388 l 770 983 l 760 983 q 580 817 718 915 q 281 549 424 726 q 138 195 138 372 z "},"a":{"ha":760,"x_min":2,"x_max":840,"o":"m 344 699 q 510 614 455 699 q 586 557 563 557 q 657 595 608 595 q 686 571 666 595 q 534 244 686 554 q 496 59 496 144 q 572 -12 496 8 q 696 28 612 -16 q 830 111 781 73 l 840 102 l 840 97 q 738 -17 840 54 q 567 -88 636 -88 q 425 35 473 -88 q 396 144 407 144 l 391 144 q 116 7 254 28 q 2 125 14 7 l 2 135 q 235 637 20 350 q 344 699 292 699 m 78 154 q 102 78 81 78 l 130 78 q 391 225 241 88 q 538 481 490 345 q 387 623 426 623 q 116 315 281 623 q 78 154 78 190 z "},"b":{"ha":715,"x_min":-39,"x_max":683,"o":"m 578 1233 q 607 1166 601 1233 q 384 621 566 1029 l 384 606 l 393 606 q 598 712 517 715 q 678 644 678 709 l 683 625 q 503 189 683 456 q 90 -73 253 -73 q 33 -125 61 -125 q -39 -73 -35 -117 q 23 56 -39 -28 q 200 387 121 258 q 322 578 278 515 l 550 1209 l 564 1228 l 569 1233 l 578 1233 m 109 -1 l 123 -1 q 422 179 273 46 q 607 616 607 413 q 508 613 607 654 q 259 308 410 572 q 109 -1 109 43 z "},"c":{"ha":589,"x_min":0,"x_max":665,"o":"m 309 707 q 446 589 402 707 l 446 574 q 389 508 439 508 l 380 508 q 351 522 363 508 l 356 555 l 356 574 q 323 593 349 593 l 294 593 q 95 375 227 593 q 81 328 81 351 l 81 294 q 142 109 81 139 q 252 66 205 70 l 266 66 q 500 184 393 86 q 655 285 608 281 l 665 275 q 228 0 400 0 q 0 228 0 43 q 161 617 0 409 q 309 707 247 707 z "},"d":{"ha":859,"x_min":14,"x_max":964,"o":"m 940 1151 l 945 1151 q 964 1118 964 1143 l 964 1113 q 845 842 964 1048 q 688 425 688 516 q 702 251 664 312 q 873 149 741 190 l 883 135 l 883 116 q 840 92 871 92 q 646 206 764 92 l 631 206 q 447 66 631 163 q 152 -31 262 -31 q 14 83 14 -7 l 14 87 q 269 482 53 314 q 646 572 484 650 l 660 572 q 774 842 696 598 q 940 1151 888 1151 m 95 121 l 95 97 q 171 35 109 35 l 176 35 q 475 173 414 104 q 565 325 565 249 q 593 415 593 389 l 593 458 q 528 528 593 513 q 340 459 462 543 q 166 293 218 376 q 95 121 114 211 z "},"e":{"ha":635,"x_min":-16,"x_max":717,"o":"m 526 684 q 578 631 564 684 q 516 479 578 577 q 357 311 454 380 q 260 185 260 241 l 260 166 q 350 85 260 108 l 374 81 l 431 81 q 693 184 496 81 l 707 199 l 717 189 l 717 151 q 648 78 717 117 q 388 0 580 38 l 383 0 q 165 152 165 25 l 151 152 q 3 52 58 62 l -16 66 q 51 128 -16 99 q 227 361 199 249 q 392 595 298 507 q 526 684 486 684 m 326 422 l 326 408 l 336 408 q 502 589 384 408 l 492 589 q 326 422 412 532 z "},"f":{"ha":488,"x_min":-58,"x_max":764,"o":"m 541 1343 q 764 1244 764 1303 q 735 1201 758 1201 l 564 1267 l 541 1267 q 393 940 465 1267 q 317 636 336 756 l 332 636 l 493 660 l 507 660 q 593 617 593 660 q 559 589 593 593 l 536 593 l 507 593 q 275 489 344 593 q -1 -223 175 300 q -29 -304 -1 -292 l -39 -304 q -58 -261 -58 -298 l -58 -256 q 175 418 -55 -102 l 194 489 l 194 494 q 28 446 60 446 l 23 446 q -5 498 -5 461 q 165 565 -5 528 q 251 660 251 592 l 403 1258 q 541 1343 439 1343 z "},"g":{"ha":711,"x_min":3,"x_max":787,"o":"m 523 690 q 654 550 601 683 q 675 515 673 548 q 547 -84 557 26 l 552 -85 l 753 109 l 783 112 l 787 111 l 782 50 q 650 -59 769 35 q 520 -292 532 -153 q 401 -901 448 -694 q 243 -1254 317 -1166 q 126 -1339 172 -1343 q 31 -1060 26 -1294 l 39 -960 q 147 -584 56 -768 q 216 -455 149 -566 q 328 -313 282 -345 q 472 -125 468 -174 l 501 210 l 492 211 q 104 -22 245 -35 q 3 67 12 -15 q 235 500 17 233 q 523 690 428 698 m 83 122 l 81 98 q 97 54 79 62 l 121 52 q 385 187 222 43 q 452 258 386 199 q 541 450 530 333 q 518 581 551 578 l 499 582 q 123 243 357 568 q 83 122 91 210 m 104 -926 q 94 -1020 104 -926 q 140 -1236 83 -1114 l 159 -1238 q 272 -1080 199 -1241 q 456 -310 376 -810 l 453 -295 q 254 -503 412 -292 q 104 -926 125 -738 z "},"h":{"ha":658,"x_min":-1,"x_max":720,"o":"m 577 1340 l 591 1339 q 629 1291 631 1306 q 317 630 489 1040 l 163 299 l 177 298 q 517 673 288 441 q 557 683 539 685 q 602 616 600 677 l 601 611 q 431 165 588 500 l 421 119 q 481 64 418 87 q 711 127 549 56 l 716 127 l 720 121 l 718 98 q 625 28 713 62 q 429 -16 515 -26 q 350 110 327 7 q 437 319 373 214 q 513 549 508 513 l 514 564 l 506 574 q 258 293 372 452 q 140 111 209 235 q 67 14 90 12 l 27 0 l 18 1 q 3 45 -1 9 q 149 387 9 90 l 325 821 q 541 1316 505 1257 l 577 1340 z "},"i":{"ha":583,"x_min":-51,"x_max":664,"o":"m 578 1073 q 664 1016 637 1073 q 631 987 664 987 q 536 1040 575 987 l 536 1049 q 578 1073 549 1073 m 384 712 q 412 669 406 712 q 332 432 412 612 q 303 304 303 364 q 408 81 336 81 l 427 76 l 446 76 q 616 176 517 76 l 626 176 l 640 161 l 640 147 q 417 0 515 0 q 237 204 300 0 l 237 237 q 256 422 237 309 l 251 422 q 58 109 207 376 q -3 75 25 75 q 24 212 -51 91 q 332 650 145 393 q 384 712 351 696 z "},"j":{"ha":498,"x_min":-254,"x_max":477,"o":"m 312 971 q 421 913 390 964 l 419 894 q 374 869 412 878 q 279 926 276 897 q 312 971 291 973 m 268 608 l 277 607 q 450 228 400 507 q 450 -220 477 64 q 50 -1012 374 -896 l -13 -1020 q -243 -688 -204 -1002 q -244 -502 -254 -597 q -8 20 -212 -165 q 330 263 228 273 l 367 255 l 372 259 l 374 273 q 265 536 380 335 q 237 592 235 567 q 268 608 244 610 m -191 -497 q -85 -927 -218 -772 q -12 -954 -47 -949 q 212 -812 119 -966 q 401 -130 353 -638 q 368 212 423 207 l 358 213 q 26 -18 266 222 q -191 -497 -165 -220 z "},"k":{"ha":696,"x_min":-48,"x_max":728,"o":"m 536 1336 l 559 1333 q 570 1274 572 1331 q 231 334 551 1137 l 231 329 l 235 328 q 345 456 246 327 l 494 594 q 643 669 585 677 q 666 627 670 655 q 441 294 630 506 l 439 275 l 453 273 q 662 113 538 262 q 726 61 728 68 l 726 22 q 681 9 702 7 q 458 177 606 20 l 435 180 q 180 173 184 203 q -35 -89 20 -97 q -45 -59 -48 -82 q 145 269 -29 -11 q 452 1041 264 503 q 536 1336 505 1340 m 256 268 l 255 263 l 260 262 q 544 510 388 290 l 566 559 l 562 565 l 557 566 q 315 351 509 542 q 256 268 258 283 z "},"l":{"ha":629,"x_min":-170,"x_max":737,"o":"m 667 1236 q 737 1185 733 1242 q 252 237 631 719 q 208 139 205 177 l 209 130 q 311 42 235 37 l 368 47 q 591 98 458 54 q 658 76 724 142 q 332 -42 433 -34 q 136 85 189 -53 l 121 98 l 116 98 q -131 -155 -37 -124 q -167 -119 -159 -157 l -168 -110 q -119 -58 -170 -75 q 267 410 128 146 q 397 815 278 488 q 667 1236 517 1143 m 293 384 l 294 374 l 298 375 q 518 774 358 467 q 675 1123 679 1081 l 674 1147 l 664 1156 q 456 787 572 1091 q 310 409 340 483 l 293 384 z "},"m":{"ha":924,"x_min":7,"x_max":895,"o":"m 186 675 q 262 566 239 675 q 174 280 262 440 l 174 271 l 183 271 l 235 351 q 468 536 391 540 q 530 451 530 536 l 534 389 l 539 389 q 805 622 733 622 l 819 627 q 895 494 895 627 q 805 100 895 369 l 800 71 l 814 38 q 753 0 805 0 q 710 33 725 0 q 824 342 724 90 l 829 418 l 829 465 q 786 541 829 541 l 777 541 q 582 328 635 448 q 449 114 552 310 q 378 66 437 93 l 363 66 q 345 95 354 66 q 411 247 363 171 q 463 427 463 387 l 463 441 l 449 456 q 197 195 364 426 q 45 57 121 57 q 7 100 14 57 l 55 171 l 131 309 q 186 543 186 418 l 186 566 l 167 585 l 157 585 q 116 630 128 585 q 186 675 103 675 z "},"n":{"ha":602,"x_min":-3,"x_max":586,"o":"m 173 688 q 249 422 249 688 l 249 403 l 258 393 l 268 393 l 320 479 q 524 659 439 631 q 586 574 586 623 l 482 139 l 482 134 q 506 1 506 41 q 487 -27 506 -22 q 406 111 406 37 l 500 474 l 505 541 l 500 564 l 486 564 q 296 317 387 475 q 157 53 199 134 l 85 5 q 62 39 62 12 q 128 200 62 60 q 182 507 182 413 q 130 578 173 578 l 121 578 q 40 541 92 578 l 31 541 q -3 597 14 541 q 173 688 -3 630 z "},"o":{"ha":612,"x_min":8,"x_max":682,"o":"m 61 271 q 87 321 61 271 q 326 608 114 372 q 535 698 441 684 q 682 603 682 670 q 312 100 682 469 q 84 -9 170 -9 q 8 114 8 8 l 8 133 q 61 271 8 170 m 160 104 q 174 85 168 85 q 564 460 269 85 q 606 565 606 533 l 606 579 q 568 603 594 603 l 535 603 q 227 351 407 603 q 160 104 160 231 m 94 185 l 84 138 l 84 100 q 98 71 87 71 l 108 71 l 113 95 l 113 128 l 108 185 l 94 185 z "},"p":{"ha":544,"x_min":-172,"x_max":607,"o":"m 536 776 q 607 676 607 776 l 607 662 q 455 249 607 494 q 137 16 258 16 l 109 16 q -77 -549 96 16 q -134 -610 -105 -607 q -172 -563 -165 -610 q 18 50 -160 -374 q 194 548 180 382 l 208 567 l 213 572 l 232 572 l 289 557 l 294 557 q 536 776 450 776 m 175 239 l 203 220 l 203 216 l 180 92 l 184 92 q 408 292 302 146 q 536 591 536 507 l 536 681 q 522 709 536 705 l 517 709 q 203 311 446 709 l 175 239 z "},"q":{"ha":589,"x_min":-12,"x_max":577,"o":"m 369 711 q 447 647 441 705 l 451 557 l 457 500 l 462 500 q 500 638 481 528 q 545 667 523 664 q 577 631 574 660 q 498 371 570 495 l 346 5 q 275 -189 349 -19 q 83 -857 77 -789 q 102 -897 91 -897 l 140 -855 l 145 -855 l 158 -887 q 69 -958 163 -939 q 3 -907 31 -962 q 338 137 -2 -864 l 333 137 l 220 30 q 105 -20 157 -14 q 9 85 36 -26 q 154 528 -12 292 q 369 711 287 703 m 87 160 l 92 113 q 174 64 98 56 q 418 358 360 252 q 438 446 441 425 l 437 456 l 423 454 l 389 422 l 374 420 q 356 457 359 422 l 356 462 l 359 614 l 355 614 q 102 295 170 513 q 87 160 83 201 z "},"r":{"ha":698,"x_min":-18,"x_max":772,"o":"m 533 725 q 566 682 566 717 l 467 227 l 452 103 q 476 37 458 37 l 495 37 q 768 201 574 37 l 772 196 l 772 153 q 566 -11 772 114 q 481 -49 548 -31 q 386 56 386 -14 l 386 65 q 476 578 386 176 l 476 602 l 467 602 q 224 317 275 414 q 139 151 171 231 q 6 32 72 32 q -18 51 -16 41 l -18 65 q 172 326 -18 85 q 533 725 441 725 z "},"s":{"ha":605,"x_min":-52,"x_max":555,"o":"m 508 766 q 541 723 541 751 l 484 595 q 418 329 418 417 q 484 172 441 172 l 489 168 l 494 168 q 555 49 555 118 q 385 -75 555 -37 l 342 -79 l 328 -79 q 261 -56 261 -76 l 261 -51 q 408 106 261 -24 l 413 111 l 413 115 q 332 376 332 286 l 328 381 l 323 381 q 182 224 279 349 q -24 23 53 23 l -33 23 l -52 47 l -52 75 q 19 118 -45 98 q 228 353 113 208 q 427 694 406 594 q 508 766 471 766 z "},"t":{"ha":505,"x_min":0,"x_max":690,"o":"m 671 1391 q 690 1377 690 1384 l 690 1362 q 370 693 690 1307 l 356 650 l 356 641 l 361 641 l 489 655 q 517 636 503 655 q 323 546 517 589 q 123 176 262 546 l 119 133 q 176 85 119 90 l 204 85 q 455 122 326 85 q 610 159 583 159 q 624 135 618 159 q 166 0 507 21 q 33 95 33 24 q 204 503 33 151 l 204 517 q 38 470 94 470 q 0 489 0 479 l 0 508 q 266 627 5 547 q 389 859 311 673 q 590 1291 431 932 q 671 1391 612 1391 z "},"u":{"ha":987,"x_min":0,"x_max":1078,"o":"m 842 696 q 861 677 858 692 q 712 422 838 599 q 660 214 660 331 q 741 85 660 121 l 779 76 l 812 76 q 969 119 920 86 l 1074 200 l 1078 195 l 1078 148 q 965 56 1078 106 q 764 5 851 5 q 603 109 685 5 q 570 342 570 160 l 555 342 q 100 0 192 0 q 0 128 16 0 q 220 634 78 526 l 229 634 q 248 606 239 634 q 95 247 248 577 l 76 176 l 76 114 q 95 81 76 88 l 119 81 q 726 565 241 81 q 800 682 788 682 l 842 696 z "},"v":{"ha":439,"x_min":-3,"x_max":640,"o":"m 590 604 q 615 588 590 604 q 239 151 640 572 q 41 -11 137 14 q 8 86 -3 17 q 178 646 155 649 l 193 648 q 229 570 235 641 l 127 293 l 83 103 l 92 102 q 330 328 194 170 q 590 604 541 635 z "},"w":{"ha":878,"x_min":4,"x_max":863,"o":"m 166 635 q 182 446 205 638 l 107 192 l 111 135 q 132 108 113 106 q 353 412 251 192 q 506 667 456 631 q 538 621 528 668 q 480 302 456 439 l 480 236 l 480 231 q 527 106 492 119 l 536 106 q 805 610 677 116 l 827 627 q 863 591 857 621 q 680 102 858 485 q 548 3 598 6 q 387 201 399 33 l 382 267 l 373 267 q 115 12 181 16 q 6 142 13 36 q 91 402 4 168 l 90 425 l 82 468 q 166 635 121 632 z "},"x":{"ha":610,"x_min":0,"x_max":589,"o":"m 228 646 l 242 646 q 351 479 296 646 l 370 470 q 517 560 389 470 q 584 579 542 574 l 589 560 q 413 389 589 510 l 404 361 q 574 52 574 93 q 560 28 568 28 l 546 28 q 342 318 386 238 l 337 323 l 328 323 q 104 114 240 262 l 100 109 l 100 76 q 123 14 123 43 l 123 0 l 119 0 q 0 90 0 22 q 266 366 0 175 q 299 413 299 393 q 214 622 214 559 l 214 631 l 228 646 z "},"y":{"ha":676,"x_min":-66,"x_max":765,"o":"m 576 622 l 581 622 l 585 598 l 570 54 l 575 54 l 755 201 l 765 191 l 765 144 q 594 -3 765 112 q 589 -79 589 4 q 513 -734 589 -654 q 224 -1124 460 -898 q 15 -1228 75 -1228 q -61 -1152 -22 -1228 l -66 -1133 q 100 -677 -66 -989 q 181 -530 121 -621 q 233 -445 203 -463 q 509 -56 322 -260 l 513 -18 q 500 374 514 404 q 119 11 193 11 q 30 86 50 11 q 43 248 9 161 q 202 549 132 549 l 212 549 q 231 502 231 545 q 138 248 231 469 q 119 163 119 191 l 119 139 q 143 101 119 113 l 153 101 q 452 456 237 123 q 576 622 530 622 m 24 -1133 l 39 -1147 l 58 -1147 q 214 -1043 85 -1147 q 404 -839 277 -1019 q 528 -364 528 -684 l 528 -245 q 509 -132 528 -132 l 314 -393 q 24 -1057 24 -882 l 24 -1133 z "},"z":{"ha":659,"x_min":-272,"x_max":695,"o":"m 274 675 l 293 675 q 402 561 402 675 l 402 556 q 331 347 402 513 q 511 210 457 306 l 516 186 l 526 186 q 586 232 546 186 l 681 294 l 695 294 l 695 241 q 624 180 695 214 q 549 91 578 145 q 136 -735 419 -411 q -243 -1048 -131 -1048 l -248 -1048 l -272 -1025 q 312 -80 -240 -798 q 464 119 464 74 q 350 243 442 243 l 231 243 l 212 238 q 170 267 185 243 q 260 380 170 298 q 340 542 340 493 l 340 547 q 250 589 340 589 q 41 480 220 589 l 22 480 q 3 537 3 480 q 94 599 3 576 q 274 675 197 675 m -139 -892 l -139 -911 l -130 -920 l -125 -920 q 132 -650 -1 -819 q 440 -104 383 -334 l 469 -14 l 469 -9 l 454 -9 q 155 -355 409 -45 l -30 -631 q -139 -892 -139 -816 z "},"{":{"ha":895,"x_min":0,"x_max":764,"o":"m 736 1177 q 764 1120 764 1169 l 660 489 l 660 460 q 693 261 660 278 l 693 256 q 494 28 693 189 q 418 0 456 3 q 256 114 326 0 l 242 204 q 574 413 242 381 l 579 413 l 584 579 l 584 612 l 570 612 q 441 565 509 565 l 290 584 q 90 479 216 584 l 76 475 q 0 617 30 475 q 498 940 0 729 q 655 1120 581 990 q 722 1177 675 1177 l 736 1177 m 142 669 l 152 660 q 309 693 262 693 l 475 679 q 612 859 542 679 l 612 873 l 603 873 q 490 843 581 873 q 171 703 400 812 l 142 669 m 342 214 q 418 109 342 139 l 446 104 l 465 104 q 570 223 570 172 l 570 275 l 551 294 l 479 294 q 342 218 377 294 l 342 214 z "},"|":{"ha":991,"x_min":0,"x_max":926,"o":"m 769 1358 q 817 1291 810 1358 q 760 1158 817 1249 q 622 854 622 888 l 627 840 l 684 840 q 926 783 886 840 l 926 764 q 674 498 926 688 q 309 195 480 311 q 28 0 91 0 q 0 38 0 11 q 38 147 12 147 q 261 389 191 264 q 318 494 318 474 q 57 598 318 536 l 47 631 q 503 1144 64 722 q 665 1282 633 1282 q 769 1358 736 1350 m 214 665 l 214 660 q 446 565 446 600 q 370 389 370 415 q 779 712 420 389 q 802 750 802 737 l 798 755 l 793 755 q 465 688 695 755 q 413 774 413 720 l 413 783 q 574 1011 488 837 l 612 1106 l 608 1111 l 603 1111 q 332 842 450 996 q 214 665 214 688 z "},"}":{"ha":2123,"x_min":24,"x_max":2013,"o":"m 1851 1290 q 1918 1242 1918 1284 q 1785 1166 1918 1204 l 1785 1162 q 1818 1114 1800 1157 l 1823 1114 l 1984 1119 q 2013 1105 2013 1114 l 2013 1095 q 1866 1019 2013 1019 q 1756 777 1802 1019 q 1533 -39 1590 212 l 1533 -54 q 1548 -87 1533 -69 l 1548 -96 q 1495 -158 1548 -125 l 1476 -158 q 1434 -73 1466 -158 l 1429 -73 l 1310 -96 q 1182 22 1259 -96 l 1177 56 q 1334 298 1177 163 q 1400 340 1346 298 l 1462 350 q 1510 312 1510 350 q 1419 236 1510 236 q 1282 70 1350 236 l 1282 41 q 1320 18 1294 18 l 1400 18 q 1538 274 1486 18 q 1704 977 1704 859 l 1681 977 q 712 753 1529 977 q 555 692 563 704 q 484 264 484 344 l 484 236 q 503 203 484 210 q 598 241 522 203 l 641 250 q 674 231 674 242 l 674 222 q 280 27 529 121 l 185 13 q 28 122 28 24 l 24 127 l 24 132 q 176 350 34 201 q 309 412 290 412 q 413 355 379 355 q 460 673 460 520 l 460 744 q 498 801 460 764 q 574 1043 526 801 l 574 1076 l 551 1109 l 551 1133 q 598 1162 551 1143 q 665 1200 598 1191 l 674 1200 l 674 1195 q 1851 1285 785 1195 l 1851 1290 m 612 867 l 612 848 q 627 839 612 839 l 1030 939 q 1690 1076 1463 1038 l 1728 1147 l 1728 1152 q 1714 1162 1728 1162 q 736 1095 736 1135 q 612 867 662 1095 m 133 132 q 171 108 145 108 l 199 108 q 394 193 394 108 l 394 236 q 304 288 394 261 l 290 288 q 133 141 201 288 l 133 132 z "},"~":{"ha":966,"x_min":10,"x_max":907,"o":"m 323 762 q 390 672 373 762 l 385 420 q 480 349 423 349 q 869 677 627 368 q 907 644 907 667 q 613 335 907 577 q 447 264 507 264 q 314 430 327 264 l 314 653 l 309 653 q 105 345 216 620 q 48 254 81 277 l 43 254 q 10 307 30 257 q 233 696 44 448 q 323 762 301 762 z "},"":{"ha":532,"x_min":98,"x_max":511,"o":"m 136 -65 q 98 1 101 -65 q 245 405 98 62 q 345 951 345 689 q 378 1036 361 1036 l 388 1036 q 421 941 421 1019 l 421 922 q 203 63 421 742 q 136 -65 195 -65 m 407 1198 q 336 1274 350 1198 q 431 1402 336 1352 q 511 1274 492 1402 l 511 1269 q 407 1198 511 1198 z "},"":{"ha":576,"x_min":62,"x_max":522,"o":"m 357 1103 q 374 1156 365 1129 q 440 1284 382 1284 q 478 1218 475 1284 q 440 1083 478 1187 q 508 985 482 1055 l 508 971 q 451 905 500 905 l 441 905 q 413 919 425 905 l 418 952 l 418 971 q 403 987 414 982 q 331 814 373 912 q 248 482 271 644 q 313 463 283 465 l 328 463 q 459 500 454 483 q 512 522 465 518 l 522 512 q 290 397 462 397 q 238 409 262 402 q 231 269 231 338 q 198 183 215 183 l 189 183 q 155 278 155 201 l 155 297 q 172 436 155 347 q 62 625 62 496 q 223 1014 62 806 q 357 1103 299 1095 m 189 516 q 317 975 229 692 q 157 772 254 933 q 142 724 142 747 l 142 691 q 189 516 142 556 z "},"":{"ha":869,"x_min":42,"x_max":772,"o":"m 262 618 l 246 281 q 270 67 251 67 q 563 153 444 111 q 734 191 700 191 q 772 143 772 191 q 625 100 772 117 l 379 48 q 178 -37 195 -66 q 161 53 161 -9 q 199 613 178 173 q 199 619 199 616 q 42 661 42 624 l 42 671 q 70 699 45 699 l 210 690 q 322 1149 270 1075 q 484 1244 389 1244 q 766 986 740 1244 l 771 958 q 738 920 765 920 q 686 1024 686 920 q 625 1151 686 1129 q 484 1173 564 1173 q 267 686 316 1173 l 289 684 l 447 688 q 509 664 509 681 l 509 650 q 262 618 509 619 z "},"":{"ha":688,"x_min":0,"x_max":0,"o":""},"":{"ha":856,"x_min":0,"x_max":0,"o":""},"":{"ha":427,"x_min":161,"x_max":331,"o":"m 305 945 l 305 917 q 279 614 331 614 q 231 600 279 605 q 193 648 193 600 q 218 822 231 761 q 210 940 205 883 q 272 998 214 998 q 305 945 299 998 m 273 418 l 273 389 q 246 87 298 87 q 199 73 246 77 q 161 120 161 73 q 186 294 199 233 q 177 413 173 355 q 239 470 182 470 q 273 418 267 470 z "},"":{"ha":979,"x_min":100,"x_max":940,"o":"m 338 896 q 258 947 288 918 q 201 1046 212 994 q 294 1175 201 1128 q 468 1263 387 1222 q 625 1303 549 1303 q 724 1204 724 1289 q 625 1066 688 1066 l 615 1080 l 639 1208 l 639 1213 l 629 1223 q 382 1132 538 1246 q 315 1075 328 1104 l 315 1046 q 500 926 315 981 q 545 914 526 922 q 676 885 603 899 q 917 745 893 801 q 897 578 940 688 q 762 429 857 479 q 821 327 808 382 q 808 87 851 197 q 665 -39 764 -22 q 446 -56 565 -56 q 299 28 291 -56 q 408 35 322 35 l 531 35 q 707 69 633 35 q 772 238 781 104 q 696 401 766 353 q 686 408 684 401 q 669 417 678 413 q 347 517 557 477 q 157 602 212 547 q 100 702 110 649 q 193 831 100 784 q 338 896 275 872 m 727 460 q 749 481 736 469 q 868 656 869 595 q 771 762 866 717 q 599 827 703 798 l 599 827 q 280 787 309 846 q 214 730 227 760 l 214 702 q 574 541 214 610 q 727 460 668 505 z "},"":{"ha":553,"x_min":39,"x_max":482,"o":"m 117 1511 q 176 1415 163 1511 q 107 1381 162 1381 q 42 1439 42 1381 l 39 1439 q 117 1511 39 1501 m 424 1521 q 482 1426 470 1521 q 414 1391 469 1391 q 349 1449 349 1391 l 345 1449 q 424 1521 345 1511 z "},"":{"ha":1135,"x_min":0,"x_max":0,"o":""},"":{"ha":439,"x_min":0,"x_max":0,"o":""},"":{"ha":935,"x_min":0,"x_max":844,"o":"m 457 866 q 500 910 457 866 q 583 920 544 954 l 583 911 q 427 764 587 869 q 128 532 172 585 q 251 399 162 448 q 351 328 318 328 q 493 176 493 229 q 465 114 484 114 l 455 114 l 137 380 q 0 551 15 471 q 228 698 0 580 q 457 866 370 778 m 714 868 q 757 912 714 868 q 840 923 801 956 l 840 913 q 684 767 844 872 q 385 534 429 587 q 508 401 419 451 q 608 330 575 330 q 750 178 750 232 q 722 117 741 117 l 712 117 l 394 382 q 257 553 272 474 q 485 701 257 583 q 714 868 627 781 z "},"":{"ha":688,"x_min":0,"x_max":0,"o":""},"":{"ha":1135,"x_min":0,"x_max":0,"o":""},"":{"ha":700,"x_min":58,"x_max":628,"o":"m 111 616 l 139 616 q 614 564 614 616 q 628 516 623 564 q 581 478 628 478 q 281 516 467 516 l 224 516 q 116 520 173 516 q 58 583 58 525 q 111 616 58 610 z "},"":{"ha":528,"x_min":69,"x_max":444,"o":"m 321 1223 q 439 1109 395 1223 l 444 1071 q 235 814 444 931 l 178 800 q 69 957 94 800 q 140 1118 69 972 q 316 1223 140 1186 l 321 1223 m 155 928 l 155 914 l 183 886 l 207 886 q 373 1033 294 886 l 382 1090 q 316 1147 382 1140 q 245 1052 271 1147 q 155 928 155 957 z "},"":{"ha":688,"x_min":58,"x_max":628,"o":"m 111 143 l 139 143 q 614 91 614 143 q 628 43 623 91 q 581 5 628 5 q 281 43 467 43 l 224 43 q 116 48 173 43 q 58 110 58 52 q 111 143 58 137 m 309 516 l 224 516 q 116 520 173 516 q 58 583 58 525 q 111 616 58 610 l 139 616 q 323 613 242 616 l 332 669 q 353 776 340 720 q 424 823 367 831 q 448 766 451 818 l 444 737 q 435 608 440 668 q 614 564 614 595 q 628 516 623 564 q 581 478 628 478 q 428 509 515 500 q 359 186 398 179 q 310 179 357 176 q 280 232 272 185 q 309 516 290 378 z "},"":{"ha":688,"x_min":0,"x_max":0,"o":""},"":{"ha":688,"x_min":0,"x_max":0,"o":""},"":{"ha":694,"x_min":400,"x_max":696,"o":"m 682 1327 l 696 1318 q 595 1186 696 1302 q 438 996 473 1024 l 419 996 q 400 1029 412 996 q 557 1238 400 1068 q 682 1327 561 1291 z "},"":{"ha":800,"x_min":0,"x_max":0,"o":""},"":{"ha":694,"x_min":0,"x_max":0,"o":""},"":{"ha":481,"x_min":130,"x_max":319,"o":"m 239 695 q 319 562 302 695 q 224 515 300 515 q 134 595 134 515 l 130 595 q 239 695 130 682 z "},"":{"ha":465,"x_min":74,"x_max":418,"o":"m 351 54 q 313 -57 362 54 q 391 -246 418 -134 q 230 -351 309 -351 q 109 -310 143 -351 q 182 -279 74 -269 l 216 -279 l 254 -270 q 334 -142 334 -235 q 271 -87 341 -151 q 290 49 201 -23 q 309 68 293 63 l 351 54 z "},"":{"ha":688,"x_min":0,"x_max":0,"o":""},"":{"ha":487,"x_min":0,"x_max":0,"o":""},"":{"ha":911,"x_min":-3,"x_max":840,"o":"m 384 866 q 427 822 384 866 q 612 698 471 778 q 840 551 840 580 q 703 380 826 471 l 385 114 l 376 114 q 347 176 357 114 q 490 328 347 229 q 589 399 522 328 q 712 532 679 448 q 413 764 669 585 q 257 911 254 869 l 257 920 q 384 866 296 954 m 126 868 q 170 824 126 868 q 355 701 214 781 q 583 553 583 583 q 446 382 569 474 l 128 117 l 119 117 q 90 178 100 117 q 233 330 90 232 q 332 401 265 330 q 455 534 422 451 q 156 767 412 587 q 0 913 -3 872 l 0 923 q 126 868 39 956 z "},"":{"ha":1158,"x_min":0,"x_max":0,"o":""},"":{"ha":1332,"x_min":0,"x_max":0,"o":""},"":{"ha":1158,"x_min":0,"x_max":0,"o":""},"":{"ha":899,"x_min":176,"x_max":850,"o":"m 328 -72 q 195 14 228 -72 q 176 104 176 62 q 304 427 176 197 l 513 688 q 674 916 674 852 l 674 954 q 608 991 650 991 l 608 1001 q 669 1034 625 1034 q 769 939 769 1020 q 456 536 769 861 q 246 169 265 315 q 323 -1 227 22 l 337 -1 q 650 246 541 -1 l 650 256 l 631 289 l 631 298 l 731 322 q 764 284 758 322 q 498 -43 700 91 q 328 -72 404 -72 m 679 1200 q 603 1272 603 1222 l 603 1276 q 802 1385 718 1385 q 850 1348 850 1385 l 850 1343 q 717 1210 850 1296 l 679 1200 z "},"":{"ha":749,"x_min":0,"x_max":859,"o":"m 817 1324 q 859 1277 848 1324 q 622 451 859 1241 q 565 152 565 227 l 570 62 q 522 14 559 14 q 479 76 479 35 q 555 437 479 133 l 555 441 l 551 441 q 195 299 195 357 q 66 33 90 115 q 24 0 47 0 q 0 43 12 2 q 204 399 0 89 q 323 574 204 427 q 404 693 362 644 q 631 1049 520 900 q 783 1296 631 1061 q 817 1324 795 1316 m 342 489 l 342 479 l 380 479 q 598 598 598 511 q 745 1111 745 1049 l 745 1116 l 741 1116 q 579 902 658 1042 q 342 489 353 559 m 490 1499 q 588 1430 585 1472 q 696 1313 696 1343 q 682 1287 688 1287 l 667 1287 q 559 1390 640 1309 q 479 1492 479 1480 l 490 1499 z "},"":{"ha":749,"x_min":0,"x_max":1087,"o":"m 817 1324 q 859 1277 848 1324 q 622 451 859 1241 q 565 152 565 227 l 570 62 q 522 14 559 14 q 479 76 479 35 q 555 437 479 133 l 555 441 l 551 441 q 195 299 195 357 q 66 33 90 115 q 24 0 47 0 q 0 43 12 2 q 204 399 0 89 q 323 574 204 427 q 404 693 362 644 q 631 1049 520 900 q 783 1296 631 1061 q 817 1324 795 1316 m 342 489 l 342 479 l 380 479 q 598 598 598 511 q 745 1111 745 1049 l 745 1116 l 741 1116 q 579 902 658 1042 q 342 489 353 559 m 1076 1444 l 1087 1437 q 1008 1335 1087 1425 q 900 1232 927 1254 l 885 1232 q 870 1258 879 1232 q 979 1375 870 1289 q 1076 1444 982 1417 z "},"":{"ha":749,"x_min":0,"x_max":999,"o":"m 817 1324 q 859 1277 848 1324 q 622 451 859 1241 q 565 152 565 227 l 570 62 q 522 14 559 14 q 479 76 479 35 q 555 437 479 133 l 555 441 l 551 441 q 195 299 195 357 q 66 33 90 115 q 24 0 47 0 q 0 43 12 2 q 204 399 0 89 q 323 574 204 427 q 404 693 362 644 q 631 1049 520 900 q 783 1296 631 1061 q 817 1324 795 1316 m 342 489 l 342 479 l 380 479 q 598 598 598 511 q 745 1111 745 1049 l 745 1116 l 741 1116 q 579 902 658 1042 q 342 489 353 559 m 931 1519 q 958 1478 952 1519 l 955 1397 l 955 1366 q 999 1291 955 1339 q 962 1267 993 1278 q 904 1315 936 1267 l 890 1366 l 894 1407 l 890 1411 l 886 1411 q 808 1339 877 1411 l 788 1335 q 764 1356 773 1335 q 918 1516 819 1474 l 931 1519 z "},"":{"ha":749,"x_min":0,"x_max":1055,"o":"m 817 1324 q 859 1277 848 1324 q 622 451 859 1241 q 565 152 565 227 l 570 62 q 522 14 559 14 q 479 76 479 35 q 555 437 479 133 l 555 441 l 551 441 q 195 299 195 357 q 66 33 90 115 q 24 0 47 0 q 0 43 12 2 q 204 399 0 89 q 323 574 204 427 q 404 693 362 644 q 631 1049 520 900 q 783 1296 631 1061 q 817 1324 795 1316 m 342 489 l 342 479 l 380 479 q 598 598 598 511 q 745 1111 745 1049 l 745 1116 l 741 1116 q 579 902 658 1042 q 342 489 353 559 m 690 1514 q 775 1505 716 1541 l 891 1423 q 979 1440 951 1408 q 1055 1508 1044 1531 q 1010 1377 1041 1411 q 850 1388 949 1310 l 730 1455 l 673 1402 q 610 1381 644 1333 q 690 1514 679 1501 z "},"":{"ha":749,"x_min":0,"x_max":1025,"o":"m 817 1324 q 859 1277 848 1324 q 622 451 859 1241 q 565 152 565 227 l 570 62 q 522 14 559 14 q 479 76 479 35 q 555 437 479 133 l 555 441 l 551 441 q 195 299 195 357 q 66 33 90 115 q 24 0 47 0 q 0 43 12 2 q 204 399 0 89 q 323 574 204 427 q 404 693 362 644 q 631 1049 520 900 q 783 1296 631 1061 q 817 1324 795 1316 m 342 489 l 342 479 l 380 479 q 598 598 598 511 q 745 1111 745 1049 l 745 1116 l 741 1116 q 579 902 658 1042 q 342 489 353 559 m 728 1480 q 775 1406 765 1480 q 719 1379 764 1379 q 666 1424 666 1379 l 663 1424 q 728 1480 663 1473 m 978 1466 q 1025 1390 1015 1466 q 970 1364 1014 1364 q 916 1409 916 1364 l 913 1409 q 978 1466 913 1457 z "},"":{"ha":749,"x_min":0,"x_max":1004,"o":"m 817 1324 q 859 1277 848 1324 q 622 451 859 1241 q 565 152 565 227 l 570 62 q 522 14 559 14 q 479 76 479 35 q 555 437 479 133 l 555 441 l 551 441 q 195 299 195 357 q 66 33 90 115 q 24 0 47 0 q 0 43 12 2 q 204 399 0 89 q 323 574 204 427 q 404 693 362 644 q 631 1049 520 900 q 783 1296 631 1061 q 817 1324 795 1316 m 342 489 l 342 479 l 380 479 q 598 598 598 511 q 745 1111 745 1049 l 745 1116 l 741 1116 q 579 902 658 1042 q 342 489 353 559 m 942 1542 q 1002 1485 979 1542 l 1004 1466 q 899 1339 1004 1397 l 871 1331 q 817 1409 829 1331 q 852 1490 817 1417 q 940 1542 852 1524 l 942 1542 m 859 1395 l 859 1388 l 873 1374 l 885 1374 q 968 1447 929 1374 l 973 1476 q 940 1504 973 1501 q 904 1457 917 1504 q 859 1395 859 1410 z "},"":{"ha":1562,"x_min":0,"x_max":1501,"o":"m 817 1324 q 859 1277 848 1324 q 622 451 859 1241 q 565 152 565 227 l 570 62 q 522 14 559 14 q 479 76 479 35 q 555 437 479 133 l 555 441 l 551 441 q 195 299 195 357 q 66 33 90 115 q 24 0 47 0 q 0 43 12 2 q 204 399 0 89 q 323 574 204 427 q 404 693 362 644 q 631 1049 520 900 q 783 1296 631 1061 q 817 1324 795 1316 m 342 489 l 342 479 l 380 479 q 598 598 598 511 q 745 1111 745 1049 l 745 1116 l 741 1116 q 579 902 658 1042 q 342 489 353 559 m 1326 1248 l 1340 1248 q 1501 1153 1501 1230 l 1478 1091 l 1473 1091 q 1449 1158 1466 1091 q 1321 1191 1414 1191 l 1293 1191 q 889 1006 1128 1148 q 773 660 889 938 l 897 703 l 1072 750 l 1186 760 l 1234 760 q 1495 731 1495 760 l 1495 722 q 1139 679 1495 699 q 830 584 830 636 q 597 332 686 584 q 564 171 564 243 l 564 138 q 764 -28 564 35 l 787 -28 q 1191 62 903 -28 l 1276 119 l 1291 119 l 1295 104 q 802 -100 1295 -26 l 716 -104 q 517 14 625 -104 q 488 109 490 62 q 578 427 488 214 l 578 437 l 569 446 l 479 441 q 460 456 460 449 l 460 470 q 640 603 460 511 q 794 977 677 603 l 794 991 l 789 991 l 699 972 q 671 1020 677 972 q 884 1101 671 1055 q 1326 1248 1250 1248 z "},"":{"ha":949,"x_min":-11,"x_max":945,"o":"m 759 1338 q 878 1196 878 1310 q 783 911 841 911 q 764 935 764 916 q 802 1172 802 1097 q 759 1243 802 1218 l 749 1243 q 400 1018 584 1243 q 143 581 216 793 q 93 235 71 369 q 228 81 114 102 q 470 161 336 81 q 921 517 528 174 l 940 522 l 945 508 q 650 228 835 372 q 209 0 378 0 q 16 282 -11 13 q 147 758 43 551 q 451 1141 251 964 q 754 1338 650 1319 l 759 1338 m 351 54 q 313 -57 362 54 q 391 -246 418 -134 q 230 -351 309 -351 q 109 -310 143 -351 q 182 -279 74 -269 l 216 -279 l 254 -270 q 334 -142 334 -235 q 271 -87 341 -151 q 290 49 201 -23 q 309 68 293 63 l 351 54 z "},"":{"ha":1072,"x_min":0,"x_max":1042,"o":"m 866 1352 l 880 1352 q 1042 1257 1042 1334 l 1018 1196 l 1013 1196 q 989 1262 1006 1196 q 861 1295 954 1295 l 833 1295 q 429 1110 668 1253 q 313 764 429 1042 l 437 807 l 612 854 l 726 864 l 774 864 q 1035 836 1035 864 l 1035 826 q 679 783 1035 804 q 370 688 370 741 q 138 437 226 688 q 104 275 104 348 l 104 242 q 304 76 104 139 l 328 76 q 731 166 443 76 l 817 223 l 831 223 l 836 209 q 342 5 836 78 l 256 0 q 57 119 165 0 q 28 214 30 167 q 119 532 28 319 l 119 541 l 109 551 l 19 546 q 0 560 0 553 l 0 574 q 180 707 0 616 q 334 1082 218 707 l 334 1096 l 330 1096 l 239 1077 q 211 1124 218 1077 q 425 1205 211 1160 q 866 1352 790 1352 m 302 1545 q 399 1476 397 1517 q 508 1358 508 1389 q 493 1333 499 1333 l 479 1333 q 370 1435 451 1354 q 291 1537 291 1525 l 302 1545 z "},"":{"ha":1072,"x_min":0,"x_max":1042,"o":"m 866 1352 l 880 1352 q 1042 1257 1042 1334 l 1018 1196 l 1013 1196 q 989 1262 1006 1196 q 861 1295 954 1295 l 833 1295 q 429 1110 668 1253 q 313 764 429 1042 l 437 807 l 612 854 l 726 864 l 774 864 q 1035 836 1035 864 l 1035 826 q 679 783 1035 804 q 370 688 370 741 q 138 437 226 688 q 104 275 104 348 l 104 242 q 304 76 104 139 l 328 76 q 731 166 443 76 l 817 223 l 831 223 l 836 209 q 342 5 836 78 l 256 0 q 57 119 165 0 q 28 214 30 167 q 119 532 28 319 l 119 541 l 109 551 l 19 546 q 0 560 0 553 l 0 574 q 180 707 0 616 q 334 1082 218 707 l 334 1096 l 330 1096 l 239 1077 q 211 1124 218 1077 q 425 1205 211 1160 q 866 1352 790 1352 m 946 1577 l 957 1570 q 878 1468 957 1558 q 770 1365 797 1387 l 755 1365 q 740 1391 749 1365 q 848 1508 740 1421 q 946 1577 852 1550 z "},"":{"ha":1072,"x_min":0,"x_max":1042,"o":"m 866 1352 l 880 1352 q 1042 1257 1042 1334 l 1018 1196 l 1013 1196 q 989 1262 1006 1196 q 861 1295 954 1295 l 833 1295 q 429 1110 668 1253 q 313 764 429 1042 l 437 807 l 612 854 l 726 864 l 774 864 q 1035 836 1035 864 l 1035 826 q 679 783 1035 804 q 370 688 370 741 q 138 437 226 688 q 104 275 104 348 l 104 242 q 304 76 104 139 l 328 76 q 731 166 443 76 l 817 223 l 831 223 l 836 209 q 342 5 836 78 l 256 0 q 57 119 165 0 q 28 214 30 167 q 119 532 28 319 l 119 541 l 109 551 l 19 546 q 0 560 0 553 l 0 574 q 180 707 0 616 q 334 1082 218 707 l 334 1096 l 330 1096 l 239 1077 q 211 1124 218 1077 q 425 1205 211 1160 q 866 1352 790 1352 m 609 1555 q 636 1514 630 1555 l 633 1433 l 633 1402 q 677 1327 633 1375 q 640 1303 671 1314 q 582 1351 614 1303 l 568 1402 l 572 1443 l 568 1447 l 564 1447 q 486 1375 555 1447 l 466 1371 q 442 1392 451 1371 q 595 1552 496 1510 l 609 1555 z "},"":{"ha":1072,"x_min":0,"x_max":1042,"o":"m 866 1352 l 880 1352 q 1042 1257 1042 1334 l 1018 1196 l 1013 1196 q 989 1262 1006 1196 q 861 1295 954 1295 l 833 1295 q 429 1110 668 1253 q 313 764 429 1042 l 437 807 l 612 854 l 726 864 l 774 864 q 1035 836 1035 864 l 1035 826 q 679 783 1035 804 q 370 688 370 741 q 138 437 226 688 q 104 275 104 348 l 104 242 q 304 76 104 139 l 328 76 q 731 166 443 76 l 817 223 l 831 223 l 836 209 q 342 5 836 78 l 256 0 q 57 119 165 0 q 28 214 30 167 q 119 532 28 319 l 119 541 l 109 551 l 19 546 q 0 560 0 553 l 0 574 q 180 707 0 616 q 334 1082 218 707 l 334 1096 l 330 1096 l 239 1077 q 211 1124 218 1077 q 425 1205 211 1160 q 866 1352 790 1352 m 555 1516 q 602 1442 592 1516 q 546 1415 591 1415 q 493 1460 493 1415 l 490 1460 q 555 1516 490 1509 m 805 1501 q 852 1426 842 1501 q 797 1400 841 1400 q 743 1445 743 1400 l 741 1445 q 805 1501 741 1493 z "},"":{"ha":1039,"x_min":-126,"x_max":1074,"o":"m 1004 1311 q 1056 1273 1074 1311 q 686 1131 1039 1235 q 519 708 668 1027 q 382 167 382 257 l 396 157 l 406 157 q 743 271 473 157 l 895 300 q 956 276 956 290 q 709 191 913 249 l 382 62 q 344 -9 359 -9 l 330 -9 l 306 29 l 268 29 q -17 -109 164 29 q -98 -199 -62 -170 l -112 -199 q -126 -170 -126 -194 q 125 53 -126 -65 q 330 181 330 117 q 543 960 330 288 q 572 1078 572 1036 l 572 1102 l 567 1102 q 352 990 498 1076 q 130 860 205 905 l 125 860 q 87 903 87 860 q 472 1131 87 949 q 1004 1311 578 1189 m 490 1499 q 588 1430 585 1472 q 696 1313 696 1343 q 682 1287 688 1287 l 667 1287 q 559 1390 640 1309 q 479 1492 479 1480 l 490 1499 z "},"":{"ha":1039,"x_min":-126,"x_max":1074,"o":"m 1004 1311 q 1056 1273 1074 1311 q 686 1131 1039 1235 q 519 708 668 1027 q 382 167 382 257 l 396 157 l 406 157 q 743 271 473 157 l 895 300 q 956 276 956 290 q 709 191 913 249 l 382 62 q 344 -9 359 -9 l 330 -9 l 306 29 l 268 29 q -17 -109 164 29 q -98 -199 -62 -170 l -112 -199 q -126 -170 -126 -194 q 125 53 -126 -65 q 330 181 330 117 q 543 960 330 288 q 572 1078 572 1036 l 572 1102 l 567 1102 q 352 990 498 1076 q 130 860 205 905 l 125 860 q 87 903 87 860 q 472 1131 87 949 q 1004 1311 578 1189 m 686 1499 l 696 1492 q 617 1390 696 1480 q 509 1287 536 1309 l 494 1287 q 479 1313 488 1287 q 588 1430 479 1343 q 686 1499 591 1472 z "},"":{"ha":1039,"x_min":-126,"x_max":1074,"o":"m 1004 1311 q 1056 1273 1074 1311 q 686 1131 1039 1235 q 519 708 668 1027 q 382 167 382 257 l 396 157 l 406 157 q 743 271 473 157 l 895 300 q 956 276 956 290 q 709 191 913 249 l 382 62 q 344 -9 359 -9 l 330 -9 l 306 29 l 268 29 q -17 -109 164 29 q -98 -199 -62 -170 l -112 -199 q -126 -170 -126 -194 q 125 53 -126 -65 q 330 181 330 117 q 543 960 330 288 q 572 1078 572 1036 l 572 1102 l 567 1102 q 352 990 498 1076 q 130 860 205 905 l 125 860 q 87 903 87 860 q 472 1131 87 949 q 1004 1311 578 1189 m 589 1499 q 616 1459 610 1499 l 613 1377 l 613 1346 q 657 1272 613 1320 q 620 1248 651 1259 q 562 1295 594 1248 l 549 1346 l 552 1388 l 549 1391 l 545 1391 q 467 1319 535 1391 l 446 1316 q 422 1336 431 1316 q 576 1496 477 1454 l 589 1499 z "},"":{"ha":1039,"x_min":-126,"x_max":1074,"o":"m 1004 1311 q 1056 1273 1074 1311 q 686 1131 1039 1235 q 519 708 668 1027 q 382 167 382 257 l 396 157 l 406 157 q 743 271 473 157 l 895 300 q 956 276 956 290 q 709 191 913 249 l 382 62 q 344 -9 359 -9 l 330 -9 l 306 29 l 268 29 q -17 -109 164 29 q -98 -199 -62 -170 l -112 -199 q -126 -170 -126 -194 q 125 53 -126 -65 q 330 181 330 117 q 543 960 330 288 q 572 1078 572 1036 l 572 1102 l 567 1102 q 352 990 498 1076 q 130 860 205 905 l 125 860 q 87 903 87 860 q 472 1131 87 949 q 1004 1311 578 1189 m 376 1298 q 424 1223 414 1298 q 368 1196 412 1196 q 315 1242 315 1196 l 312 1242 q 376 1298 312 1291 m 688 1364 q 736 1289 726 1364 q 680 1263 724 1263 q 627 1308 627 1263 l 624 1308 q 688 1364 624 1356 z "},"":{"ha":1292,"x_min":-48,"x_max":1274,"o":"m 780 1316 q 905 1322 780 1316 q 1158 1223 1029 1328 q 1257 929 1257 1117 q 819 122 1274 441 q 472 -73 634 -14 q 230 -130 294 -130 l 187 -130 q 45 -68 102 -130 l 45 -49 q 211 13 95 13 l 225 8 l 225 -1 l 187 -44 l 187 -49 l 225 -49 q 690 84 450 -49 q 1162 644 1036 288 q 1196 939 1196 776 q 1068 1218 1196 1165 q 750 1258 941 1271 q 291 1062 559 1246 q -13 876 22 879 q -48 896 -48 872 l -48 905 q 270 1133 9 961 q 780 1316 530 1304 m 586 987 l 591 987 q 605 963 602 987 q 505 486 605 874 q 344 98 405 98 l 344 94 q 315 117 335 94 q 441 507 315 169 q 557 949 515 768 l 586 987 m 228 609 q 347 615 319 646 q 648 604 629 627 q 653 574 658 578 l 642 565 q 350 565 606 565 q 224 596 231 587 l 228 609 z "},"":{"ha":1084,"x_min":7,"x_max":1174,"o":"m 485 1285 q 507 1285 485 1285 q 532 1254 530 1286 q 498 760 502 890 l 507 551 q 592 101 539 163 q 651 82 623 80 q 881 464 747 90 q 1090 1166 961 638 l 1125 1233 q 1171 1200 1168 1236 q 1113 945 1174 1164 q 924 406 1051 726 q 757 68 842 197 q 629 -1 696 5 q 444 508 488 -12 l 441 541 q 447 970 428 692 l 446 1037 q 430 1059 441 1060 l 425 1059 q 205 450 400 962 q 68 69 99 71 l 64 68 q 9 102 31 66 q 135 434 7 116 q 271 750 167 537 q 433 1198 286 814 q 485 1285 441 1284 m 690 1514 q 775 1505 716 1541 l 891 1423 q 979 1440 951 1408 q 1055 1508 1044 1531 q 1010 1377 1041 1411 q 850 1388 949 1310 l 730 1455 l 673 1402 q 610 1381 644 1333 q 690 1514 679 1501 z "},"":{"ha":954,"x_min":35,"x_max":1016,"o":"m 764 1318 q 1016 1086 1016 1277 q 603 252 1016 766 q 228 0 384 0 l 218 0 q 47 204 47 0 l 47 209 q 66 545 35 362 q 280 1010 97 728 q 404 1176 303 1059 q 465 1223 421 1223 q 764 1318 567 1318 m 119 223 l 119 214 q 228 76 119 76 l 271 76 q 627 356 394 76 q 891 802 829 641 q 954 1053 954 964 q 779 1242 954 1185 l 707 1247 q 532 1176 575 1247 q 465 1105 522 1105 q 266 820 415 1105 q 128 370 128 537 q 119 223 119 344 m 340 1538 q 438 1469 435 1510 q 547 1352 547 1382 q 532 1326 538 1326 l 517 1326 q 409 1428 490 1348 q 330 1531 330 1518 l 340 1538 z "},"":{"ha":954,"x_min":35,"x_max":1077,"o":"m 764 1318 q 1016 1086 1016 1277 q 603 252 1016 766 q 228 0 384 0 l 218 0 q 47 204 47 0 l 47 209 q 66 545 35 362 q 280 1010 97 728 q 404 1176 303 1059 q 465 1223 421 1223 q 764 1318 567 1318 m 119 223 l 119 214 q 228 76 119 76 l 271 76 q 627 356 394 76 q 891 802 829 641 q 954 1053 954 964 q 779 1242 954 1185 l 707 1247 q 532 1176 575 1247 q 465 1105 522 1105 q 266 820 415 1105 q 128 370 128 537 q 119 223 119 344 m 1066 1568 l 1077 1560 q 998 1458 1077 1548 q 890 1356 917 1377 l 875 1356 q 860 1381 869 1356 q 968 1499 860 1412 q 1066 1568 972 1540 z "},"":{"ha":954,"x_min":35,"x_max":1016,"o":"m 764 1318 q 1016 1086 1016 1277 q 603 252 1016 766 q 228 0 384 0 l 218 0 q 47 204 47 0 l 47 209 q 66 545 35 362 q 280 1010 97 728 q 404 1176 303 1059 q 465 1223 421 1223 q 764 1318 567 1318 m 119 223 l 119 214 q 228 76 119 76 l 271 76 q 627 356 394 76 q 891 802 829 641 q 954 1053 954 964 q 779 1242 954 1185 l 707 1247 q 532 1176 575 1247 q 465 1105 522 1105 q 266 820 415 1105 q 128 370 128 537 q 119 223 119 344 m 931 1519 q 958 1478 952 1519 l 955 1397 l 955 1366 q 999 1291 955 1339 q 962 1267 993 1278 q 904 1315 936 1267 l 890 1366 l 894 1407 l 890 1411 l 886 1411 q 808 1339 877 1411 l 788 1335 q 764 1356 773 1335 q 918 1516 819 1474 l 931 1519 z "},"":{"ha":954,"x_min":35,"x_max":1055,"o":"m 764 1318 q 1016 1086 1016 1277 q 603 252 1016 766 q 228 0 384 0 l 218 0 q 47 204 47 0 l 47 209 q 66 545 35 362 q 280 1010 97 728 q 404 1176 303 1059 q 465 1223 421 1223 q 764 1318 567 1318 m 119 223 l 119 214 q 228 76 119 76 l 271 76 q 627 356 394 76 q 891 802 829 641 q 954 1053 954 964 q 779 1242 954 1185 l 707 1247 q 532 1176 575 1247 q 465 1105 522 1105 q 266 820 415 1105 q 128 370 128 537 q 119 223 119 344 m 690 1514 q 775 1505 716 1541 l 891 1423 q 979 1440 951 1408 q 1055 1508 1044 1531 q 1010 1377 1041 1411 q 850 1388 949 1310 l 730 1455 l 673 1402 q 610 1381 644 1333 q 690 1514 679 1501 z "},"":{"ha":954,"x_min":35,"x_max":1025,"o":"m 764 1318 q 1016 1086 1016 1277 q 603 252 1016 766 q 228 0 384 0 l 218 0 q 47 204 47 0 l 47 209 q 66 545 35 362 q 280 1010 97 728 q 404 1176 303 1059 q 465 1223 421 1223 q 764 1318 567 1318 m 119 223 l 119 214 q 228 76 119 76 l 271 76 q 627 356 394 76 q 891 802 829 641 q 954 1053 954 964 q 779 1242 954 1185 l 707 1247 q 532 1176 575 1247 q 465 1105 522 1105 q 266 820 415 1105 q 128 370 128 537 q 119 223 119 344 m 728 1480 q 775 1406 765 1480 q 719 1379 764 1379 q 666 1424 666 1379 l 663 1424 q 728 1480 663 1473 m 978 1466 q 1025 1390 1015 1466 q 970 1364 1014 1364 q 916 1409 916 1364 l 913 1409 q 978 1466 913 1457 z "},"":{"ha":680,"x_min":36,"x_max":596,"o":"m 178 688 q 340 522 213 688 l 345 522 q 563 617 541 617 l 577 617 q 591 598 591 617 l 596 598 q 525 522 596 557 q 401 441 435 479 q 553 233 553 251 l 553 223 q 525 166 553 189 l 515 166 q 363 370 488 166 l 330 408 q 69 214 111 214 l 64 214 q 36 247 56 214 q 121 328 36 290 l 278 460 l 278 470 q 150 665 150 632 q 178 688 159 682 z "},"":{"ha":954,"x_min":35,"x_max":1016,"o":"m 764 1318 q 1016 1086 1016 1277 q 603 252 1016 766 q 228 0 384 0 l 218 0 q 47 204 47 0 l 47 209 q 66 545 35 362 q 280 1010 97 728 q 404 1176 303 1059 q 465 1223 421 1223 q 764 1318 567 1318 m 119 223 l 119 214 q 228 76 119 76 l 271 76 q 627 356 394 76 q 891 802 829 641 q 954 1053 954 964 q 779 1242 954 1185 l 707 1247 q 532 1176 575 1247 q 465 1105 522 1105 q 266 820 415 1105 q 128 370 128 537 q 119 223 119 344 m 880 1451 q 905 1378 914 1444 q 591 768 894 1318 q 221 -115 270 142 q 172 -193 189 -196 l 163 -191 q 148 -92 134 -168 l 152 -73 q 791 1337 185 104 q 880 1451 823 1461 z "},"":{"ha":1097,"x_min":0,"x_max":1192,"o":"m 1092 1267 q 1192 1116 1181 1241 l 1192 1106 q 736 370 1192 878 q 218 9 427 58 l 171 0 q 9 128 73 0 l 0 195 l 0 228 q 233 983 0 424 q 328 1249 310 1240 l 356 1253 q 394 1230 394 1253 q 261 907 389 1158 q 66 242 66 502 l 66 233 q 147 95 66 95 l 176 90 q 370 142 300 90 q 802 503 509 190 q 1135 1092 1135 906 l 1135 1101 q 1068 1244 1135 1128 q 1092 1267 1068 1257 m 281 1558 q 379 1489 376 1531 q 488 1372 488 1402 q 473 1346 479 1346 l 458 1346 q 350 1449 431 1368 q 271 1551 271 1539 l 281 1558 z "},"":{"ha":1097,"x_min":0,"x_max":1292,"o":"m 1092 1267 q 1192 1116 1181 1241 l 1192 1106 q 736 370 1192 878 q 218 9 427 58 l 171 0 q 9 128 73 0 l 0 195 l 0 228 q 233 983 0 424 q 328 1249 310 1240 l 356 1253 q 394 1230 394 1253 q 261 907 389 1158 q 66 242 66 502 l 66 233 q 147 95 66 95 l 176 90 q 370 142 300 90 q 802 503 509 190 q 1135 1092 1135 906 l 1135 1101 q 1068 1244 1135 1128 q 1092 1267 1068 1257 m 1281 1545 l 1292 1537 q 1213 1435 1292 1525 q 1105 1333 1132 1354 l 1090 1333 q 1075 1358 1084 1333 q 1183 1476 1075 1389 q 1281 1545 1187 1517 z "},"":{"ha":1097,"x_min":0,"x_max":1192,"o":"m 1092 1267 q 1192 1116 1181 1241 l 1192 1106 q 736 370 1192 878 q 218 9 427 58 l 171 0 q 9 128 73 0 l 0 195 l 0 228 q 233 983 0 424 q 328 1249 310 1240 l 356 1253 q 394 1230 394 1253 q 261 907 389 1158 q 66 242 66 502 l 66 233 q 147 95 66 95 l 176 90 q 370 142 300 90 q 802 503 509 190 q 1135 1092 1135 906 l 1135 1101 q 1068 1244 1135 1128 q 1092 1267 1068 1257 m 931 1519 q 958 1478 952 1519 l 955 1397 l 955 1366 q 999 1291 955 1339 q 962 1267 993 1278 q 904 1315 936 1267 l 890 1366 l 894 1407 l 890 1411 l 886 1411 q 808 1339 877 1411 l 788 1335 q 764 1356 773 1335 q 918 1516 819 1474 l 931 1519 z "},"":{"ha":1097,"x_min":0,"x_max":1192,"o":"m 1092 1267 q 1192 1116 1181 1241 l 1192 1106 q 736 370 1192 878 q 218 9 427 58 l 171 0 q 9 128 73 0 l 0 195 l 0 228 q 233 983 0 424 q 328 1249 310 1240 l 356 1253 q 394 1230 394 1253 q 261 907 389 1158 q 66 242 66 502 l 66 233 q 147 95 66 95 l 176 90 q 370 142 300 90 q 802 503 509 190 q 1135 1092 1135 906 l 1135 1101 q 1068 1244 1135 1128 q 1092 1267 1068 1257 m 728 1480 q 775 1406 765 1480 q 719 1379 764 1379 q 666 1424 666 1379 l 663 1424 q 728 1480 663 1473 m 978 1466 q 1025 1390 1015 1466 q 970 1364 1014 1364 q 916 1409 916 1364 l 913 1409 q 978 1466 913 1457 z "},"":{"ha":553,"x_min":-18,"x_max":701,"o":"m 208 1318 q 235 1293 233 1312 q 155 836 146 915 q 204 653 151 715 q 299 564 256 591 q 391 736 321 567 q 615 1224 450 826 q 662 1272 645 1270 q 698 1252 694 1263 l 699 1242 q 617 1072 701 1225 q 565 980 618 1059 l 433 703 q 216 274 363 514 q 9 -64 102 32 l 4 -64 l -10 -61 l -12 -52 q 180 303 -18 7 q 284 481 209 365 l 283 491 q 154 582 184 527 q 92 757 105 635 l 90 785 q 208 1318 115 1308 m 686 1499 l 696 1492 q 617 1390 696 1480 q 509 1287 536 1309 l 494 1287 q 479 1313 488 1287 q 588 1430 479 1343 q 686 1499 591 1472 z "},"":{"ha":788,"x_min":0,"x_max":748,"o":"m 285 1101 q 323 1035 320 1101 q 176 631 323 975 q 76 85 76 347 q 43 0 60 0 l 33 0 q 0 95 0 18 l 0 114 q 218 973 0 294 q 285 1101 227 1101 m 211 903 q 230 922 216 918 q 528 686 308 898 q 748 381 748 473 q 620 281 748 296 q 94 365 202 223 l 94 374 q 123 393 94 383 q 572 357 255 335 l 634 357 q 667 376 659 357 l 667 400 q 446 685 667 522 q 225 860 225 848 l 211 903 z "},"":{"ha":888,"x_min":16,"x_max":831,"o":"m 301 1232 q 339 1165 336 1232 q 192 762 339 1105 q 92 216 92 477 q 59 130 76 130 l 50 130 q 16 225 16 148 l 16 244 q 235 1103 16 425 q 301 1232 243 1232 m 214 75 q 166 108 166 87 l 185 160 q 603 203 218 170 l 655 203 l 679 208 l 679 222 l 451 440 q 299 602 299 568 q 332 644 313 644 q 503 592 455 592 l 551 592 q 760 796 760 623 l 760 853 q 498 1147 690 1147 l 479 1147 q 247 1057 369 1147 q 279 1048 312 1048 l 279 1053 q 231 1090 231 1057 l 236 1109 q 465 1223 291 1223 q 622 1190 545 1223 q 831 787 831 1019 q 745 578 831 655 q 522 497 624 497 l 522 483 q 821 174 810 210 l 821 160 l 817 155 l 798 151 q 214 75 465 122 z "},"":{"ha":760,"x_min":2,"x_max":840,"o":"m 344 699 q 510 614 455 699 q 586 557 563 557 q 657 595 608 595 q 686 571 666 595 q 534 244 686 554 q 496 59 496 144 q 572 -12 496 8 q 696 28 612 -16 q 830 111 781 73 l 840 102 l 840 97 q 738 -17 840 54 q 567 -88 636 -88 q 425 35 473 -88 q 396 144 407 144 l 391 144 q 116 7 254 28 q 2 125 14 7 l 2 135 q 235 637 20 350 q 344 699 292 699 m 78 154 q 102 78 81 78 l 130 78 q 391 225 241 88 q 538 481 490 345 q 387 623 426 623 q 116 315 281 623 q 78 154 78 190 m 184 1027 q 281 958 279 1000 q 390 841 390 871 q 375 815 381 815 l 361 815 q 252 918 333 837 q 173 1020 173 1008 l 184 1027 z "},"":{"ha":760,"x_min":2,"x_max":840,"o":"m 344 699 q 510 614 455 699 q 586 557 563 557 q 657 595 608 595 q 686 571 666 595 q 534 244 686 554 q 496 59 496 144 q 572 -12 496 8 q 696 28 612 -16 q 830 111 781 73 l 840 102 l 840 97 q 738 -17 840 54 q 567 -88 636 -88 q 425 35 473 -88 q 396 144 407 144 l 391 144 q 116 7 254 28 q 2 125 14 7 l 2 135 q 235 637 20 350 q 344 699 292 699 m 78 154 q 102 78 81 78 l 130 78 q 391 225 241 88 q 538 481 490 345 q 387 623 426 623 q 116 315 281 623 q 78 154 78 190 m 783 1057 l 793 1049 q 714 947 793 1037 q 606 844 633 866 l 591 844 q 576 870 585 844 q 685 987 576 901 q 783 1057 688 1029 z "},"":{"ha":760,"x_min":2,"x_max":840,"o":"m 344 699 q 510 614 455 699 q 586 557 563 557 q 657 595 608 595 q 686 571 666 595 q 534 244 686 554 q 496 59 496 144 q 572 -12 496 8 q 696 28 612 -16 q 830 111 781 73 l 840 102 l 840 97 q 738 -17 840 54 q 567 -88 636 -88 q 425 35 473 -88 q 396 144 407 144 l 391 144 q 116 7 254 28 q 2 125 14 7 l 2 135 q 235 637 20 350 q 344 699 292 699 m 78 154 q 102 78 81 78 l 130 78 q 391 225 241 88 q 538 481 490 345 q 387 623 426 623 q 116 315 281 623 q 78 154 78 190 m 544 1031 q 571 990 565 1031 l 568 909 l 568 878 q 612 803 568 851 q 574 779 606 790 q 517 827 549 779 l 503 878 l 507 919 l 503 922 l 499 922 q 421 850 490 922 l 401 847 q 377 867 386 847 q 530 1027 431 985 l 544 1031 z "},"":{"ha":760,"x_min":2,"x_max":840,"o":"m 344 699 q 510 614 455 699 q 586 557 563 557 q 657 595 608 595 q 686 571 666 595 q 534 244 686 554 q 496 59 496 144 q 572 -12 496 8 q 696 28 612 -16 q 830 111 781 73 l 840 102 l 840 97 q 738 -17 840 54 q 567 -88 636 -88 q 425 35 473 -88 q 396 144 407 144 l 391 144 q 116 7 254 28 q 2 125 14 7 l 2 135 q 235 637 20 350 q 344 699 292 699 m 78 154 q 102 78 81 78 l 130 78 q 391 225 241 88 q 538 481 490 345 q 387 623 426 623 q 116 315 281 623 q 78 154 78 190 m 293 924 q 378 916 319 952 l 494 833 q 582 850 553 819 q 658 918 646 942 q 613 788 644 822 q 452 798 552 721 l 332 865 l 275 813 q 213 792 247 743 q 293 924 281 911 z "},"":{"ha":760,"x_min":2,"x_max":840,"o":"m 344 699 q 510 614 455 699 q 586 557 563 557 q 657 595 608 595 q 686 571 666 595 q 534 244 686 554 q 496 59 496 144 q 572 -12 496 8 q 696 28 612 -16 q 830 111 781 73 l 840 102 l 840 97 q 738 -17 840 54 q 567 -88 636 -88 q 425 35 473 -88 q 396 144 407 144 l 391 144 q 116 7 254 28 q 2 125 14 7 l 2 135 q 235 637 20 350 q 344 699 292 699 m 78 154 q 102 78 81 78 l 130 78 q 391 225 241 88 q 538 481 490 345 q 387 623 426 623 q 116 315 281 623 q 78 154 78 190 m 376 1005 q 424 930 414 1005 q 368 903 412 903 q 315 949 315 903 l 312 949 q 376 1005 312 998 m 627 990 q 674 915 664 990 q 618 888 663 888 q 565 934 565 888 l 562 934 q 627 990 562 982 z "},"":{"ha":760,"x_min":2,"x_max":840,"o":"m 344 699 q 510 614 455 699 q 586 557 563 557 q 657 595 608 595 q 686 571 666 595 q 534 244 686 554 q 496 59 496 144 q 572 -12 496 8 q 696 28 612 -16 q 830 111 781 73 l 840 102 l 840 97 q 738 -17 840 54 q 567 -88 636 -88 q 425 35 473 -88 q 396 144 407 144 l 391 144 q 116 7 254 28 q 2 125 14 7 l 2 135 q 235 637 20 350 q 344 699 292 699 m 78 154 q 102 78 81 78 l 130 78 q 391 225 241 88 q 538 481 490 345 q 387 623 426 623 q 116 315 281 623 q 78 154 78 190 m 571 989 q 631 932 608 989 l 633 913 q 528 785 633 844 l 500 778 q 446 856 458 778 q 481 937 446 863 q 569 989 481 970 l 571 989 m 488 842 l 488 835 l 503 821 l 514 821 q 597 894 558 821 l 602 922 q 569 951 602 947 q 533 903 546 951 q 488 842 488 857 z "},"":{"ha":937,"x_min":2,"x_max":991,"o":"m 344 699 q 510 614 455 699 q 586 557 563 557 q 657 595 608 595 q 686 571 666 595 q 534 244 686 554 q 396 144 407 144 l 391 144 q 116 7 254 28 q 2 125 14 7 l 2 135 q 235 637 20 350 q 344 699 292 699 m 78 154 q 102 78 81 78 l 130 78 q 391 225 241 88 q 538 481 490 345 q 387 623 426 623 q 116 315 281 623 q 78 154 78 190 m 800 621 q 852 569 838 621 q 790 416 852 515 q 631 249 728 318 q 534 123 534 179 l 534 104 q 624 23 534 45 l 648 18 l 705 18 q 967 122 770 18 l 981 136 l 991 127 l 991 89 q 922 15 991 55 q 662 -62 854 -24 l 657 -62 q 439 90 439 -37 l 425 90 q 131 0 325 42 l 252 47 q 318 109 252 79 q 500 298 473 186 q 666 533 572 444 q 800 621 760 621 m 600 360 l 600 346 l 610 346 q 776 526 658 346 l 766 526 q 600 360 686 469 z "},"":{"ha":589,"x_min":0,"x_max":665,"o":"m 309 707 q 446 589 402 707 l 446 574 q 389 508 439 508 l 380 508 q 351 522 363 508 l 356 555 l 356 574 q 323 593 349 593 l 294 593 q 95 375 227 593 q 81 328 81 351 l 81 294 q 142 109 81 139 q 252 66 205 70 l 266 66 q 500 184 393 86 q 655 285 608 281 l 665 275 q 228 0 400 0 q 0 228 0 43 q 161 617 0 409 q 309 707 247 707 m 296 50 q 258 -60 307 50 q 336 -250 363 -137 q 214 -321 293 -321 q 93 -281 127 -321 q 167 -250 58 -240 l 200 -250 l 238 -241 q 279 -145 279 -238 q 216 -91 286 -155 q 235 45 146 -26 q 254 64 238 60 l 296 50 z "},"":{"ha":635,"x_min":-16,"x_max":717,"o":"m 526 684 q 578 631 564 684 q 516 479 578 577 q 357 311 454 380 q 260 185 260 241 l 260 166 q 350 85 260 108 l 374 81 l 431 81 q 693 184 496 81 l 707 199 l 717 189 l 717 151 q 648 78 717 117 q 388 0 580 38 l 383 0 q 165 152 165 25 l 151 152 q 3 52 58 62 l -16 66 q 51 128 -16 99 q 227 361 199 249 q 392 595 298 507 q 526 684 486 684 m 326 422 l 326 408 l 336 408 q 502 589 384 408 l 492 589 q 326 422 412 532 m 216 1005 q 314 936 311 977 q 422 819 422 849 q 408 793 414 793 l 393 793 q 285 895 366 814 q 205 998 205 985 l 216 1005 z "},"":{"ha":635,"x_min":-16,"x_max":790,"o":"m 526 684 q 578 631 564 684 q 516 479 578 577 q 357 311 454 380 q 260 185 260 241 l 260 166 q 350 85 260 108 l 374 81 l 431 81 q 693 184 496 81 l 707 199 l 717 189 l 717 151 q 648 78 717 117 q 388 0 580 38 l 383 0 q 165 152 165 25 l 151 152 q 3 52 58 62 l -16 66 q 51 128 -16 99 q 227 361 199 249 q 392 595 298 507 q 526 684 486 684 m 326 422 l 326 408 l 336 408 q 502 589 384 408 l 492 589 q 326 422 412 532 m 779 1005 l 790 998 q 711 895 790 985 q 603 793 630 814 l 588 793 q 573 819 582 793 q 682 936 573 849 q 779 1005 685 977 z "},"":{"ha":635,"x_min":-16,"x_max":717,"o":"m 526 684 q 578 631 564 684 q 516 479 578 577 q 357 311 454 380 q 260 185 260 241 l 260 166 q 350 85 260 108 l 374 81 l 431 81 q 693 184 496 81 l 707 199 l 717 189 l 717 151 q 648 78 717 117 q 388 0 580 38 l 383 0 q 165 152 165 25 l 151 152 q 3 52 58 62 l -16 66 q 51 128 -16 99 q 227 361 199 249 q 392 595 298 507 q 526 684 486 684 m 326 422 l 326 408 l 336 408 q 502 589 384 408 l 492 589 q 326 422 412 532 m 635 998 q 662 958 656 998 l 659 876 l 659 845 q 703 770 659 819 q 665 747 696 758 q 608 794 640 747 l 594 845 l 597 886 l 594 890 l 590 890 q 512 818 581 890 l 492 814 q 468 835 477 814 q 621 995 522 953 l 635 998 z "},"":{"ha":635,"x_min":-16,"x_max":717,"o":"m 526 684 q 578 631 564 684 q 516 479 578 577 q 357 311 454 380 q 260 185 260 241 l 260 166 q 350 85 260 108 l 374 81 l 431 81 q 693 184 496 81 l 707 199 l 717 189 l 717 151 q 648 78 717 117 q 388 0 580 38 l 383 0 q 165 152 165 25 l 151 152 q 3 52 58 62 l -16 66 q 51 128 -16 99 q 227 361 199 249 q 392 595 298 507 q 526 684 486 684 m 326 422 l 326 408 l 336 408 q 502 589 384 408 l 492 589 q 326 422 412 532 m 406 833 q 453 758 443 833 q 397 731 441 731 q 344 777 344 731 l 341 777 q 406 833 341 825 m 656 818 q 703 743 693 818 q 648 716 692 716 q 594 762 594 716 l 591 762 q 656 818 591 810 z "},"":{"ha":583,"x_min":-51,"x_max":640,"o":"m 384 712 q 412 669 406 712 q 332 432 412 612 q 303 304 303 364 q 408 81 336 81 l 427 76 l 446 76 q 616 176 517 76 l 626 176 l 640 161 l 640 147 q 417 0 515 0 q 237 204 300 0 l 237 237 q 256 422 237 309 l 251 422 q 58 109 207 376 q -3 75 25 75 q 24 212 -51 91 q 332 650 145 393 q 384 712 351 696 m 184 1027 q 281 958 279 1000 q 390 841 390 871 q 375 815 381 815 l 361 815 q 252 918 333 837 q 173 1020 173 1008 l 184 1027 z "},"":{"ha":583,"x_min":-51,"x_max":663,"o":"m 384 712 q 412 669 406 712 q 332 432 412 612 q 303 304 303 364 q 408 81 336 81 l 427 76 l 446 76 q 616 176 517 76 l 626 176 l 640 161 l 640 147 q 417 0 515 0 q 237 204 300 0 l 237 237 q 256 422 237 309 l 251 422 q 58 109 207 376 q -3 75 25 75 q 24 212 -51 91 q 332 650 145 393 q 384 712 351 696 m 652 1060 l 663 1053 q 584 950 663 1040 q 476 848 503 869 l 461 848 q 446 873 455 848 q 555 991 446 904 q 652 1060 558 1032 z "},"":{"ha":583,"x_min":-51,"x_max":640,"o":"m 384 712 q 412 669 406 712 q 332 432 412 612 q 303 304 303 364 q 408 81 336 81 l 427 76 l 446 76 q 616 176 517 76 l 626 176 l 640 161 l 640 147 q 417 0 515 0 q 237 204 300 0 l 237 237 q 256 422 237 309 l 251 422 q 58 109 207 376 q -3 75 25 75 q 24 212 -51 91 q 332 650 145 393 q 384 712 351 696 m 498 998 q 526 958 519 998 l 522 876 l 522 845 q 566 770 522 819 q 529 747 560 758 q 471 794 503 747 l 458 845 l 461 886 l 458 890 l 454 890 q 376 818 444 890 l 355 814 q 332 835 340 814 q 485 995 386 953 l 498 998 z "},"":{"ha":583,"x_min":-51,"x_max":640,"o":"m 384 712 q 412 669 406 712 q 332 432 412 612 q 303 304 303 364 q 408 81 336 81 l 427 76 l 446 76 q 616 176 517 76 l 626 176 l 640 161 l 640 147 q 417 0 515 0 q 237 204 300 0 l 237 237 q 256 422 237 309 l 251 422 q 58 109 207 376 q -3 75 25 75 q 24 212 -51 91 q 332 650 145 393 q 384 712 351 696 m 252 947 q 300 872 290 947 q 243 845 288 845 q 191 890 191 845 l 188 890 q 252 947 188 939 m 503 932 q 550 857 540 932 q 494 830 538 830 q 441 876 441 830 l 438 876 q 503 932 438 924 z "},"":{"ha":772,"x_min":0,"x_max":0,"o":""},"":{"ha":751,"x_min":-3,"x_max":593,"o":"m 228 983 q 313 975 254 1011 l 429 892 q 517 909 488 878 q 593 977 581 1001 q 548 847 578 881 q 387 857 487 780 l 267 924 l 210 872 q 148 851 182 802 q 228 983 216 970 m 173 688 q 249 422 249 688 l 249 403 l 258 393 l 268 393 l 320 479 q 524 659 439 631 q 586 574 586 623 l 489 29 l 489 24 q 513 -109 513 -69 q 494 -137 513 -132 q 413 1 413 -73 l 500 474 l 505 541 l 500 564 l 486 564 q 296 317 387 475 q 157 53 199 134 l 85 5 q 62 39 62 12 q 128 200 62 60 q 182 507 182 413 q 130 578 173 578 l 121 578 q 40 541 92 578 l 31 541 q -3 597 14 541 q 173 688 -3 630 z "},"":{"ha":612,"x_min":8,"x_max":682,"o":"m 61 271 q 87 321 61 271 q 326 608 114 372 q 535 698 441 684 q 682 603 682 670 q 312 100 682 469 q 84 -9 170 -9 q 8 114 8 8 l 8 133 q 61 271 8 170 m 160 104 q 174 85 168 85 q 564 460 269 85 q 606 565 606 533 l 606 579 q 568 603 594 603 l 535 603 q 227 351 407 603 q 160 104 160 231 m 94 185 l 84 138 l 84 100 q 98 71 87 71 l 108 71 l 113 95 l 113 128 l 108 185 l 94 185 m 184 1027 q 281 958 279 1000 q 390 841 390 871 q 375 815 381 815 l 361 815 q 252 918 333 837 q 173 1020 173 1008 l 184 1027 z "},"":{"ha":612,"x_min":8,"x_max":783,"o":"m 61 271 q 87 321 61 271 q 326 608 114 372 q 535 698 441 684 q 682 603 682 670 q 312 100 682 469 q 84 -9 170 -9 q 8 114 8 8 l 8 133 q 61 271 8 170 m 160 104 q 174 85 168 85 q 564 460 269 85 q 606 565 606 533 l 606 579 q 568 603 594 603 l 535 603 q 227 351 407 603 q 160 104 160 231 m 94 185 l 84 138 l 84 100 q 98 71 87 71 l 108 71 l 113 95 l 113 128 l 108 185 l 94 185 m 772 1021 l 783 1013 q 704 911 783 1001 q 596 808 623 830 l 581 808 q 566 834 575 808 q 675 951 566 865 q 772 1021 678 993 z "},"":{"ha":612,"x_min":8,"x_max":800,"o":"m 61 271 q 87 321 61 271 q 326 608 114 372 q 535 698 441 684 q 682 603 682 670 q 312 100 682 469 q 84 -9 170 -9 q 8 114 8 8 l 8 133 q 61 271 8 170 m 160 104 q 174 85 168 85 q 564 460 269 85 q 606 565 606 533 l 606 579 q 568 603 594 603 l 535 603 q 227 351 407 603 q 160 104 160 231 m 94 185 l 84 138 l 84 100 q 98 71 87 71 l 108 71 l 113 95 l 113 128 l 108 185 l 94 185 m 732 975 q 760 935 753 975 l 756 853 l 756 822 q 800 747 756 795 q 763 724 794 734 q 705 771 737 724 l 692 822 l 695 863 l 692 867 l 688 867 q 610 795 678 867 l 589 791 q 566 812 574 791 q 719 972 620 930 l 732 975 z "},"":{"ha":612,"x_min":8,"x_max":798,"o":"m 61 271 q 87 321 61 271 q 326 608 114 372 q 535 698 441 684 q 682 603 682 670 q 312 100 682 469 q 84 -9 170 -9 q 8 114 8 8 l 8 133 q 61 271 8 170 m 160 104 q 174 85 168 85 q 564 460 269 85 q 606 565 606 533 l 606 579 q 568 603 594 603 l 535 603 q 227 351 407 603 q 160 104 160 231 m 94 185 l 84 138 l 84 100 q 98 71 87 71 l 108 71 l 113 95 l 113 128 l 108 185 l 94 185 m 433 954 q 518 945 459 981 l 634 863 q 722 880 694 848 q 798 947 787 971 q 753 817 784 851 q 593 827 692 750 l 473 895 l 416 842 q 353 821 387 772 q 433 954 422 941 z "},"":{"ha":612,"x_min":8,"x_max":726,"o":"m 61 271 q 87 321 61 271 q 326 608 114 372 q 535 698 441 684 q 682 603 682 670 q 312 100 682 469 q 84 -9 170 -9 q 8 114 8 8 l 8 133 q 61 271 8 170 m 160 104 q 174 85 168 85 q 564 460 269 85 q 606 565 606 533 l 606 579 q 568 603 594 603 l 535 603 q 227 351 407 603 q 160 104 160 231 m 94 185 l 84 138 l 84 100 q 98 71 87 71 l 108 71 l 113 95 l 113 128 l 108 185 l 94 185 m 429 898 q 476 823 466 898 q 420 796 465 796 q 367 842 367 796 l 364 842 q 429 898 364 890 m 679 883 q 726 808 716 883 q 671 781 715 781 q 617 827 617 781 l 614 827 q 679 883 614 875 z "},"":{"ha":1029,"x_min":0,"x_max":983,"o":"m 565 878 l 570 878 q 641 783 629 878 q 603 722 641 722 q 508 821 508 770 q 565 878 528 878 m 71 532 q 665 451 334 532 l 774 446 l 793 446 l 968 460 l 983 456 l 983 441 q 935 356 963 356 q 275 432 633 385 q 5 475 5 432 l 0 508 q 71 532 0 522 m 508 161 q 555 85 534 161 q 460 0 500 0 q 389 81 389 0 q 451 147 389 147 l 508 161 z "},"":{"ha":612,"x_min":8,"x_max":682,"o":"m 61 271 q 87 321 61 271 q 326 608 114 372 q 535 698 441 684 q 682 603 682 670 q 312 100 682 469 q 84 -9 170 -9 q 8 114 8 8 l 8 133 q 61 271 8 170 m 160 104 q 174 85 168 85 q 564 460 269 85 q 606 565 606 533 l 606 579 q 568 603 594 603 l 535 603 q 227 351 407 603 q 160 104 160 231 m 94 185 l 84 138 l 84 100 q 98 71 87 71 l 108 71 l 113 95 l 113 128 l 108 185 l 94 185 m 632 901 q 656 828 666 894 q 359 367 646 768 q 159 -151 208 106 q 110 -229 127 -232 l 100 -227 q 85 -127 71 -203 l 90 -109 q 543 787 123 68 q 632 901 574 911 z "},"":{"ha":987,"x_min":0,"x_max":1078,"o":"m 842 696 q 861 677 858 692 q 712 422 838 599 q 660 214 660 331 q 741 85 660 121 l 779 76 l 812 76 q 969 119 920 86 l 1074 200 l 1078 195 l 1078 148 q 965 56 1078 106 q 764 5 851 5 q 603 109 685 5 q 570 342 570 160 l 555 342 q 100 0 192 0 q 0 128 16 0 q 220 634 78 526 l 229 634 q 248 606 239 634 q 95 247 248 577 l 76 176 l 76 114 q 95 81 76 88 l 119 81 q 726 565 241 81 q 800 682 788 682 l 842 696 m 184 1027 q 281 958 279 1000 q 390 841 390 871 q 375 815 381 815 l 361 815 q 252 918 333 837 q 173 1020 173 1008 l 184 1027 z "},"":{"ha":987,"x_min":0,"x_max":1078,"o":"m 842 696 q 861 677 858 692 q 712 422 838 599 q 660 214 660 331 q 741 85 660 121 l 779 76 l 812 76 q 969 119 920 86 l 1074 200 l 1078 195 l 1078 148 q 965 56 1078 106 q 764 5 851 5 q 603 109 685 5 q 570 342 570 160 l 555 342 q 100 0 192 0 q 0 128 16 0 q 220 634 78 526 l 229 634 q 248 606 239 634 q 95 247 248 577 l 76 176 l 76 114 q 95 81 76 88 l 119 81 q 726 565 241 81 q 800 682 788 682 l 842 696 m 920 988 l 930 981 q 851 878 930 968 q 743 776 770 798 l 728 776 q 713 802 722 776 q 822 919 713 832 q 920 988 825 960 z "},"":{"ha":987,"x_min":0,"x_max":1078,"o":"m 842 696 q 861 677 858 692 q 712 422 838 599 q 660 214 660 331 q 741 85 660 121 l 779 76 l 812 76 q 969 119 920 86 l 1074 200 l 1078 195 l 1078 148 q 965 56 1078 106 q 764 5 851 5 q 603 109 685 5 q 570 342 570 160 l 555 342 q 100 0 192 0 q 0 128 16 0 q 220 634 78 526 l 229 634 q 248 606 239 634 q 95 247 248 577 l 76 176 l 76 114 q 95 81 76 88 l 119 81 q 726 565 241 81 q 800 682 788 682 l 842 696 m 618 1083 q 646 1042 640 1083 l 642 961 l 642 930 q 686 855 642 903 q 649 831 680 842 q 591 879 623 831 l 578 930 l 581 971 l 578 975 l 574 975 q 496 903 564 975 l 475 899 q 452 920 460 899 q 605 1080 506 1038 l 618 1083 z "},"":{"ha":987,"x_min":0,"x_max":1078,"o":"m 842 696 q 861 677 858 692 q 712 422 838 599 q 660 214 660 331 q 741 85 660 121 l 779 76 l 812 76 q 969 119 920 86 l 1074 200 l 1078 195 l 1078 148 q 965 56 1078 106 q 764 5 851 5 q 603 109 685 5 q 570 342 570 160 l 555 342 q 100 0 192 0 q 0 128 16 0 q 220 634 78 526 l 229 634 q 248 606 239 634 q 95 247 248 577 l 76 176 l 76 114 q 95 81 76 88 l 119 81 q 726 565 241 81 q 800 682 788 682 l 842 696 m 481 875 q 528 800 518 875 q 472 773 517 773 q 419 819 419 773 l 416 819 q 481 875 416 867 m 731 860 q 779 785 768 860 q 723 758 767 758 q 669 804 669 758 l 667 804 q 731 860 667 852 z "},"":{"ha":676,"x_min":-66,"x_max":765,"o":"m 576 622 l 581 622 l 585 598 l 570 54 l 575 54 l 755 201 l 765 191 l 765 144 q 594 -3 765 112 q 589 -79 589 4 q 513 -734 589 -654 q 224 -1124 460 -898 q 15 -1228 75 -1228 q -61 -1152 -22 -1228 l -66 -1133 q 100 -677 -66 -989 q 181 -530 121 -621 q 233 -445 203 -463 q 509 -56 322 -260 l 513 -18 q 500 374 514 404 q 119 11 193 11 q 30 86 50 11 q 43 248 9 161 q 202 549 132 549 l 212 549 q 231 502 231 545 q 138 248 231 469 q 119 163 119 191 l 119 139 q 143 101 119 113 l 153 101 q 452 456 237 123 q 576 622 530 622 m 24 -1133 l 39 -1147 l 58 -1147 q 214 -1043 85 -1147 q 404 -839 277 -1019 q 528 -364 528 -684 l 528 -245 q 509 -132 528 -132 l 314 -393 q 24 -1057 24 -882 l 24 -1133 m 707 1037 l 718 1029 q 639 927 718 1017 q 531 825 558 846 l 516 825 q 501 850 510 825 q 610 968 501 881 q 707 1037 613 1009 z "},"":{"ha":664,"x_min":16,"x_max":618,"o":"m 301 802 q 339 735 336 802 q 192 332 339 675 q 92 -214 92 47 q 59 -300 76 -300 l 50 -300 q 16 -205 16 -282 l 16 -186 q 235 673 16 -5 q 301 802 243 802 m 227 603 q 246 622 232 618 q 471 415 324 598 q 618 140 618 232 q 418 -11 618 55 q 111 65 218 -77 l 111 75 q 139 94 111 83 q 400 76 271 35 q 537 135 529 116 l 537 159 q 389 414 537 280 q 241 560 241 549 l 227 603 z "},"":{"ha":676,"x_min":-66,"x_max":765,"o":"m 576 622 l 581 622 l 585 598 l 570 54 l 575 54 l 755 201 l 765 191 l 765 144 q 594 -3 765 112 q 589 -79 589 4 q 513 -734 589 -654 q 224 -1124 460 -898 q 15 -1228 75 -1228 q -61 -1152 -22 -1228 l -66 -1133 q 100 -677 -66 -989 q 181 -530 121 -621 q 233 -445 203 -463 q 509 -56 322 -260 l 513 -18 q 500 374 514 404 q 119 11 193 11 q 30 86 50 11 q 43 248 9 161 q 202 549 132 549 l 212 549 q 231 502 231 545 q 138 248 231 469 q 119 163 119 191 l 119 139 q 143 101 119 113 l 153 101 q 452 456 237 123 q 576 622 530 622 m 24 -1133 l 39 -1147 l 58 -1147 q 214 -1043 85 -1147 q 404 -839 277 -1019 q 528 -364 528 -684 l 528 -245 q 509 -132 528 -132 l 314 -393 q 24 -1057 24 -882 l 24 -1133 m 233 817 q 280 742 270 817 q 224 715 269 715 q 171 760 171 715 l 168 760 q 233 817 168 809 m 483 802 q 530 726 520 802 q 475 700 519 700 q 421 745 421 700 l 418 745 q 483 802 418 793 z "},"":{"ha":583,"x_min":-51,"x_max":640,"o":"m 384 712 q 412 669 406 712 q 332 432 412 612 q 303 304 303 364 q 408 81 336 81 l 427 76 l 446 76 q 616 176 517 76 l 626 176 l 640 161 l 640 147 q 417 0 515 0 q 237 204 300 0 l 237 237 q 256 422 237 309 l 251 422 q 58 109 207 376 q -3 75 25 75 q 24 212 -51 91 q 332 650 145 393 q 384 712 351 696 z "},"":{"ha":694,"x_min":0,"x_max":0,"o":""},"":{"ha":694,"x_min":0,"x_max":0,"o":""},"":{"ha":694,"x_min":0,"x_max":0,"o":""},"":{"ha":694,"x_min":149,"x_max":544,"o":"m 306 1196 q 273 1207 306 1196 q 149 1333 239 1219 q 173 1354 158 1354 l 193 1350 q 407 1295 334 1220 q 507 1370 481 1370 q 544 1346 538 1359 q 436 1236 500 1298 q 306 1196 373 1173 z "},"":{"ha":694,"x_min":0,"x_max":0,"o":""},"":{"ha":694,"x_min":0,"x_max":0,"o":""},"":{"ha":694,"x_min":0,"x_max":0,"o":""},"":{"ha":694,"x_min":0,"x_max":0,"o":""},"":{"ha":694,"x_min":0,"x_max":0,"o":""},"":{"ha":700,"x_min":58,"x_max":628,"o":"m 111 616 l 139 616 q 614 564 614 616 q 628 516 623 564 q 581 478 628 478 q 281 516 467 516 l 224 516 q 116 520 173 516 q 58 583 58 525 q 111 616 58 610 z "},"":{"ha":1065,"x_min":76,"x_max":981,"o":"m 121 443 l 145 443 q 969 414 969 458 q 981 373 977 414 q 941 340 981 340 q 267 357 843 373 l 218 357 q 125 361 174 357 q 76 414 76 365 q 121 443 76 438 z "},"":{"ha":296,"x_min":65,"x_max":198,"o":"m 151 1230 l 198 945 l 198 926 q 170 840 191 840 l 160 840 l 141 954 q 65 1187 65 1156 l 65 1192 q 113 1239 65 1239 l 151 1230 z "},"":{"ha":296,"x_min":205,"x_max":338,"o":"m 290 1249 q 338 1201 338 1249 l 338 1196 q 262 964 338 1166 l 243 850 l 233 850 q 205 935 212 850 l 205 954 l 252 1239 l 290 1249 z "},"":{"ha":296,"x_min":143,"x_max":276,"o":"m 229 132 q 276 84 276 132 l 276 79 q 200 -153 276 49 l 181 -267 l 172 -267 q 143 -182 151 -267 l 143 -163 l 191 122 l 229 132 z "},"":{"ha":586,"x_min":56,"x_max":473,"o":"m 136 1356 q 264 891 201 1196 l 245 863 l 236 863 l 231 867 q 56 1323 136 1138 q 103 1371 75 1371 l 136 1356 m 340 1318 q 393 1295 365 1318 q 473 934 412 1257 l 459 867 l 445 867 q 393 1015 422 867 q 298 1276 321 1177 q 340 1318 311 1318 z "},"":{"ha":586,"x_min":156,"x_max":574,"o":"m 526 1377 q 574 1330 555 1377 q 398 874 493 1145 l 393 869 l 384 869 l 365 898 q 493 1363 428 1202 l 526 1377 m 289 1325 q 332 1282 319 1325 q 237 1021 309 1183 q 184 874 207 874 l 170 874 l 156 941 q 237 1301 218 1264 q 289 1325 264 1324 z "},"":{"ha":595,"x_min":156,"x_max":574,"o":"m 526 124 q 574 77 555 124 q 398 -379 493 -109 l 393 -384 l 384 -384 l 365 -355 q 493 110 428 -51 l 526 124 m 289 72 q 332 29 319 72 q 237 -232 309 -70 q 184 -379 207 -379 l 170 -379 l 156 -313 q 237 48 218 11 q 289 72 264 71 z "},"":{"ha":688,"x_min":0,"x_max":0,"o":""},"":{"ha":688,"x_min":0,"x_max":0,"o":""},"":{"ha":481,"x_min":87,"x_max":335,"o":"m 230 786 q 335 612 313 786 q 212 551 310 551 q 94 656 94 551 l 87 656 q 230 786 87 768 z "},"":{"ha":1078,"x_min":250,"x_max":1023,"o":"m 359 191 q 440 58 423 191 q 345 10 421 10 q 255 91 255 10 l 250 91 q 359 191 250 177 m 623 188 q 704 55 687 188 q 609 7 685 7 q 519 88 519 7 l 514 88 q 623 188 514 174 m 942 165 q 1023 32 1006 165 q 928 -16 1004 -16 q 838 65 838 -16 l 833 65 q 942 165 833 151 z "},"":{"ha":700,"x_min":0,"x_max":587,"o":"m 457 868 q 500 912 457 868 q 583 923 544 956 l 583 913 q 427 767 587 872 q 128 534 172 587 q 251 401 162 451 q 351 330 318 330 q 493 178 493 232 q 465 117 484 117 l 455 117 l 137 382 q 0 553 15 474 q 228 701 0 583 q 457 868 370 781 z "},"":{"ha":723,"x_min":100,"x_max":687,"o":"m 230 810 q 274 766 230 810 q 459 642 317 722 q 687 495 687 524 q 550 324 673 416 l 232 58 l 222 58 q 194 120 203 58 q 336 272 194 174 q 436 343 369 272 q 559 476 526 393 q 260 709 515 529 q 104 855 100 814 l 104 865 q 230 810 143 898 z "},"":{"ha":232,"x_min":0,"x_max":0,"o":""},"":{"ha":688,"x_min":0,"x_max":0,"o":""},"":{"ha":688,"x_min":0,"x_max":0,"o":""},"":{"ha":1375,"x_min":0,"x_max":0,"o":""},"":{"ha":924,"x_min":76,"x_max":854,"o":"m 674 1209 q 840 1090 800 1209 l 854 1000 q 760 848 854 848 l 755 848 q 741 867 748 848 q 769 1015 769 955 q 665 1124 769 1107 l 660 1124 q 413 864 533 1124 l 404 831 l 404 821 q 570 779 570 804 l 570 769 q 494 712 535 712 l 361 722 q 318 603 318 631 q 513 527 477 574 q 299 498 513 503 q 233 233 233 458 q 313 95 233 146 l 366 95 q 574 168 510 95 q 675 256 637 241 q 712 237 712 271 q 630 111 710 207 q 465 14 549 14 q 342 0 435 5 q 161 195 183 0 l 161 214 l 199 465 l 199 479 l 190 479 l 100 446 q 76 479 76 453 q 214 584 76 522 q 275 669 275 637 l 275 684 q 185 717 275 701 q 109 774 121 751 l 109 783 q 142 821 114 821 l 285 788 q 361 907 324 788 q 593 1190 456 1096 q 674 1209 647 1209 z "},"":{"ha":1540,"x_min":0,"x_max":0,"o":""},"":{"ha":1015,"x_min":0,"x_max":0,"o":""},"":{"ha":688,"x_min":0,"x_max":0,"o":""},"":{"ha":733,"x_min":0,"x_max":0,"o":""},"":{"ha":1027,"x_min":0,"x_max":0,"o":""},"":{"ha":818,"x_min":0,"x_max":0,"o":""},"":{"ha":700,"x_min":58,"x_max":628,"o":"m 111 616 l 139 616 q 614 564 614 616 q 628 516 623 564 q 581 478 628 478 q 281 516 467 516 l 224 516 q 116 520 173 516 q 58 583 58 525 q 111 616 58 610 z "},"":{"ha":688,"x_min":0,"x_max":0,"o":""},"":{"ha":688,"x_min":0,"x_max":0,"o":""},"":{"ha":451,"x_min":0,"x_max":0,"o":""},"":{"ha":966,"x_min":14,"x_max":939,"o":"m 355 970 q 422 880 405 970 l 417 629 q 512 557 455 557 q 901 885 659 576 q 939 852 939 876 q 645 543 939 785 q 479 472 538 472 q 346 638 359 472 l 346 861 l 341 861 q 137 553 248 828 q 80 463 113 485 l 75 463 q 42 515 62 465 q 265 904 76 656 q 355 970 333 970 m 327 505 q 393 414 376 505 l 389 163 q 484 92 427 92 q 873 419 630 110 q 911 386 911 410 q 616 77 911 319 q 450 6 510 6 q 317 172 330 6 l 317 395 l 313 395 q 109 87 219 362 q 52 -3 85 19 l 47 -3 q 14 49 33 -1 q 237 438 47 190 q 327 505 304 505 z "},"":{"ha":918,"x_min":28,"x_max":810,"o":"m 138 157 l 163 157 q 768 120 768 165 q 780 79 776 120 q 739 47 780 47 q 285 71 642 79 l 236 71 q 143 75 192 71 q 94 128 94 79 q 138 157 94 152 m 798 773 q 804 744 798 773 q 448 629 810 715 q 151 488 251 558 l 149 478 l 342 452 l 638 448 q 697 387 706 428 l 690 374 q 106 414 685 350 q 28 479 38 429 q 250 608 85 561 q 798 773 787 830 z "},"":{"ha":918,"x_min":48,"x_max":845,"o":"m 800 125 q 845 96 845 120 q 796 43 845 47 q 703 39 747 39 l 654 39 q 199 15 297 47 q 159 47 159 15 q 171 88 163 88 q 776 125 171 133 l 800 125 m 60 649 q 66 678 60 649 q 608 484 72 707 q 830 356 773 437 q 751 291 820 306 q 168 250 174 227 l 161 263 q 220 324 152 304 l 515 328 l 709 355 l 707 364 q 410 505 607 435 q 60 649 48 592 z "},"":{"ha":728,"x_min":0,"x_max":0,"o":""},"":{"ha":733,"x_min":0,"x_max":0,"o":""},"":{"ha":749,"x_min":0,"x_max":1019,"o":"m 817 1324 q 859 1277 848 1324 q 622 451 859 1241 q 565 152 565 227 l 570 62 q 522 14 559 14 q 479 76 479 35 q 555 437 479 133 l 555 441 l 551 441 q 195 299 195 357 q 66 33 90 115 q 24 0 47 0 q 0 43 12 2 q 204 399 0 89 q 323 574 204 427 l 783 1296 q 817 1324 795 1316 m 342 489 l 342 479 l 380 479 q 598 598 598 511 q 745 1111 745 1049 l 745 1116 l 741 1116 q 342 489 353 559 m 667 1440 l 686 1440 q 1009 1404 1009 1440 q 1019 1372 1015 1404 q 986 1346 1019 1346 q 783 1372 909 1372 l 745 1372 q 670 1375 709 1372 q 631 1417 631 1378 q 667 1440 631 1436 z "},"":{"ha":760,"x_min":2,"x_max":840,"o":"m 344 699 q 510 614 455 699 q 586 557 563 557 q 657 595 608 595 q 686 571 666 595 q 534 244 686 554 q 496 59 496 144 q 572 -12 496 8 q 696 28 612 -16 q 830 111 781 73 l 840 102 l 840 97 q 738 -17 840 54 q 567 -88 636 -88 q 425 35 473 -88 q 396 144 407 144 l 391 144 q 116 7 254 28 q 2 125 14 7 l 2 135 q 235 637 20 350 q 344 699 292 699 m 78 154 q 102 78 81 78 l 130 78 q 391 225 241 88 q 538 481 490 345 q 387 623 426 623 q 116 315 281 623 q 78 154 78 190 m 345 892 l 364 892 q 687 857 687 892 q 696 825 693 857 q 664 799 696 799 q 461 825 587 825 l 422 825 q 348 828 387 825 q 309 870 309 831 q 345 892 309 888 z "},"":{"ha":749,"x_min":0,"x_max":1026,"o":"m 817 1324 q 859 1277 848 1324 q 622 451 859 1241 q 565 152 565 227 l 570 62 q 522 14 559 14 q 479 76 479 35 q 555 437 479 133 l 555 441 l 551 441 q 195 299 195 357 q 66 33 90 115 q 24 0 47 0 q 0 43 12 2 q 204 399 0 89 q 323 574 204 427 q 404 693 362 644 q 631 1049 520 900 q 783 1296 631 1061 q 817 1324 795 1316 m 342 489 l 342 479 l 380 479 q 598 598 598 511 q 745 1111 745 1049 l 745 1116 l 741 1116 q 579 902 658 1042 q 342 489 353 559 m 794 1383 q 766 1398 794 1383 q 676 1527 739 1413 q 700 1542 687 1544 l 718 1536 q 898 1456 823 1401 q 996 1508 974 1511 q 1026 1481 1023 1493 q 915 1399 980 1445 q 794 1383 850 1354 z "},"":{"ha":760,"x_min":2,"x_max":840,"o":"m 344 699 q 510 614 455 699 q 586 557 563 557 q 657 595 608 595 q 686 571 666 595 q 534 244 686 554 q 496 59 496 144 q 572 -12 496 8 q 696 28 612 -16 q 830 111 781 73 l 840 102 l 840 97 q 738 -17 840 54 q 567 -88 636 -88 q 425 35 473 -88 q 396 144 407 144 l 391 144 q 116 7 254 28 q 2 125 14 7 l 2 135 q 235 637 20 350 q 344 699 292 699 m 78 154 q 102 78 81 78 l 130 78 q 391 225 241 88 q 538 481 490 345 q 387 623 426 623 q 116 315 281 623 q 78 154 78 190 m 394 807 q 366 822 394 807 q 275 951 338 837 q 299 966 286 968 l 317 960 q 497 880 422 825 q 595 931 573 935 q 625 905 622 917 q 514 823 579 869 q 394 807 450 777 z "},"":{"ha":749,"x_min":0,"x_max":859,"o":"m 817 1324 q 859 1277 848 1324 q 622 451 859 1241 q 565 152 565 227 l 570 62 q 522 14 559 14 q 479 76 479 35 q 555 437 479 133 l 555 441 l 551 441 q 195 299 195 357 q 66 33 90 115 q 24 0 47 0 q 0 43 12 2 q 204 399 0 89 q 323 574 204 427 q 404 693 362 644 q 631 1049 520 900 q 783 1296 631 1061 q 817 1324 795 1316 m 342 489 l 342 479 l 380 479 q 598 598 598 511 q 745 1111 745 1049 l 745 1116 l 741 1116 q 579 902 658 1042 q 342 489 353 559 m 520 90 q 539 71 536 85 q 557 -65 627 -1 q 494 -119 488 -129 q 536 -215 494 -212 l 574 -224 l 607 -224 q 681 -255 715 -214 q 559 -296 646 -296 q 437 -224 481 -296 q 515 -35 411 -111 q 477 76 467 76 l 520 90 z "},"":{"ha":760,"x_min":2,"x_max":840,"o":"m 344 699 q 510 614 455 699 q 586 557 563 557 q 657 595 608 595 q 686 571 666 595 q 534 244 686 554 q 496 59 496 144 q 572 -12 496 8 q 696 28 612 -16 q 830 111 781 73 l 840 102 l 840 97 q 738 -17 840 54 q 567 -88 636 -88 q 425 35 473 -88 q 396 144 407 144 l 391 144 q 116 7 254 28 q 2 125 14 7 l 2 135 q 235 637 20 350 q 344 699 292 699 m 78 154 q 102 78 81 78 l 130 78 q 391 225 241 88 q 538 481 490 345 q 387 623 426 623 q 116 315 281 623 q 78 154 78 190 m 165 44 q 184 25 181 39 q 203 -111 273 -47 q 140 -165 133 -175 q 181 -261 140 -258 l 219 -271 l 252 -271 q 326 -301 361 -260 q 205 -342 292 -342 q 83 -270 126 -342 q 161 -81 56 -157 q 123 30 112 30 l 165 44 z "},"":{"ha":949,"x_min":-11,"x_max":989,"o":"m 759 1338 q 878 1196 878 1310 q 783 911 841 911 q 764 935 764 916 q 802 1172 802 1097 q 759 1243 802 1218 l 749 1243 q 400 1018 584 1243 q 143 581 216 793 q 93 235 71 369 q 228 81 114 102 q 470 161 336 81 q 921 517 528 174 l 940 522 l 945 508 q 650 228 835 372 q 209 0 378 0 q 16 282 -11 13 q 147 758 43 551 q 451 1141 251 964 q 754 1338 650 1319 l 759 1338 m 978 1590 l 989 1583 q 909 1480 989 1571 q 802 1378 829 1400 l 787 1378 q 772 1404 781 1378 q 880 1521 772 1434 q 978 1590 884 1563 z "},"":{"ha":589,"x_min":0,"x_max":665,"o":"m 309 707 q 446 589 402 707 l 446 574 q 389 508 439 508 l 380 508 q 351 522 363 508 l 356 555 l 356 574 q 323 593 349 593 l 294 593 q 95 375 227 593 q 81 328 81 351 l 81 294 q 142 109 81 139 q 252 66 205 70 l 266 66 q 500 184 393 86 q 655 285 608 281 l 665 275 q 228 0 400 0 q 0 228 0 43 q 161 617 0 409 q 309 707 247 707 m 490 1008 l 500 1000 q 421 898 500 988 q 313 795 340 817 l 298 795 q 283 821 292 795 q 392 939 283 852 q 490 1008 395 980 z "},"":{"ha":949,"x_min":-11,"x_max":972,"o":"m 759 1338 q 878 1196 878 1310 q 783 911 841 911 q 764 935 764 916 q 802 1172 802 1097 q 759 1243 802 1218 l 749 1243 q 400 1018 584 1243 q 143 581 216 793 q 93 235 71 369 q 228 81 114 102 q 470 161 336 81 q 921 517 528 174 l 940 522 l 945 508 q 650 228 835 372 q 209 0 378 0 q 16 282 -11 13 q 147 758 43 551 q 451 1141 251 964 q 754 1338 650 1319 l 759 1338 m 905 1624 q 932 1583 926 1624 l 928 1501 l 928 1470 q 972 1396 928 1444 q 935 1372 966 1383 q 878 1419 909 1372 l 864 1470 l 867 1512 l 864 1515 l 860 1515 q 782 1443 850 1515 l 762 1440 q 738 1460 747 1440 q 891 1620 792 1578 l 905 1624 z "},"":{"ha":589,"x_min":0,"x_max":665,"o":"m 309 707 q 446 589 402 707 l 446 574 q 389 508 439 508 l 380 508 q 351 522 363 508 l 356 555 l 356 574 q 323 593 349 593 l 294 593 q 95 375 227 593 q 81 328 81 351 l 81 294 q 142 109 81 139 q 252 66 205 70 l 266 66 q 500 184 393 86 q 655 285 608 281 l 665 275 q 228 0 400 0 q 0 228 0 43 q 161 617 0 409 q 309 707 247 707 m 404 1011 q 431 970 425 1011 l 427 889 l 427 858 q 471 783 427 831 q 434 760 465 770 q 376 807 408 760 l 363 858 l 366 899 l 363 903 l 359 903 q 281 831 349 903 l 260 827 q 237 848 245 827 q 390 1008 291 966 l 404 1011 z "},"":{"ha":949,"x_min":-11,"x_max":945,"o":"m 759 1338 q 878 1196 878 1310 q 783 911 841 911 q 764 935 764 916 q 802 1172 802 1097 q 759 1243 802 1218 l 749 1243 q 400 1018 584 1243 q 143 581 216 793 q 93 235 71 369 q 228 81 114 102 q 470 161 336 81 q 921 517 528 174 l 940 522 l 945 508 q 650 228 835 372 q 209 0 378 0 q 16 282 -11 13 q 147 758 43 551 q 451 1141 251 964 q 754 1338 650 1319 l 759 1338 m 861 1500 q 909 1426 899 1500 q 852 1398 897 1398 q 800 1444 800 1398 l 797 1444 q 861 1500 797 1493 z "},"":{"ha":589,"x_min":0,"x_max":665,"o":"m 309 707 q 446 589 402 707 l 446 574 q 389 508 439 508 l 380 508 q 351 522 363 508 l 356 555 l 356 574 q 323 593 349 593 l 294 593 q 95 375 227 593 q 81 328 81 351 l 81 294 q 142 109 81 139 q 252 66 205 70 l 266 66 q 500 184 393 86 q 655 285 608 281 l 665 275 q 228 0 400 0 q 0 228 0 43 q 161 617 0 409 q 309 707 247 707 m 331 954 q 378 879 368 954 q 322 852 367 852 q 269 897 269 852 l 267 897 q 331 954 267 946 z "},"":{"ha":949,"x_min":-11,"x_max":1051,"o":"m 759 1338 q 878 1196 878 1310 q 783 911 841 911 q 764 935 764 916 q 802 1172 802 1097 q 759 1243 802 1218 l 749 1243 q 400 1018 584 1243 q 143 581 216 793 q 93 235 71 369 q 228 81 114 102 q 470 161 336 81 q 921 517 528 174 l 940 522 l 945 508 q 650 228 835 372 q 209 0 378 0 q 16 282 -11 13 q 147 758 43 551 q 451 1141 251 964 q 754 1338 650 1319 l 759 1338 m 884 1365 q 857 1406 863 1365 l 861 1487 l 861 1518 q 817 1593 861 1545 q 854 1617 823 1606 q 911 1569 880 1617 l 925 1518 l 922 1477 l 925 1474 l 928 1474 q 1007 1546 939 1474 l 1027 1549 q 1051 1529 1042 1549 q 898 1369 997 1411 l 884 1365 z "},"":{"ha":589,"x_min":0,"x_max":665,"o":"m 309 707 q 446 589 402 707 l 446 574 q 389 508 439 508 l 380 508 q 351 522 363 508 l 356 555 l 356 574 q 323 593 349 593 l 294 593 q 95 375 227 593 q 81 328 81 351 l 81 294 q 142 109 81 139 q 252 66 205 70 l 266 66 q 500 184 393 86 q 655 285 608 281 l 665 275 q 228 0 400 0 q 0 228 0 43 q 161 617 0 409 q 309 707 247 707 m 376 783 q 349 823 355 783 l 353 905 l 353 936 q 309 1010 353 962 q 346 1034 315 1023 q 404 987 372 1034 l 417 936 l 414 895 l 417 891 l 420 891 q 499 963 431 891 l 519 966 q 543 946 534 966 q 390 786 489 828 l 376 783 z "},"":{"ha":1292,"x_min":-48,"x_max":1274,"o":"m 780 1316 q 905 1322 780 1316 q 1158 1223 1029 1328 q 1257 929 1257 1117 q 819 122 1274 441 q 472 -73 634 -14 q 230 -130 294 -130 l 187 -130 q 45 -68 102 -130 l 45 -49 q 211 13 95 13 l 225 8 l 225 -1 l 187 -44 l 187 -49 l 225 -49 q 690 84 450 -49 q 1162 644 1036 288 q 1196 939 1196 776 q 1068 1218 1196 1165 q 750 1258 941 1271 q 291 1062 559 1246 q -13 876 22 879 q -48 896 -48 872 l -48 905 q 270 1133 9 961 q 780 1316 530 1304 m 586 987 l 591 987 q 605 963 602 987 q 505 486 605 874 q 344 98 405 98 l 344 94 q 315 117 335 94 q 441 507 315 169 q 557 949 515 768 l 586 987 m 1024 1345 q 997 1386 1003 1345 l 1000 1468 l 1000 1499 q 956 1573 1000 1525 q 994 1597 962 1586 q 1051 1550 1019 1597 l 1065 1499 l 1061 1457 l 1065 1454 l 1068 1454 q 1147 1526 1078 1454 l 1167 1529 q 1191 1509 1182 1529 q 1038 1349 1137 1391 l 1024 1345 z "},"":{"ha":859,"x_min":14,"x_max":970,"o":"m 940 1151 l 945 1151 q 964 1118 964 1143 l 964 1113 q 845 842 964 1048 q 688 425 688 516 l 698 425 q 769 524 706 425 q 812 543 794 543 l 826 543 q 854 529 843 543 q 750 330 854 500 l 741 287 l 741 273 q 873 149 741 190 l 883 135 l 883 116 q 840 92 871 92 q 646 206 764 92 l 631 206 q 447 66 631 163 q 152 -31 262 -31 q 14 83 14 -7 l 14 87 q 269 482 53 314 q 646 572 484 650 l 660 572 q 774 842 696 598 q 940 1151 888 1151 m 95 121 l 95 97 q 171 35 109 35 l 176 35 q 475 173 414 104 q 565 325 565 249 q 593 415 593 389 l 593 458 q 528 528 593 513 q 340 459 462 543 q 166 293 218 376 q 95 121 114 211 m 803 1199 q 776 1240 782 1199 l 779 1321 l 779 1352 q 735 1427 779 1379 q 772 1451 741 1440 q 830 1403 798 1451 l 844 1352 l 840 1311 l 844 1308 l 847 1308 q 926 1379 857 1308 l 946 1383 q 970 1362 961 1383 q 817 1202 916 1244 l 803 1199 z "},"":{"ha":1292,"x_min":-48,"x_max":1274,"o":"m 780 1316 q 905 1322 780 1316 q 1158 1223 1029 1328 q 1257 929 1257 1117 q 819 122 1274 441 q 472 -73 634 -14 q 230 -130 294 -130 l 187 -130 q 45 -68 102 -130 l 45 -49 q 211 13 95 13 l 225 8 l 225 -1 l 187 -44 l 187 -49 l 225 -49 q 690 84 450 -49 q 1162 644 1036 288 q 1196 939 1196 776 q 1068 1218 1196 1165 q 750 1258 941 1271 q 291 1062 559 1246 q -13 876 22 879 q -48 896 -48 872 l -48 905 q 270 1133 9 961 q 780 1316 530 1304 m 586 987 l 591 987 q 605 963 602 987 q 505 486 605 874 q 344 98 405 98 l 344 94 q 315 117 335 94 q 441 507 315 169 q 557 949 515 768 l 586 987 m 254 610 l 273 610 q 596 574 596 610 q 606 542 602 574 q 573 516 606 516 q 370 542 496 542 l 332 542 q 257 545 296 542 q 218 587 218 548 q 254 610 218 606 z "},"":{"ha":859,"x_min":14,"x_max":1006,"o":"m 940 1151 l 945 1151 q 964 1118 964 1143 l 964 1113 q 845 842 964 1048 q 688 425 688 516 l 698 425 q 769 524 706 425 q 812 543 794 543 l 826 543 q 854 529 843 543 q 750 330 854 500 l 741 287 l 741 273 q 873 149 741 190 l 883 135 l 883 116 q 840 92 871 92 q 646 206 764 92 l 631 206 q 447 66 631 163 q 152 -31 262 -31 q 14 83 14 -7 l 14 87 q 269 482 53 314 q 646 572 484 650 l 660 572 q 774 842 696 598 q 940 1151 888 1151 m 95 121 l 95 97 q 171 35 109 35 l 176 35 q 475 173 414 104 q 565 325 565 249 q 593 415 593 389 l 593 458 q 528 528 593 513 q 340 459 462 543 q 166 293 218 376 q 95 121 114 211 m 654 926 l 673 926 q 996 890 996 926 q 1006 858 1002 890 q 973 832 1006 832 q 770 858 896 858 l 732 858 q 657 861 696 858 q 618 903 618 864 q 654 926 618 922 z "},"":{"ha":1072,"x_min":0,"x_max":1042,"o":"m 866 1352 l 880 1352 q 1042 1257 1042 1334 l 1018 1196 l 1013 1196 q 989 1262 1006 1196 q 861 1295 954 1295 l 833 1295 q 429 1110 668 1253 q 313 764 429 1042 l 437 807 l 612 854 l 726 864 l 774 864 q 1035 836 1035 864 l 1035 826 q 679 783 1035 804 q 275 679 370 741 q 138 437 180 616 q 104 275 104 348 l 104 242 q 304 76 104 139 l 328 76 q 731 166 443 76 l 817 223 l 831 223 l 836 209 q 342 5 836 78 l 256 0 q 57 119 165 0 q 28 214 30 167 q 119 532 28 319 l 119 541 l 109 551 l 19 546 q 0 560 0 553 l 0 574 q 180 707 0 616 q 334 1082 218 707 l 334 1096 l 330 1096 l 239 1077 q 211 1124 218 1077 q 425 1205 211 1160 q 866 1352 790 1352 m 554 1505 l 574 1505 q 897 1470 897 1505 q 906 1437 903 1470 q 873 1411 906 1411 q 671 1437 796 1437 l 632 1437 q 558 1440 597 1437 q 519 1482 519 1443 q 554 1505 519 1501 z "},"":{"ha":635,"x_min":-16,"x_max":717,"o":"m 526 684 q 578 631 564 684 q 516 479 578 577 q 357 311 454 380 q 260 185 260 241 l 260 166 q 350 85 260 108 l 374 81 l 431 81 q 693 184 496 81 l 707 199 l 717 189 l 717 151 q 648 78 717 117 q 388 0 580 38 l 383 0 q 165 152 165 25 l 151 152 q 3 52 58 62 l -16 66 q 51 128 -16 99 q 227 361 199 249 q 392 595 298 507 q 526 684 486 684 m 326 422 l 326 408 l 336 408 q 502 589 384 408 l 492 589 q 326 422 412 532 m 334 871 l 354 871 q 677 836 677 871 q 686 803 683 836 q 654 777 686 777 q 451 803 576 803 l 412 803 q 338 806 377 803 q 299 848 299 809 q 334 871 299 867 z "},"":{"ha":1072,"x_min":0,"x_max":1042,"o":"m 866 1352 l 880 1352 q 1042 1257 1042 1334 l 1018 1196 l 1013 1196 q 989 1262 1006 1196 q 861 1295 954 1295 l 833 1295 q 429 1110 668 1253 q 313 764 429 1042 l 437 807 l 612 854 l 726 864 l 774 864 q 1035 836 1035 864 l 1035 826 q 679 783 1035 804 q 370 688 370 741 q 138 437 226 688 q 104 275 104 348 l 104 242 q 304 76 104 139 l 328 76 q 731 166 443 76 l 817 223 l 831 223 l 836 209 q 342 5 836 78 l 256 0 q 57 119 165 0 q 28 214 30 167 q 119 532 28 319 l 119 541 l 109 551 l 19 546 q 0 560 0 553 l 0 574 q 180 707 0 616 q 334 1082 218 707 l 334 1096 l 330 1096 l 239 1077 q 211 1124 218 1077 q 425 1205 211 1160 q 866 1352 790 1352 m 609 1390 q 581 1404 609 1390 q 491 1533 553 1419 q 515 1548 502 1550 l 532 1542 q 713 1462 637 1407 q 811 1514 789 1517 q 841 1487 838 1499 q 730 1406 795 1451 q 609 1390 665 1360 z "},"":{"ha":635,"x_min":-16,"x_max":759,"o":"m 526 684 q 578 631 564 684 q 516 479 578 577 q 357 311 454 380 q 260 185 260 241 l 260 166 q 350 85 260 108 l 374 81 l 431 81 q 693 184 496 81 l 707 199 l 717 189 l 717 151 q 648 78 717 117 q 388 0 580 38 l 383 0 q 165 152 165 25 l 151 152 q 3 52 58 62 l -16 66 q 51 128 -16 99 q 227 361 199 249 q 392 595 298 507 q 526 684 486 684 m 326 422 l 326 408 l 336 408 q 502 589 384 408 l 492 589 q 326 422 412 532 m 527 817 q 499 832 527 817 q 409 961 471 847 q 433 976 420 978 l 450 970 q 631 890 555 835 q 729 941 707 945 q 759 915 755 927 q 648 833 713 879 q 527 817 583 787 z "},"":{"ha":1072,"x_min":0,"x_max":1042,"o":"m 866 1352 l 880 1352 q 1042 1257 1042 1334 l 1018 1196 l 1013 1196 q 989 1262 1006 1196 q 861 1295 954 1295 l 833 1295 q 429 1110 668 1253 q 313 764 429 1042 l 437 807 l 612 854 l 726 864 l 774 864 q 1035 836 1035 864 l 1035 826 q 679 783 1035 804 q 370 688 370 741 q 138 437 226 688 q 104 275 104 348 l 104 242 q 304 76 104 139 l 328 76 q 731 166 443 76 l 817 223 l 831 223 l 836 209 q 342 5 836 78 l 256 0 q 57 119 165 0 q 28 214 30 167 q 119 532 28 319 l 119 541 l 109 551 l 19 546 q 0 560 0 553 l 0 574 q 180 707 0 616 q 334 1082 218 707 l 334 1096 l 330 1096 l 239 1077 q 211 1124 218 1077 q 425 1205 211 1160 q 866 1352 790 1352 m 861 1500 q 909 1426 899 1500 q 852 1398 897 1398 q 800 1444 800 1398 l 797 1444 q 861 1500 797 1493 z "},"":{"ha":635,"x_min":-16,"x_max":717,"o":"m 526 684 q 578 631 564 684 q 516 479 578 577 q 357 311 454 380 q 260 185 260 241 l 260 166 q 350 85 260 108 l 374 81 l 431 81 q 693 184 496 81 l 707 199 l 717 189 l 717 151 q 648 78 717 117 q 388 0 580 38 l 383 0 q 165 152 165 25 l 151 152 q 3 52 58 62 l -16 66 q 51 128 -16 99 q 227 361 199 249 q 392 595 298 507 q 526 684 486 684 m 326 422 l 326 408 l 336 408 q 502 589 384 408 l 492 589 q 326 422 412 532 m 588 862 q 635 787 625 862 q 579 760 624 760 q 526 806 526 760 l 524 806 q 588 862 524 854 z "},"":{"ha":1072,"x_min":0,"x_max":1042,"o":"m 866 1352 l 880 1352 q 1042 1257 1042 1334 l 1018 1196 l 1013 1196 q 989 1262 1006 1196 q 861 1295 954 1295 l 833 1295 q 429 1110 668 1253 q 313 764 429 1042 l 437 807 l 612 854 l 726 864 l 774 864 q 1035 836 1035 864 l 1035 826 q 679 783 1035 804 q 370 688 370 741 q 138 437 226 688 q 104 275 104 348 l 104 242 q 304 76 104 139 l 328 76 q 731 166 443 76 l 817 223 l 831 223 l 836 209 q 342 5 836 78 l 256 0 q 57 119 165 0 q 28 214 30 167 q 119 532 28 319 l 119 541 l 109 551 l 19 546 q 0 560 0 553 l 0 574 q 180 707 0 616 q 334 1082 218 707 l 334 1096 l 330 1096 l 239 1077 q 211 1124 218 1077 q 425 1205 211 1160 q 866 1352 790 1352 m 520 90 q 539 71 536 85 q 557 -65 627 -1 q 494 -119 488 -129 q 536 -215 494 -212 l 574 -224 l 607 -224 q 681 -255 715 -214 q 559 -296 646 -296 q 437 -224 481 -296 q 515 -35 411 -111 q 477 76 467 76 l 520 90 z "},"":{"ha":635,"x_min":-16,"x_max":717,"o":"m 526 684 q 578 631 564 684 q 516 479 578 577 q 357 311 454 380 q 260 185 260 241 l 260 166 q 350 85 260 108 l 374 81 l 431 81 q 693 184 496 81 l 707 199 l 717 189 l 717 151 q 648 78 717 117 q 388 0 580 38 l 383 0 q 165 152 165 25 l 151 152 q 3 52 58 62 l -16 66 q 51 128 -16 99 q 227 361 199 249 q 392 595 298 507 q 526 684 486 684 m 326 422 l 326 408 l 336 408 q 502 589 384 408 l 492 589 q 326 422 412 532 m 367 58 q 386 39 382 53 q 404 -97 474 -33 q 341 -152 334 -161 q 382 -248 341 -245 l 420 -257 l 454 -257 q 528 -288 562 -247 q 406 -328 493 -328 q 284 -256 328 -328 q 362 -67 258 -144 q 324 43 313 43 l 367 58 z "},"":{"ha":1072,"x_min":0,"x_max":1042,"o":"m 866 1352 l 880 1352 q 1042 1257 1042 1334 l 1018 1196 l 1013 1196 q 989 1262 1006 1196 q 861 1295 954 1295 l 833 1295 q 429 1110 668 1253 q 313 764 429 1042 l 437 807 l 612 854 l 726 864 l 774 864 q 1035 836 1035 864 l 1035 826 q 679 783 1035 804 q 370 688 370 741 q 138 437 226 688 q 104 275 104 348 l 104 242 q 304 76 104 139 l 328 76 q 731 166 443 76 l 817 223 l 831 223 l 836 209 q 342 5 836 78 l 256 0 q 57 119 165 0 q 28 214 30 167 q 119 532 28 319 l 119 541 l 109 551 l 19 546 q 0 560 0 553 l 0 574 q 180 707 0 616 q 334 1082 218 707 l 334 1096 l 330 1096 l 239 1077 q 211 1124 218 1077 q 425 1205 211 1160 q 866 1352 790 1352 m 536 1310 q 509 1350 515 1310 l 512 1432 l 512 1463 q 468 1537 512 1489 q 505 1561 474 1550 q 563 1514 531 1561 l 576 1463 l 573 1421 l 576 1418 l 580 1418 q 659 1490 590 1418 l 679 1493 q 703 1473 694 1493 q 549 1313 648 1355 l 536 1310 z "},"":{"ha":635,"x_min":-16,"x_max":751,"o":"m 526 684 q 578 631 564 684 q 516 479 578 577 q 357 311 454 380 q 260 185 260 241 l 260 166 q 350 85 260 108 l 374 81 l 431 81 q 693 184 496 81 l 707 199 l 717 189 l 717 151 q 648 78 717 117 q 388 0 580 38 l 383 0 q 165 152 165 25 l 151 152 q 3 52 58 62 l -16 66 q 51 128 -16 99 q 227 361 199 249 q 392 595 298 507 q 526 684 486 684 m 326 422 l 326 408 l 336 408 q 502 589 384 408 l 492 589 q 326 422 412 532 m 585 926 q 557 966 564 926 l 561 1048 l 561 1079 q 517 1154 561 1105 q 554 1177 523 1166 q 612 1130 580 1177 l 625 1079 l 622 1038 l 625 1034 l 629 1034 q 707 1106 639 1034 l 728 1109 q 751 1089 743 1109 q 598 929 697 971 l 585 926 z "},"":{"ha":1025,"x_min":5,"x_max":1001,"o":"m 631 1301 q 746 1327 631 1301 q 982 1234 862 1353 q 1001 1168 1001 1206 q 939 997 976 997 q 901 1044 901 1015 l 916 1106 l 916 1139 q 711 1251 916 1256 q 371 1121 507 1246 q 180 840 234 996 q 71 456 71 550 l 71 408 q 294 76 71 160 l 394 62 q 821 309 674 62 q 888 508 888 443 l 888 527 q 717 612 888 585 l 712 612 l 503 584 l 494 584 q 451 627 451 590 l 451 631 q 669 722 451 694 q 964 570 859 722 l 973 513 l 973 508 q 902 294 973 463 q 783 76 902 275 q 707 -242 707 -65 l 707 -252 q 750 -309 707 -272 l 750 -323 q 698 -356 745 -341 q 627 -218 642 -356 l 627 -214 q 717 104 627 -91 l 712 109 q 408 -14 526 -14 q 24 237 101 -14 q 5 375 11 278 q 101 818 5 608 q 299 1139 198 1029 q 631 1301 400 1249 m 931 1519 q 958 1478 952 1519 l 955 1397 l 955 1366 q 999 1291 955 1339 q 962 1267 993 1278 q 904 1315 936 1267 l 890 1366 l 894 1407 l 890 1411 l 886 1411 q 808 1339 877 1411 l 788 1335 q 764 1356 773 1335 q 918 1516 819 1474 l 931 1519 z "},"":{"ha":711,"x_min":-2,"x_max":808,"o":"m 463 755 q 606 627 542 755 q 629 593 625 627 q 553 -14 553 97 l 558 -14 l 775 149 l 804 154 l 808 154 l 808 92 q 670 -4 797 77 q 544 -223 544 -84 q 477 -840 506 -630 q 349 -1206 415 -1112 q 240 -1301 286 -1301 q 121 -1030 136 -1264 l 121 -930 q 197 -546 121 -737 q 254 -412 197 -528 q 354 -261 311 -296 q 482 -62 482 -110 l 482 275 l 473 275 q 107 9 248 9 q -2 90 14 9 q 193 541 -2 257 q 463 755 368 755 m 74 152 l 74 128 q 93 85 74 92 l 117 85 q 368 242 218 85 q 430 318 368 254 q 501 517 501 400 q 468 646 501 646 l 449 646 q 102 275 309 619 q 74 152 74 240 m 183 -890 q 181 -985 183 -890 q 245 -1196 178 -1080 l 264 -1196 q 363 -1030 304 -1196 q 482 -247 444 -751 l 477 -233 q 297 -456 436 -233 q 183 -890 188 -701 m 531 1152 q 558 1111 552 1152 l 555 1029 l 555 998 q 599 924 555 972 q 562 900 593 911 q 504 947 536 900 l 490 998 l 494 1040 l 490 1043 l 486 1043 q 408 971 477 1043 l 388 968 q 364 988 373 968 q 517 1148 418 1106 l 531 1152 z "},"":{"ha":1025,"x_min":5,"x_max":1026,"o":"m 631 1301 q 746 1327 631 1301 q 982 1234 862 1353 q 1001 1168 1001 1206 q 939 997 976 997 q 901 1044 901 1015 l 916 1106 l 916 1139 q 711 1251 916 1256 q 371 1121 507 1246 q 180 840 234 996 q 71 456 71 550 l 71 408 q 294 76 71 160 l 394 62 q 821 309 674 62 q 888 508 888 443 l 888 527 q 717 612 888 585 l 712 612 l 503 584 l 494 584 q 451 627 451 590 l 451 631 q 669 722 451 694 q 964 570 859 722 l 973 513 l 973 508 q 902 294 973 463 q 783 76 902 275 q 707 -242 707 -65 l 707 -252 q 750 -309 707 -272 l 750 -323 q 698 -356 745 -341 q 627 -218 642 -356 l 627 -214 q 717 104 627 -91 l 712 109 q 408 -14 526 -14 q 24 237 101 -14 q 5 375 11 278 q 101 818 5 608 q 299 1139 198 1029 q 631 1301 400 1249 m 794 1383 q 766 1398 794 1383 q 676 1527 739 1413 q 700 1542 687 1544 l 718 1536 q 898 1456 823 1401 q 996 1508 974 1511 q 1026 1481 1023 1493 q 915 1399 980 1445 q 794 1383 850 1354 z "},"":{"ha":711,"x_min":-2,"x_max":808,"o":"m 463 755 q 606 627 542 755 q 629 593 625 627 q 553 -14 553 97 l 558 -14 l 775 149 l 804 154 l 808 154 l 808 92 q 670 -4 797 77 q 544 -223 544 -84 q 477 -840 506 -630 q 349 -1206 415 -1112 q 240 -1301 286 -1301 q 121 -1030 136 -1264 l 121 -930 q 197 -546 121 -737 q 254 -412 197 -528 q 354 -261 311 -296 q 482 -62 482 -110 l 482 275 l 473 275 q 107 9 248 9 q -2 90 14 9 q 193 541 -2 257 q 463 755 368 755 m 74 152 l 74 128 q 93 85 74 92 l 117 85 q 368 242 218 85 q 430 318 368 254 q 501 517 501 400 q 468 646 501 646 l 449 646 q 102 275 309 619 q 74 152 74 240 m 183 -890 q 181 -985 183 -890 q 245 -1196 178 -1080 l 264 -1196 q 363 -1030 304 -1196 q 482 -247 444 -751 l 477 -233 q 297 -456 436 -233 q 183 -890 188 -701 m 446 951 q 418 966 446 951 q 328 1095 390 981 q 351 1109 338 1112 l 369 1103 q 550 1023 474 968 q 648 1075 625 1078 q 677 1048 674 1061 q 567 967 631 1013 q 446 951 502 921 z "},"":{"ha":1025,"x_min":5,"x_max":1001,"o":"m 631 1301 q 746 1327 631 1301 q 982 1234 862 1353 q 1001 1168 1001 1206 q 939 997 976 997 q 901 1044 901 1015 l 916 1106 l 916 1139 q 711 1251 916 1256 q 371 1121 507 1246 q 180 840 234 996 q 71 456 71 550 l 71 408 q 294 76 71 160 l 394 62 q 821 309 674 62 q 888 508 888 443 l 888 527 q 717 612 888 585 l 712 612 l 503 584 l 494 584 q 451 627 451 590 l 451 631 q 669 722 451 694 q 964 570 859 722 l 973 513 l 973 508 q 902 294 973 463 q 783 76 902 275 q 707 -242 707 -65 l 707 -252 q 750 -309 707 -272 l 750 -323 q 698 -356 745 -341 q 627 -218 642 -356 l 627 -214 q 717 104 627 -91 l 712 109 q 408 -14 526 -14 q 24 237 101 -14 q 5 375 11 278 q 101 818 5 608 q 299 1139 198 1029 q 631 1301 400 1249 m 861 1500 q 909 1426 899 1500 q 852 1398 897 1398 q 800 1444 800 1398 l 797 1444 q 861 1500 797 1493 z "},"":{"ha":711,"x_min":-2,"x_max":808,"o":"m 463 755 q 606 627 542 755 q 629 593 625 627 q 553 -14 553 97 l 558 -14 l 775 149 l 804 154 l 808 154 l 808 92 q 670 -4 797 77 q 544 -223 544 -84 q 477 -840 506 -630 q 349 -1206 415 -1112 q 240 -1301 286 -1301 q 121 -1030 136 -1264 l 121 -930 q 197 -546 121 -737 q 254 -412 197 -528 q 354 -261 311 -296 q 482 -62 482 -110 l 482 275 l 473 275 q 107 9 248 9 q -2 90 14 9 q 193 541 -2 257 q 463 755 368 755 m 74 152 l 74 128 q 93 85 74 92 l 117 85 q 368 242 218 85 q 430 318 368 254 q 501 517 501 400 q 468 646 501 646 l 449 646 q 102 275 309 619 q 74 152 74 240 m 183 -890 q 181 -985 183 -890 q 245 -1196 178 -1080 l 264 -1196 q 363 -1030 304 -1196 q 482 -247 444 -751 l 477 -233 q 297 -456 436 -233 q 183 -890 188 -701 m 477 1061 q 525 986 515 1061 q 469 959 513 959 q 416 1004 416 959 l 413 1004 q 477 1061 413 1053 z "},"":{"ha":1025,"x_min":5,"x_max":1001,"o":"m 631 1301 q 746 1327 631 1301 q 982 1234 862 1353 q 1001 1168 1001 1206 q 939 997 976 997 q 901 1044 901 1015 l 916 1106 l 916 1139 q 711 1251 916 1256 q 371 1121 507 1246 q 180 840 234 996 q 71 456 71 550 l 71 408 q 294 76 71 160 l 394 62 q 821 309 674 62 q 888 508 888 443 l 888 527 q 717 612 888 585 l 712 612 l 503 584 l 494 584 q 451 627 451 590 l 451 631 q 669 722 451 694 q 964 570 859 722 l 973 513 l 973 508 q 902 294 973 463 q 783 76 902 275 q 707 -242 707 -65 l 707 -252 q 750 -309 707 -272 l 750 -323 q 698 -356 745 -341 q 627 -218 642 -356 l 627 -214 q 717 104 627 -91 l 712 109 q 408 -14 526 -14 q 24 237 101 -14 q 5 375 11 278 q 101 818 5 608 q 299 1139 198 1029 q 631 1301 400 1249 m 538 -186 l 549 -194 q 470 -296 549 -206 q 362 -399 389 -377 l 347 -399 q 332 -373 341 -399 q 441 -256 332 -342 q 538 -186 444 -214 z "},"":{"ha":711,"x_min":-2,"x_max":808,"o":"m 463 755 q 606 627 542 755 q 629 593 625 627 q 553 -14 553 97 l 558 -14 l 775 149 l 804 154 l 808 154 l 808 92 q 670 -4 797 77 q 544 -223 544 -84 q 477 -840 506 -630 q 349 -1206 415 -1112 q 240 -1301 286 -1301 q 121 -1030 136 -1264 l 121 -930 q 197 -546 121 -737 q 254 -412 197 -528 q 354 -261 311 -296 q 482 -62 482 -110 l 482 275 l 473 275 q 107 9 248 9 q -2 90 14 9 q 193 541 -2 257 q 463 755 368 755 m 74 152 l 74 128 q 93 85 74 92 l 117 85 q 368 242 218 85 q 430 318 368 254 q 501 517 501 400 q 468 646 501 646 l 449 646 q 102 275 309 619 q 74 152 74 240 m 183 -890 q 181 -985 183 -890 q 245 -1196 178 -1080 l 264 -1196 q 363 -1030 304 -1196 q 482 -247 444 -751 l 477 -233 q 297 -456 436 -233 q 183 -890 188 -701 m 529 -1154 l 540 -1162 q 460 -1264 540 -1174 q 353 -1367 380 -1345 l 338 -1367 q 323 -1341 332 -1367 q 431 -1223 323 -1310 q 529 -1154 435 -1182 z "},"":{"ha":683,"x_min":0,"x_max":926,"o":"m 907 1424 l 926 1424 l 926 1410 q 707 949 804 1169 q 622 674 653 808 q 437 71 446 227 l 441 43 q 389 0 441 14 q 375 19 375 0 l 370 19 q 532 612 412 262 l 555 641 l 555 646 l 546 655 l 536 655 q 312 596 481 655 q 142 451 142 538 q 62 85 62 292 q 38 33 47 33 l 24 28 q 0 81 0 28 q 100 522 0 201 q 128 646 100 635 q 285 1165 220 818 q 328 1317 305 1317 q 380 1274 380 1317 q 242 783 380 1200 l 218 688 l 209 657 l 252 665 q 567 747 543 707 q 907 1424 785 1424 m 612 1548 q 640 1508 633 1548 l 636 1426 l 636 1395 q 680 1320 636 1369 q 643 1297 674 1308 q 585 1344 617 1297 l 572 1395 l 575 1436 l 572 1440 l 568 1440 q 490 1368 558 1440 l 469 1364 q 446 1385 454 1364 q 599 1545 500 1503 l 612 1548 z "},"":{"ha":658,"x_min":-1,"x_max":787,"o":"m 577 1340 l 591 1339 q 629 1291 631 1306 q 317 630 489 1040 l 163 299 l 177 298 q 517 673 288 441 q 557 683 539 685 q 602 616 600 677 l 601 611 q 431 165 588 500 l 421 119 q 481 64 418 87 q 711 127 549 56 l 716 127 l 720 121 l 718 98 q 625 28 713 62 q 429 -16 515 -26 q 350 110 327 7 q 437 319 373 214 q 513 549 508 513 l 514 564 l 506 574 q 258 293 372 452 q 140 111 209 235 q 67 14 90 12 l 27 0 l 18 1 q 3 45 -1 9 q 149 387 9 90 l 325 821 q 541 1316 505 1257 l 577 1340 m 720 1197 q 747 1156 741 1197 l 743 1075 l 743 1044 q 787 969 743 1017 q 750 945 781 956 q 692 993 724 945 l 679 1044 l 682 1085 l 679 1088 l 675 1088 q 597 1017 665 1088 l 576 1013 q 553 1034 562 1013 q 706 1194 607 1152 l 720 1197 z "},"":{"ha":683,"x_min":0,"x_max":926,"o":"m 907 1424 l 926 1424 l 926 1410 q 707 949 804 1169 q 622 674 653 808 q 437 71 446 227 l 441 43 q 389 0 441 14 q 375 19 375 0 l 370 19 q 532 612 412 262 l 555 641 l 555 646 l 546 655 l 536 655 q 312 596 481 655 q 142 451 142 538 q 62 85 62 292 q 38 33 47 33 l 24 28 q 0 81 0 28 q 100 522 0 201 q 128 646 100 635 q 285 1165 220 818 q 328 1317 305 1317 q 380 1274 380 1317 q 242 783 380 1200 l 218 688 l 209 657 l 252 665 q 567 747 543 707 q 907 1424 785 1424 m 182 945 l 201 945 q 804 1034 804 1069 q 814 1002 810 1034 q 781 976 814 976 q 260 878 430 939 q 185 881 224 878 q 146 923 146 884 q 182 945 146 941 z "},"":{"ha":658,"x_min":-1,"x_max":720,"o":"m 577 1340 l 591 1339 q 629 1291 631 1306 q 317 630 489 1040 l 163 299 l 177 298 q 517 673 288 441 q 557 683 539 685 q 602 616 600 677 l 601 611 q 431 165 588 500 l 421 119 q 481 64 418 87 q 711 127 549 56 l 716 127 l 720 121 l 718 98 q 625 28 713 62 q 429 -16 515 -26 q 350 110 327 7 q 437 319 373 214 q 513 549 508 513 l 514 564 l 506 574 q 258 293 372 452 q 140 111 209 235 q 67 14 90 12 l 27 0 l 18 1 q 3 45 -1 9 q 149 387 9 90 l 325 821 q 541 1316 505 1257 l 577 1340 m 321 1046 l 341 1046 q 664 1010 664 1046 q 673 978 670 1010 q 641 952 673 952 q 438 978 564 978 l 399 978 q 325 981 364 978 q 286 1023 286 984 q 321 1046 286 1042 z "},"":{"ha":1039,"x_min":-126,"x_max":1074,"o":"m 1004 1311 q 1056 1273 1074 1311 q 686 1131 1039 1235 q 519 708 668 1027 q 382 167 382 257 l 396 157 l 406 157 q 743 271 473 157 l 895 300 q 956 276 956 290 q 709 191 913 249 l 382 62 q 344 -9 359 -9 l 330 -9 l 306 29 l 268 29 q -17 -109 164 29 q -98 -199 -62 -170 l -112 -199 q -126 -170 -126 -194 q 125 53 -126 -65 q 330 181 330 117 q 543 960 330 288 q 572 1078 572 1036 l 572 1102 l 567 1102 q 352 990 498 1076 q 130 860 205 905 l 125 860 q 87 903 87 860 q 472 1131 87 949 q 1004 1311 578 1189 m 420 1504 q 505 1495 446 1532 l 621 1413 q 709 1430 680 1398 q 785 1498 773 1522 q 740 1368 770 1402 q 579 1378 679 1301 l 459 1445 l 402 1393 q 340 1372 374 1323 q 420 1504 408 1491 z "},"":{"ha":583,"x_min":-51,"x_max":707,"o":"m 384 712 q 412 669 406 712 q 332 432 412 612 q 303 304 303 364 q 408 81 336 81 l 427 76 l 446 76 q 616 176 517 76 l 626 176 l 640 161 l 640 147 q 417 0 515 0 q 237 204 300 0 l 237 237 q 256 422 237 309 l 251 422 q 58 109 207 376 q -3 75 25 75 q 24 212 -51 91 q 332 650 145 393 q 384 712 351 696 m 342 1025 q 427 1017 368 1053 l 543 935 q 631 951 602 920 q 707 1019 695 1043 q 662 889 692 923 q 501 899 601 822 l 381 966 l 324 914 q 262 893 296 844 q 342 1025 330 1013 z "},"":{"ha":1039,"x_min":-126,"x_max":1074,"o":"m 1004 1311 q 1056 1273 1074 1311 q 686 1131 1039 1235 q 519 708 668 1027 q 382 167 382 257 l 396 157 l 406 157 q 743 271 473 157 l 895 300 q 956 276 956 290 q 709 191 913 249 l 382 62 q 344 -9 359 -9 l 330 -9 l 306 29 l 268 29 q -17 -109 164 29 q -98 -199 -62 -170 l -112 -199 q -126 -170 -126 -194 q 125 53 -126 -65 q 330 181 330 117 q 543 960 330 288 q 572 1078 572 1036 l 572 1102 l 567 1102 q 352 990 498 1076 q 130 860 205 905 l 125 860 q 87 903 87 860 q 472 1131 87 949 q 1004 1311 578 1189 m 433 1436 l 452 1436 q 775 1401 775 1436 q 785 1369 781 1401 q 752 1343 785 1343 q 549 1369 675 1369 l 511 1369 q 436 1372 475 1369 q 397 1414 397 1375 q 433 1436 397 1432 z "},"":{"ha":583,"x_min":-51,"x_max":640,"o":"m 384 712 q 412 669 406 712 q 332 432 412 612 q 303 304 303 364 q 408 81 336 81 l 427 76 l 446 76 q 616 176 517 76 l 626 176 l 640 161 l 640 147 q 417 0 515 0 q 237 204 300 0 l 237 237 q 256 422 237 309 l 251 422 q 58 109 207 376 q -3 75 25 75 q 24 212 -51 91 q 332 650 145 393 q 384 712 351 696 m 243 897 l 263 897 q 586 861 586 897 q 595 829 592 861 q 563 803 595 803 q 360 829 486 829 l 321 829 q 247 832 286 829 q 208 874 208 835 q 243 897 208 892 z "},"":{"ha":1039,"x_min":-126,"x_max":1074,"o":"m 1004 1311 q 1056 1273 1074 1311 q 686 1131 1039 1235 q 519 708 668 1027 q 382 167 382 257 l 396 157 l 406 157 q 743 271 473 157 l 895 300 q 956 276 956 290 q 709 191 913 249 l 382 62 q 344 -9 359 -9 l 330 -9 l 306 29 l 268 29 q -17 -109 164 29 q -98 -199 -62 -170 l -112 -199 q -126 -170 -126 -194 q 125 53 -126 -65 q 330 181 330 117 q 543 960 330 288 q 572 1078 572 1036 l 572 1102 l 567 1102 q 352 990 498 1076 q 130 860 205 905 l 125 860 q 87 903 87 860 q 472 1131 87 949 q 1004 1311 578 1189 m 531 1286 q 503 1301 531 1286 q 413 1430 475 1316 q 437 1444 424 1447 l 454 1438 q 635 1358 559 1303 q 733 1410 711 1413 q 763 1383 760 1396 q 652 1302 717 1348 q 531 1286 587 1256 z "},"":{"ha":583,"x_min":-51,"x_max":640,"o":"m 384 712 q 412 669 406 712 q 332 432 412 612 q 303 304 303 364 q 408 81 336 81 l 427 76 l 446 76 q 616 176 517 76 l 626 176 l 640 161 l 640 147 q 417 0 515 0 q 237 204 300 0 l 237 237 q 256 422 237 309 l 251 422 q 58 109 207 376 q -3 75 25 75 q 24 212 -51 91 q 332 650 145 393 q 384 712 351 696 m 398 911 q 370 926 398 911 q 279 1055 342 941 q 303 1070 290 1072 l 321 1064 q 502 984 426 929 q 600 1036 577 1039 q 629 1009 626 1021 q 518 927 583 973 q 398 911 454 882 z "},"":{"ha":1039,"x_min":-126,"x_max":1074,"o":"m 1004 1311 q 1056 1273 1074 1311 q 686 1131 1039 1235 q 519 708 668 1027 q 382 167 382 257 l 396 157 l 406 157 q 743 271 473 157 l 895 300 q 956 276 956 290 q 709 191 913 249 l 382 62 q 344 -9 359 -9 l 330 -9 l 306 29 l 268 29 q -17 -109 164 29 q -98 -199 -62 -170 l -112 -199 q -126 -170 -126 -194 q 125 53 -126 -65 q 330 181 330 117 q 543 960 330 288 q 572 1078 572 1036 l 572 1102 l 567 1102 q 352 990 498 1076 q 130 860 205 905 l 125 860 q 87 903 87 860 q 472 1131 87 949 q 1004 1311 578 1189 m 334 94 q 353 75 350 89 q 372 -61 441 3 q 309 -116 302 -125 q 350 -212 309 -209 l 388 -221 l 421 -221 q 495 -252 530 -211 q 374 -292 460 -292 q 252 -220 295 -292 q 330 -31 225 -108 q 292 79 281 79 l 334 94 z "},"":{"ha":583,"x_min":-51,"x_max":664,"o":"m 578 1073 q 664 1016 637 1073 q 631 987 664 987 q 536 1040 575 987 l 536 1049 q 578 1073 549 1073 m 384 712 q 412 669 406 712 q 332 432 412 612 q 303 304 303 364 q 408 81 336 81 l 427 76 l 446 76 q 616 176 517 76 l 626 176 l 640 161 l 640 147 q 417 0 515 0 q 237 204 300 0 l 237 237 q 256 422 237 309 l 251 422 q 58 109 207 376 q -3 75 25 75 q 24 212 -51 91 q 332 650 145 393 q 384 712 351 696 m 393 87 q 412 68 409 83 q 431 -67 500 -3 q 368 -122 361 -132 q 409 -218 368 -215 l 447 -227 l 480 -227 q 554 -258 589 -217 q 433 -298 519 -298 q 311 -227 354 -298 q 389 -37 284 -114 q 351 73 340 73 l 393 87 z "},"":{"ha":1039,"x_min":-126,"x_max":1074,"o":"m 1004 1311 q 1056 1273 1074 1311 q 686 1131 1039 1235 q 519 708 668 1027 q 382 167 382 257 l 396 157 l 406 157 q 743 271 473 157 l 895 300 q 956 276 956 290 q 709 191 913 249 l 382 62 q 344 -9 359 -9 l 330 -9 l 306 29 l 268 29 q -17 -109 164 29 q -98 -199 -62 -170 l -112 -199 q -126 -170 -126 -194 q 125 53 -126 -65 q 330 181 330 117 q 543 960 330 288 q 572 1078 572 1036 l 572 1102 l 567 1102 q 352 990 498 1076 q 130 860 205 905 l 125 860 q 87 903 87 860 q 472 1131 87 949 q 1004 1311 578 1189 m 672 1390 q 720 1315 709 1390 q 663 1288 708 1288 q 610 1333 610 1288 l 608 1333 q 672 1390 608 1382 z "},"":{"ha":0,"x_min":0,"x_max":0,"o":""},"":{"ha":0,"x_min":0,"x_max":0,"o":""},"":{"ha":874,"x_min":0,"x_max":1192,"o":"m 1097 1391 q 1192 1353 1192 1391 q 1016 1315 1192 1332 q 793 1192 793 1253 q 755 631 775 1072 q 631 95 688 177 q 470 0 565 0 q 57 532 214 0 l 52 560 q 85 598 58 598 q 138 494 138 598 q 323 128 138 389 q 470 71 389 71 q 688 574 640 71 l 707 964 q 684 1177 703 1177 q 209 978 328 1019 q 38 940 72 940 q 0 987 0 940 q 147 1030 0 1014 l 574 1196 q 945 1358 758 1310 q 1097 1391 1007 1391 m 661 1565 q 688 1524 682 1565 l 685 1442 l 685 1411 q 729 1337 685 1385 q 692 1313 723 1324 q 634 1360 666 1313 l 621 1411 l 624 1453 l 621 1456 l 616 1456 q 538 1384 607 1456 l 518 1381 q 494 1401 503 1381 q 648 1561 549 1519 l 661 1565 z "},"":{"ha":498,"x_min":-254,"x_max":477,"o":"m 268 608 l 277 607 q 450 228 400 507 q 450 -220 477 64 q 50 -1012 374 -896 l -13 -1020 q -243 -688 -204 -1002 q -244 -502 -254 -597 q -8 20 -212 -165 q 330 263 228 273 l 367 255 l 372 259 l 374 273 q 265 536 380 335 q 237 592 235 567 q 268 608 244 610 m -191 -497 q -85 -927 -218 -772 q -12 -954 -47 -949 q 212 -812 119 -966 q 401 -130 353 -638 q 368 212 423 207 l 358 213 q 26 -18 266 222 q -191 -497 -165 -220 m 345 953 q 372 912 366 953 l 369 831 l 369 800 q 413 725 369 773 q 376 701 407 712 q 318 749 350 701 l 304 800 l 308 841 l 304 844 l 300 844 q 222 772 291 844 l 202 769 q 178 789 187 769 q 332 949 233 907 l 345 953 z "},"":{"ha":937,"x_min":-13,"x_max":977,"o":"m 576 1347 l 585 1347 q 604 1314 595 1347 q 258 416 604 1283 q 443 649 427 603 q 858 1027 752 1027 l 877 1031 q 977 989 977 1022 q 820 918 977 918 q 524 597 741 907 q 443 454 443 498 l 443 445 q 614 369 463 416 q 732 241 732 296 q 794 -82 764 159 q 770 -111 787 -102 l 747 -111 q 680 184 690 -111 q 386 364 680 254 l 334 402 l 329 402 q 177 203 265 346 q 1 13 75 13 l -8 13 l -13 27 q 106 257 -13 62 q 471 1152 224 451 q 576 1347 541 1322 m 477 47 l 488 40 q 408 -62 488 28 q 300 -165 328 -143 l 286 -165 q 271 -139 279 -165 q 379 -22 271 -109 q 477 47 382 20 z "},"":{"ha":696,"x_min":-36,"x_max":728,"o":"m 344 1347 l 368 1347 q 387 1290 380 1347 q 182 312 387 1152 l 182 307 l 187 307 q 277 450 198 307 l 406 606 q 543 701 484 701 q 572 663 572 692 q 396 302 553 538 l 396 283 l 410 283 q 652 113 496 283 q 724 70 724 77 l 728 32 q 686 13 707 14 q 429 189 610 13 l 406 189 q 154 146 154 176 q -22 -144 34 -144 q -36 -115 -36 -139 q 106 236 -27 -66 q 301 1043 192 484 q 344 1347 313 1347 m 216 250 l 216 245 l 220 245 q 467 530 344 291 l 481 583 l 477 587 l 472 587 q 263 340 429 557 q 216 250 216 266 m 412 -34 l 422 -41 q 343 -144 422 -54 q 235 -246 262 -224 l 220 -246 q 205 -220 214 -246 q 314 -103 205 -190 q 412 -34 317 -62 z "},"":{"ha":696,"x_min":-36,"x_max":728,"o":"m 256 918 l 279 918 q 298 861 292 918 q 182 312 298 723 l 182 307 l 187 307 q 277 450 198 307 l 406 606 q 543 701 484 701 q 572 663 572 692 q 396 302 553 538 l 396 283 l 410 283 q 652 113 496 283 q 724 70 724 77 l 728 32 q 686 13 707 14 q 429 189 610 13 l 406 189 q 154 146 154 176 q -22 -144 34 -144 q -36 -115 -36 -139 q 106 236 -27 -66 q 213 614 192 484 q 256 918 224 918 m 216 250 l 216 245 l 220 245 q 467 530 344 291 l 481 583 l 477 587 l 472 587 q 263 340 429 557 q 216 250 216 266 z "},"":{"ha":1192,"x_min":-15,"x_max":1218,"o":"m 1006 1385 q 1029 1337 1029 1385 q 968 1166 1029 1267 q 600 610 937 1068 q 85 -77 262 153 l 85 -96 l 109 -96 q 683 132 336 -26 q 972 179 869 179 q 1177 108 1149 179 l 1177 94 q 1162 13 1177 57 l 1153 13 l 1039 79 q 958 103 989 103 q 431 -39 755 103 q 56 -182 162 -182 l 33 -182 q -15 -144 -15 -182 q 410 457 -15 -86 q 944 1299 836 1000 q 963 1356 954 1299 q 1006 1385 995 1385 m 1207 1295 l 1218 1287 q 1139 1185 1218 1275 q 1031 1082 1058 1104 l 1016 1082 q 1001 1108 1010 1082 q 1109 1225 1001 1139 q 1207 1295 1113 1267 z "},"":{"ha":696,"x_min":-103,"x_max":1060,"o":"m 734 1236 q 804 1185 800 1242 q 319 237 698 719 q 275 139 272 177 l 276 130 q 378 42 302 37 l 435 47 q 658 98 525 54 q 725 76 791 142 q 399 -42 500 -34 q 203 85 256 -53 l 188 98 l 183 98 q -64 -155 31 -124 q -100 -119 -92 -157 l -100 -110 q -52 -58 -103 -75 q 334 410 195 146 q 465 815 345 488 q 734 1236 584 1143 m 360 384 l 361 374 l 366 375 q 586 774 425 467 q 743 1123 746 1081 l 741 1147 l 731 1156 q 523 787 639 1091 q 377 409 407 483 l 360 384 m 1049 1310 l 1060 1303 q 981 1200 1060 1291 q 873 1098 900 1120 l 858 1098 q 843 1124 852 1098 q 951 1241 843 1154 q 1049 1310 955 1282 z "},"":{"ha":1192,"x_min":-15,"x_max":1177,"o":"m 1006 1385 q 1029 1337 1029 1385 q 968 1166 1029 1267 q 600 610 937 1068 q 85 -77 262 153 l 85 -96 l 109 -96 q 683 132 336 -26 q 972 179 869 179 q 1177 108 1149 179 l 1177 94 q 1162 13 1177 57 l 1153 13 l 1039 79 q 958 103 989 103 q 431 -39 755 103 q 56 -182 162 -182 l 33 -182 q -15 -144 -15 -182 q 410 457 -15 -86 q 944 1299 836 1000 q 963 1356 954 1299 q 1006 1385 995 1385 m 692 -135 l 703 -142 q 623 -245 703 -155 q 515 -347 543 -326 l 500 -347 q 486 -321 494 -347 q 594 -204 486 -291 q 692 -135 597 -163 z "},"":{"ha":696,"x_min":-103,"x_max":804,"o":"m 734 1236 q 804 1185 800 1242 q 319 237 698 719 q 275 139 272 177 l 276 130 q 378 42 302 37 l 435 47 q 658 98 525 54 q 725 76 791 142 q 399 -42 500 -34 q 203 85 256 -53 l 188 98 l 183 98 q -64 -155 31 -124 q -100 -119 -92 -157 l -100 -110 q -52 -58 -103 -75 q 334 410 195 146 q 465 815 345 488 q 734 1236 584 1143 m 360 384 l 361 374 l 366 375 q 586 774 425 467 q 743 1123 746 1081 l 741 1147 l 731 1156 q 523 787 639 1091 q 377 409 407 483 l 360 384 m 414 -187 l 425 -195 q 346 -297 425 -207 q 238 -399 265 -378 l 223 -399 q 208 -374 217 -399 q 317 -256 208 -343 q 414 -187 320 -215 z "},"":{"ha":1192,"x_min":-15,"x_max":1272,"o":"m 1006 1385 q 1029 1337 1029 1385 q 968 1166 1029 1267 q 600 610 937 1068 q 85 -77 262 153 l 85 -96 l 109 -96 q 683 132 336 -26 q 972 179 869 179 q 1177 108 1149 179 l 1177 94 q 1162 13 1177 57 l 1153 13 l 1039 79 q 958 103 989 103 q 431 -39 755 103 q 56 -182 162 -182 l 33 -182 q -15 -144 -15 -182 q 410 457 -15 -86 q 944 1299 836 1000 q 963 1356 954 1299 q 1006 1385 995 1385 m 1105 1058 q 1078 1099 1084 1058 l 1081 1180 l 1081 1211 q 1037 1286 1081 1238 q 1074 1310 1043 1299 q 1132 1262 1100 1310 l 1145 1211 l 1142 1170 l 1145 1166 l 1149 1166 q 1227 1238 1159 1166 l 1248 1242 q 1272 1221 1263 1242 q 1118 1061 1217 1103 l 1105 1058 z "},"":{"ha":696,"x_min":-103,"x_max":1040,"o":"m 734 1236 q 804 1185 800 1242 q 319 237 698 719 q 275 139 272 177 l 276 130 q 378 42 302 37 l 435 47 q 658 98 525 54 q 725 76 791 142 q 399 -42 500 -34 q 203 85 256 -53 l 188 98 l 183 98 q -64 -155 31 -124 q -100 -119 -92 -157 l -100 -110 q -52 -58 -103 -75 q 334 410 195 146 q 465 815 345 488 q 734 1236 584 1143 m 360 384 l 361 374 l 366 375 q 586 774 425 467 q 743 1123 746 1081 l 741 1147 l 731 1156 q 523 787 639 1091 q 377 409 407 483 l 360 384 m 873 1074 q 846 1114 852 1074 l 849 1196 l 849 1227 q 805 1301 849 1253 q 842 1325 811 1314 q 900 1278 868 1325 l 913 1227 l 910 1185 l 913 1182 l 917 1182 q 996 1254 927 1182 l 1016 1257 q 1040 1237 1031 1257 q 886 1077 985 1119 l 873 1074 z "},"":{"ha":1192,"x_min":-15,"x_max":1177,"o":"m 1006 1385 q 1029 1337 1029 1385 q 968 1166 1029 1267 q 600 610 937 1068 q 85 -77 262 153 l 85 -96 l 109 -96 q 683 132 336 -26 q 972 179 869 179 q 1177 108 1149 179 l 1177 94 q 1162 13 1177 57 l 1153 13 l 1039 79 q 958 103 989 103 q 431 -39 755 103 q 56 -182 162 -182 l 33 -182 q -15 -144 -15 -182 q 410 457 -15 -86 q 944 1299 836 1000 q 963 1356 954 1299 q 1006 1385 995 1385 m 1018 1064 q 1065 989 1055 1064 q 1009 962 1054 962 q 956 1008 956 962 l 954 1008 q 1018 1064 954 1057 z "},"":{"ha":696,"x_min":-103,"x_max":889,"o":"m 734 1236 q 804 1185 800 1242 q 319 237 698 719 q 275 139 272 177 l 276 130 q 378 42 302 37 l 435 47 q 658 98 525 54 q 725 76 791 142 q 399 -42 500 -34 q 203 85 256 -53 l 188 98 l 183 98 q -64 -155 31 -124 q -100 -119 -92 -157 l -100 -110 q -52 -58 -103 -75 q 334 410 195 146 q 465 815 345 488 q 734 1236 584 1143 m 360 384 l 361 374 l 366 375 q 586 774 425 467 q 743 1123 746 1081 l 741 1147 l 731 1156 q 523 787 639 1091 q 377 409 407 483 l 360 384 m 842 1061 q 889 986 879 1061 q 833 959 878 959 q 780 1004 780 959 l 777 1004 q 842 1061 777 1053 z "},"":{"ha":1192,"x_min":-15,"x_max":1177,"o":"m 1006 1385 q 1029 1337 1029 1385 q 968 1166 1029 1267 q 600 610 937 1068 q 85 -77 262 153 l 85 -96 l 109 -96 q 683 132 336 -26 q 972 179 869 179 q 1177 108 1149 179 l 1177 94 q 1162 13 1177 57 l 1153 13 l 1039 79 q 958 103 989 103 q 431 -39 755 103 q 56 -182 162 -182 l 33 -182 q -15 -144 -15 -182 q 410 457 -15 -86 q 944 1299 836 1000 q 963 1356 954 1299 q 1006 1385 995 1385 m 585 874 l 604 880 q 1064 1002 1053 1036 q 1083 975 1070 1004 q 1061 940 1091 950 q 859 901 979 940 l 823 888 q 680 841 789 878 q 558 842 570 804 q 585 874 553 859 z "},"":{"ha":696,"x_min":-103,"x_max":905,"o":"m 734 1236 q 804 1185 800 1242 q 319 237 698 719 q 275 139 272 177 l 276 130 q 378 42 302 37 l 435 47 q 658 98 525 54 q 725 76 791 142 q 399 -42 500 -34 q 203 85 256 -53 l 188 98 l 183 98 q -64 -155 31 -124 q -100 -119 -92 -157 l -100 -110 q -52 -58 -103 -75 q 334 410 195 146 q 465 815 345 488 q 734 1236 584 1143 m 360 384 l 361 374 l 366 375 q 586 774 425 467 q 743 1123 746 1081 l 741 1147 l 731 1156 q 523 787 639 1091 q 377 409 407 483 l 360 384 m 386 832 l 403 840 q 871 1012 856 1044 q 895 987 877 1015 q 877 950 905 964 q 520 822 795 939 l 485 805 q 417 775 454 789 q 363 796 381 761 q 386 832 355 812 z "},"":{"ha":1084,"x_min":7,"x_max":1184,"o":"m 485 1285 q 507 1285 485 1285 q 532 1254 530 1286 q 498 760 502 890 l 507 551 q 592 101 539 163 q 651 82 623 80 q 881 464 747 90 q 1090 1166 961 638 l 1125 1233 q 1171 1200 1168 1236 q 1113 945 1174 1164 q 924 406 1051 726 q 757 68 842 197 q 629 -1 696 5 q 444 508 488 -12 l 441 541 q 447 970 428 692 l 446 1037 q 430 1059 441 1060 l 425 1059 q 205 450 400 962 q 68 69 99 71 l 64 68 q 9 102 31 66 q 135 434 7 116 q 271 750 167 537 q 433 1198 286 814 q 485 1285 441 1284 m 1173 1493 l 1184 1485 q 1105 1383 1184 1473 q 997 1280 1024 1302 l 982 1280 q 967 1306 976 1280 q 1076 1423 967 1337 q 1173 1493 1079 1465 z "},"":{"ha":602,"x_min":-3,"x_max":705,"o":"m 173 688 q 249 422 249 688 l 249 403 l 258 393 l 268 393 l 320 479 q 524 659 439 631 q 586 574 586 623 l 489 29 l 489 24 q 513 -109 513 -69 q 494 -137 513 -132 q 413 1 413 -73 l 500 474 l 505 541 l 500 564 l 486 564 q 296 317 387 475 q 157 53 199 134 l 85 5 q 62 39 62 12 q 128 200 62 60 q 182 507 182 413 q 130 578 173 578 l 121 578 q 40 541 92 578 l 31 541 q -3 597 14 541 q 173 688 -3 630 m 694 975 l 705 968 q 626 865 705 956 q 518 763 545 785 l 503 763 q 488 789 497 763 q 597 906 488 819 q 694 975 600 947 z "},"":{"ha":1084,"x_min":7,"x_max":1174,"o":"m 485 1285 q 507 1285 485 1285 q 532 1254 530 1286 q 498 760 502 890 l 507 551 q 592 101 539 163 q 651 82 623 80 q 881 464 747 90 q 1090 1166 961 638 l 1125 1233 q 1171 1200 1168 1236 q 1113 945 1174 1164 q 924 406 1051 726 q 757 68 842 197 q 629 -1 696 5 q 444 508 488 -12 l 441 541 q 447 970 428 692 l 446 1037 q 430 1059 441 1060 l 425 1059 q 205 450 400 962 q 68 69 99 71 l 64 68 q 9 102 31 66 q 135 434 7 116 q 271 750 167 537 q 433 1198 286 814 q 485 1285 441 1284 m 486 -1 l 497 -9 q 418 -111 497 -21 q 310 -214 337 -192 l 295 -214 q 280 -188 289 -214 q 389 -71 280 -157 q 486 -1 392 -29 z "},"":{"ha":602,"x_min":-3,"x_max":586,"o":"m 173 688 q 249 422 249 688 l 249 403 l 258 393 l 268 393 l 320 479 q 524 659 439 631 q 586 574 586 623 l 489 29 l 489 24 q 513 -109 513 -69 q 494 -137 513 -132 q 413 1 413 -73 l 500 474 l 505 541 l 500 564 l 486 564 q 296 317 387 475 q 157 53 199 134 l 85 5 q 62 39 62 12 q 128 200 62 60 q 182 507 182 413 q 130 578 173 578 l 121 578 q 40 541 92 578 l 31 541 q -3 597 14 541 q 173 688 -3 630 m 292 -174 l 302 -182 q 223 -284 302 -194 q 115 -387 142 -365 l 100 -387 q 85 -361 94 -387 q 194 -243 85 -330 q 292 -174 197 -202 z "},"":{"ha":1084,"x_min":7,"x_max":1174,"o":"m 485 1285 q 507 1285 485 1285 q 532 1254 530 1286 q 498 760 502 890 l 507 551 q 592 101 539 163 q 651 82 623 80 q 881 464 747 90 q 1090 1166 961 638 l 1125 1233 q 1171 1200 1168 1236 q 1113 945 1174 1164 q 924 406 1051 726 q 757 68 842 197 q 629 -1 696 5 q 444 508 488 -12 l 441 541 q 447 970 428 692 l 446 1037 q 430 1059 441 1060 l 425 1059 q 205 450 400 962 q 68 69 99 71 l 64 68 q 9 102 31 66 q 135 434 7 116 q 271 750 167 537 q 433 1198 286 814 q 485 1285 441 1284 m 832 1267 q 805 1308 811 1267 l 808 1390 l 808 1421 q 764 1495 808 1447 q 802 1519 770 1508 q 859 1472 827 1519 l 873 1421 l 869 1379 l 873 1376 l 876 1376 q 955 1448 886 1376 l 975 1451 q 999 1431 990 1451 q 846 1271 945 1313 l 832 1267 z "},"":{"ha":602,"x_min":-3,"x_max":589,"o":"m 173 688 q 249 422 249 688 l 249 403 l 258 393 l 268 393 l 320 479 q 524 659 439 631 q 586 574 586 623 l 489 29 l 489 24 q 513 -109 513 -69 q 494 -137 513 -132 q 413 1 413 -73 l 500 474 l 505 541 l 500 564 l 486 564 q 296 317 387 475 q 157 53 199 134 l 85 5 q 62 39 62 12 q 128 200 62 60 q 182 507 182 413 q 130 578 173 578 l 121 578 q 40 541 92 578 l 31 541 q -3 597 14 541 q 173 688 -3 630 m 422 766 q 395 807 401 766 l 398 888 l 398 920 q 354 994 398 946 q 391 1018 360 1007 q 449 970 417 1018 l 463 920 l 459 878 l 463 875 l 466 875 q 545 947 476 875 l 565 950 q 589 930 580 950 q 435 770 534 812 l 422 766 z "},"":{"ha":657,"x_min":-34,"x_max":642,"o":"m 229 688 q 304 422 304 688 l 304 403 l 314 393 l 323 393 l 376 479 q 580 659 494 631 q 642 574 642 623 l 545 29 l 545 24 q 568 -109 568 -69 q 549 -137 568 -132 q 469 1 469 -73 l 556 474 l 561 541 l 556 564 l 542 564 q 352 317 442 475 q 212 53 254 134 l 141 5 q 117 39 117 12 q 184 200 117 60 q 238 507 238 413 q 186 578 229 578 l 176 578 q 96 541 146 578 l 86 541 q 53 597 70 541 q 229 688 53 630 m 113 831 l 125 827 q 83 705 130 816 q 12 574 31 603 l -2 569 q -24 589 -8 568 q 42 734 -34 618 q 113 831 32 774 z "},"":{"ha":1084,"x_min":7,"x_max":1174,"o":"m 485 1285 q 507 1285 485 1285 q 532 1254 530 1286 q 498 760 502 890 l 507 551 q 592 101 539 163 q 651 82 623 80 q 881 464 747 90 q 1090 1166 961 638 l 1125 1233 q 1171 1200 1168 1236 q 1113 945 1174 1164 q 924 406 1051 726 q 757 68 842 197 q 629 -1 696 5 q 444 508 488 -12 l 441 541 q 447 970 428 692 l 446 1037 q 430 1059 441 1060 l 425 1059 q 205 450 400 962 q 68 69 99 71 l 64 68 q 9 102 31 66 q 135 434 7 116 q 271 750 167 537 q 433 1198 286 814 q 485 1285 441 1284 m 791 144 q 753 34 802 144 q 831 -155 857 -43 q 709 -227 787 -227 q 587 -186 622 -227 q 661 -156 553 -146 l 694 -156 l 732 -146 q 774 -51 774 -144 q 711 4 781 -60 q 729 140 641 68 q 748 159 732 154 l 791 144 z "},"":{"ha":602,"x_min":-3,"x_max":586,"o":"m 173 688 q 249 422 249 688 l 249 403 l 258 393 l 268 393 l 320 479 q 524 659 439 631 q 586 574 586 623 l 489 29 l 489 24 q 413 1 413 -73 l 500 474 l 505 541 l 500 564 l 486 564 q 296 317 387 475 q 157 53 199 134 l 85 5 q 62 39 62 12 q 128 200 62 60 q 182 507 182 413 q 130 578 173 578 l 121 578 q 40 541 92 578 l 31 541 q -3 597 14 541 q 173 688 -3 630 m 513 79 q 475 -31 524 79 q 553 -220 580 -108 q 431 -292 510 -292 q 310 -252 345 -292 q 384 -221 275 -211 l 417 -221 l 455 -212 q 496 -116 496 -209 q 433 -61 503 -125 q 452 75 363 3 q 471 94 455 89 l 513 79 z "},"":{"ha":954,"x_min":35,"x_max":1019,"o":"m 764 1318 q 1016 1086 1016 1277 q 603 252 1016 766 q 228 0 384 0 l 218 0 q 47 204 47 0 l 47 209 q 66 545 35 362 q 280 1010 97 728 q 404 1176 303 1059 q 465 1223 421 1223 q 764 1318 567 1318 m 119 223 l 119 214 q 228 76 119 76 l 271 76 q 627 356 394 76 q 891 802 829 641 q 954 1053 954 964 q 779 1242 954 1185 l 707 1247 q 532 1176 575 1247 q 465 1105 522 1105 q 266 820 415 1105 q 128 370 128 537 q 119 223 119 344 m 667 1440 l 686 1440 q 1009 1404 1009 1440 q 1019 1372 1015 1404 q 986 1346 1019 1346 q 783 1372 909 1372 l 745 1372 q 670 1375 709 1372 q 631 1417 631 1378 q 667 1440 631 1436 z "},"":{"ha":612,"x_min":8,"x_max":764,"o":"m 61 271 q 87 321 61 271 q 326 608 114 372 q 535 698 441 684 q 682 603 682 670 q 312 100 682 469 q 84 -9 170 -9 q 8 114 8 8 l 8 133 q 61 271 8 170 m 160 104 q 174 85 168 85 q 564 460 269 85 q 606 565 606 533 l 606 579 q 568 603 594 603 l 535 603 q 227 351 407 603 q 160 104 160 231 m 94 185 l 84 138 l 84 100 q 98 71 87 71 l 108 71 l 113 95 l 113 128 l 108 185 l 94 185 m 412 811 l 432 811 q 755 776 755 811 q 764 743 761 776 q 732 718 764 718 q 529 743 654 743 l 490 743 q 416 746 455 743 q 377 789 377 749 q 412 811 377 807 z "},"":{"ha":954,"x_min":35,"x_max":1026,"o":"m 764 1318 q 1016 1086 1016 1277 q 603 252 1016 766 q 228 0 384 0 l 218 0 q 47 204 47 0 l 47 209 q 66 545 35 362 q 280 1010 97 728 q 404 1176 303 1059 q 465 1223 421 1223 q 764 1318 567 1318 m 119 223 l 119 214 q 228 76 119 76 l 271 76 q 627 356 394 76 q 891 802 829 641 q 954 1053 954 964 q 779 1242 954 1185 l 707 1247 q 532 1176 575 1247 q 465 1105 522 1105 q 266 820 415 1105 q 128 370 128 537 q 119 223 119 344 m 794 1383 q 766 1398 794 1383 q 676 1527 739 1413 q 700 1542 687 1544 l 718 1536 q 898 1456 823 1401 q 996 1508 974 1511 q 1026 1481 1023 1493 q 915 1399 980 1445 q 794 1383 850 1354 m 794 1383 q 766 1398 794 1383 q 676 1527 739 1413 q 700 1542 687 1544 l 718 1536 q 898 1456 823 1401 q 996 1508 974 1511 q 1026 1481 1023 1493 q 915 1399 980 1445 q 794 1383 850 1354 z "},"":{"ha":612,"x_min":8,"x_max":791,"o":"m 61 271 q 87 321 61 271 q 326 608 114 372 q 535 698 441 684 q 682 603 682 670 q 312 100 682 469 q 84 -9 170 -9 q 8 114 8 8 l 8 133 q 61 271 8 170 m 160 104 q 174 85 168 85 q 564 460 269 85 q 606 565 606 533 l 606 579 q 568 603 594 603 l 535 603 q 227 351 407 603 q 160 104 160 231 m 94 185 l 84 138 l 84 100 q 98 71 87 71 l 108 71 l 113 95 l 113 128 l 108 185 l 94 185 m 560 765 q 532 780 560 765 q 441 909 504 795 q 465 924 452 926 l 483 918 q 664 838 588 783 q 762 889 739 892 q 791 863 788 875 q 681 781 745 827 q 560 765 616 735 z "},"":{"ha":954,"x_min":35,"x_max":1132,"o":"m 764 1318 q 1016 1086 1016 1277 q 603 252 1016 766 q 228 0 384 0 l 218 0 q 47 204 47 0 l 47 209 q 66 545 35 362 q 280 1010 97 728 q 404 1176 303 1059 q 465 1223 421 1223 q 764 1318 567 1318 m 119 223 l 119 214 q 228 76 119 76 l 271 76 q 627 356 394 76 q 891 802 829 641 q 954 1053 954 964 q 779 1242 954 1185 l 707 1247 q 532 1176 575 1247 q 465 1105 522 1105 q 266 820 415 1105 q 128 370 128 537 q 119 223 119 344 m 978 1590 l 989 1583 q 909 1480 989 1571 q 802 1378 829 1400 l 787 1378 q 772 1404 781 1378 q 880 1521 772 1434 q 978 1590 884 1563 m 1121 1577 l 1132 1570 q 1053 1468 1132 1558 q 945 1365 972 1387 l 930 1365 q 915 1391 924 1365 q 1023 1508 915 1421 q 1121 1577 1027 1550 z "},"":{"ha":612,"x_min":8,"x_max":790,"o":"m 61 271 q 87 321 61 271 q 326 608 114 372 q 535 698 441 684 q 682 603 682 670 q 312 100 682 469 q 84 -9 170 -9 q 8 114 8 8 l 8 133 q 61 271 8 170 m 160 104 q 174 85 168 85 q 564 460 269 85 q 606 565 606 533 l 606 579 q 568 603 594 603 l 535 603 q 227 351 407 603 q 160 104 160 231 m 94 185 l 84 138 l 84 100 q 98 71 87 71 l 108 71 l 113 95 l 113 128 l 108 185 l 94 185 m 779 1011 l 790 1004 q 711 901 790 991 q 603 799 630 821 l 588 799 q 573 825 582 799 q 682 942 573 855 q 779 1011 685 983 m 675 1053 l 686 1046 q 607 943 686 1034 q 499 841 526 863 l 484 841 q 469 867 478 841 q 578 984 469 897 q 675 1053 581 1025 z "},"":{"ha":1803,"x_min":35,"x_max":1745,"o":"m 764 1318 q 1016 1086 1016 1277 q 603 252 1016 766 q 228 0 384 0 l 218 0 q 47 204 47 0 l 47 209 q 66 545 35 362 q 280 1010 97 728 q 404 1176 303 1059 q 465 1223 421 1223 q 764 1318 567 1318 m 119 223 l 119 214 q 228 76 119 76 l 271 76 q 627 356 394 76 q 891 802 829 641 q 954 1053 954 964 q 779 1242 954 1185 l 707 1247 q 532 1176 575 1247 q 465 1105 522 1105 q 266 820 415 1105 q 128 370 128 537 q 119 223 119 344 m 1569 1394 l 1584 1394 q 1745 1299 1745 1376 l 1721 1238 l 1716 1238 q 1693 1304 1710 1238 q 1565 1337 1657 1337 l 1536 1337 q 1133 1152 1371 1295 q 1017 806 1133 1084 l 1140 849 l 1316 897 l 1430 906 l 1477 906 q 1738 878 1738 906 l 1738 868 q 1382 825 1738 846 q 1074 730 1074 783 q 841 479 929 730 q 808 317 808 390 l 808 284 q 1007 118 808 181 l 1031 118 q 1434 208 1146 118 l 1520 265 l 1534 265 l 1539 251 q 1045 47 1539 120 l 960 42 q 760 161 868 42 q 732 256 733 209 q 822 574 732 361 l 822 583 l 812 593 l 722 588 q 703 602 703 595 l 703 616 q 884 749 703 658 q 1038 1124 921 749 l 1038 1138 l 1033 1138 l 943 1119 q 914 1166 921 1119 q 1128 1247 914 1202 q 1569 1394 1493 1394 z "},"":{"ha":908,"x_min":8,"x_max":977,"o":"m 61 271 q 87 321 61 271 q 326 608 114 372 q 535 698 441 684 q 682 603 682 670 q 312 100 682 469 q 84 -9 170 -9 q 8 114 8 8 l 8 133 q 61 271 8 170 m 160 104 q 174 85 168 85 q 564 460 269 85 q 606 565 606 533 l 606 579 q 568 603 594 603 l 535 603 q 227 351 407 603 q 160 104 160 231 m 94 185 l 84 138 l 84 100 q 98 71 87 71 l 108 71 l 113 95 l 113 128 l 108 185 l 94 185 m 786 693 q 838 641 824 693 q 777 488 838 587 q 617 320 715 390 q 520 195 520 251 l 520 176 q 610 95 520 117 l 634 90 l 691 90 q 954 194 756 90 l 968 208 l 977 199 l 977 161 q 909 87 977 127 q 648 9 840 47 l 644 9 q 425 161 425 35 l 411 161 q 264 62 318 71 l 245 76 q 311 138 245 109 q 487 370 459 258 q 652 605 558 516 q 786 693 747 693 m 587 432 l 587 418 l 596 418 q 762 598 644 418 l 753 598 q 587 432 673 541 z "},"":{"ha":870,"x_min":-24,"x_max":1025,"o":"m 821 1329 l 849 1329 q 1025 1210 1025 1329 q 692 673 1025 996 q 317 431 530 513 l 317 417 q 702 23 673 107 q 678 -1 702 4 q 336 294 641 -1 q 208 355 235 355 q 99 56 165 302 l 99 42 q 123 33 123 41 q 18 -138 123 -27 l -1 -143 q -24 -115 -24 -136 l 113 279 q 137 336 137 299 l 137 360 q 80 393 133 374 l 66 427 q 132 469 66 469 q 189 512 189 469 q 412 1025 357 1025 q 431 1006 428 1020 l 251 512 q 237 493 237 512 l 241 488 l 275 488 q 726 778 393 488 q 944 1177 944 1015 l 944 1196 q 821 1267 944 1267 q 412 1148 667 1267 q 104 859 134 956 l 104 825 l 109 797 l 94 783 l 94 778 q 14 844 35 800 l 9 863 q 265 1110 45 958 q 616 1286 346 1178 q 821 1329 750 1329 m 978 1590 l 989 1583 q 909 1480 989 1571 q 802 1378 829 1400 l 787 1378 q 772 1404 781 1378 q 880 1521 772 1434 q 978 1590 884 1563 z "},"":{"ha":698,"x_min":-18,"x_max":772,"o":"m 533 725 q 566 682 566 717 l 467 227 l 452 103 q 476 37 458 37 l 495 37 q 768 201 574 37 l 772 196 l 772 153 q 566 -11 772 114 q 481 -49 548 -31 q 386 56 386 -14 l 386 65 q 476 578 386 176 l 476 602 l 467 602 q 224 317 275 414 q 139 151 171 231 q 6 32 72 32 q -18 51 -16 41 l -18 65 q 172 326 -18 85 q 533 725 441 725 m 743 1108 l 754 1101 q 675 998 754 1088 q 567 896 594 918 l 552 896 q 537 922 546 896 q 646 1039 537 952 q 743 1108 649 1080 z "},"":{"ha":870,"x_min":-24,"x_max":1025,"o":"m 821 1329 l 849 1329 q 1025 1210 1025 1329 q 692 673 1025 996 q 317 431 530 513 l 317 417 q 702 23 673 107 q 678 -1 702 4 q 336 294 641 -1 q 208 355 235 355 q 99 56 165 302 l 99 42 q 123 33 123 41 q 18 -138 123 -27 l -1 -143 q -24 -115 -24 -136 l 113 279 q 137 336 137 299 l 137 360 q 80 393 133 374 l 66 427 q 132 469 66 469 q 189 512 189 469 q 412 1025 357 1025 q 431 1006 428 1020 l 251 512 q 237 493 237 512 l 241 488 l 275 488 q 726 778 393 488 q 944 1177 944 1015 l 944 1196 q 821 1267 944 1267 q 412 1148 667 1267 q 104 859 134 956 l 104 825 l 109 797 l 94 783 l 94 778 q 14 844 35 800 l 9 863 q 265 1110 45 958 q 616 1286 346 1178 q 821 1329 750 1329 m 421 -34 l 432 -41 q 353 -144 432 -54 q 245 -246 272 -224 l 230 -246 q 215 -220 224 -246 q 323 -103 215 -190 q 421 -34 327 -62 z "},"":{"ha":698,"x_min":-18,"x_max":772,"o":"m 533 725 q 566 682 566 717 l 467 227 l 452 103 q 476 37 458 37 l 495 37 q 768 201 574 37 l 772 196 l 772 153 q 566 -11 772 114 q 481 -49 548 -31 q 386 56 386 -14 l 386 65 q 476 578 386 176 l 476 602 l 467 602 q 224 317 275 414 q 139 151 171 231 q 6 32 72 32 q -18 51 -16 41 l -18 65 q 172 326 -18 85 q 533 725 441 725 m 376 -21 l 387 -28 q 307 -131 387 -41 q 199 -233 227 -212 l 184 -233 q 170 -208 178 -233 q 278 -90 170 -177 q 376 -21 281 -49 z "},"":{"ha":870,"x_min":-24,"x_max":1025,"o":"m 821 1329 l 849 1329 q 1025 1210 1025 1329 q 692 673 1025 996 q 317 431 530 513 l 317 417 q 702 23 673 107 q 678 -1 702 4 q 336 294 641 -1 q 208 355 235 355 q 99 56 165 302 l 99 42 q 123 33 123 41 q 18 -138 123 -27 l -1 -143 q -24 -115 -24 -136 l 113 279 q 137 336 137 299 l 137 360 q 80 393 133 374 l 66 427 q 132 469 66 469 q 189 512 189 469 q 412 1025 357 1025 q 431 1006 428 1020 l 251 512 q 237 493 237 512 l 241 488 l 275 488 q 726 778 393 488 q 944 1177 944 1015 l 944 1196 q 821 1267 944 1267 q 412 1148 667 1267 q 104 859 134 956 l 104 825 l 109 797 l 94 783 l 94 778 q 14 844 35 800 l 9 863 q 265 1110 45 958 q 616 1286 346 1178 q 821 1329 750 1329 m 667 1326 q 640 1367 646 1326 l 643 1448 l 643 1479 q 599 1554 643 1506 q 636 1577 605 1567 q 694 1530 662 1577 l 707 1479 l 704 1438 l 707 1434 l 711 1434 q 789 1506 721 1434 l 810 1510 q 833 1489 825 1510 q 680 1329 779 1371 l 667 1326 z "},"":{"ha":698,"x_min":-18,"x_max":772,"o":"m 533 725 q 566 682 566 717 l 467 227 l 452 103 q 476 37 458 37 l 495 37 q 768 201 574 37 l 772 196 l 772 153 q 566 -11 772 114 q 481 -49 548 -31 q 386 56 386 -14 l 386 65 q 476 578 386 176 l 476 602 l 467 602 q 224 317 275 414 q 139 151 171 231 q 6 32 72 32 q -18 51 -16 41 l -18 65 q 172 326 -18 85 q 533 725 441 725 m 513 819 q 486 859 492 819 l 490 941 l 490 972 q 446 1046 490 998 q 483 1070 452 1059 q 541 1023 509 1070 l 554 972 l 551 930 l 554 927 l 557 927 q 636 999 568 927 l 656 1002 q 680 982 671 1002 q 527 822 626 864 l 513 819 z "},"":{"ha":979,"x_min":12,"x_max":953,"o":"m 728 1326 q 828 1227 828 1312 q 728 1089 792 1089 l 719 1103 l 743 1232 l 743 1236 l 733 1246 q 382 1132 538 1246 q 315 1075 328 1104 l 315 1046 q 676 885 315 954 q 923 671 893 801 q 909 432 953 542 q 610 135 866 322 q 235 -17 354 -17 q 16 135 80 -17 l 12 182 q 140 415 12 357 l 168 420 l 173 415 l 173 406 q 87 244 87 328 l 87 220 q 197 73 111 73 l 320 73 q 690 263 422 73 q 874 583 882 448 q 771 762 866 717 q 448 861 659 822 q 258 947 314 891 q 201 1046 212 994 q 294 1175 201 1128 q 520 1274 387 1222 q 728 1326 652 1326 m 825 1584 l 836 1577 q 757 1474 836 1565 q 649 1372 676 1394 l 634 1372 q 619 1398 628 1372 q 728 1515 619 1428 q 825 1584 731 1556 z "},"":{"ha":605,"x_min":-52,"x_max":718,"o":"m 508 766 q 541 723 541 751 l 484 595 q 418 329 418 417 q 484 172 441 172 l 489 168 l 494 168 q 555 49 555 118 q 385 -75 555 -37 l 342 -79 l 328 -79 q 261 -56 261 -76 l 261 -51 q 408 106 261 -24 l 413 111 l 413 115 q 332 376 332 286 l 328 381 l 323 381 q 182 224 279 349 q -24 23 53 23 l -33 23 l -52 47 l -52 75 q 19 118 -45 98 q 228 353 113 208 q 427 694 406 594 q 508 766 471 766 m 707 1138 l 718 1131 q 639 1028 718 1118 q 531 926 558 947 l 516 926 q 501 951 510 926 q 610 1069 501 982 q 707 1138 613 1110 z "},"":{"ha":979,"x_min":12,"x_max":953,"o":"m 728 1326 q 828 1227 828 1312 q 728 1089 792 1089 l 719 1103 l 743 1232 l 743 1236 l 733 1246 q 382 1132 538 1246 q 315 1075 328 1104 l 315 1046 q 676 885 315 954 q 923 671 893 801 q 909 432 953 542 q 610 135 866 322 q 235 -17 354 -17 q 16 135 80 -17 l 12 182 q 140 415 12 357 l 168 420 l 173 415 l 173 406 q 87 244 87 328 l 87 220 q 197 73 111 73 l 320 73 q 690 263 422 73 q 874 583 882 448 q 771 762 866 717 q 448 861 659 822 q 258 947 314 891 q 201 1046 212 994 q 294 1175 201 1128 q 520 1274 387 1222 q 728 1326 652 1326 m 729 1558 q 756 1517 750 1558 l 753 1436 l 753 1404 q 797 1330 753 1378 q 760 1306 791 1317 q 702 1354 734 1306 l 688 1404 l 692 1446 l 688 1449 l 684 1449 q 606 1377 675 1449 l 586 1374 q 562 1394 571 1374 q 715 1554 616 1512 l 729 1558 z "},"":{"ha":605,"x_min":-52,"x_max":667,"o":"m 508 766 q 541 723 541 751 l 484 595 q 418 329 418 417 q 484 172 441 172 l 489 168 l 494 168 q 555 49 555 118 q 385 -75 555 -37 l 342 -79 l 328 -79 q 261 -56 261 -76 l 261 -51 q 408 106 261 -24 l 413 111 l 413 115 q 332 376 332 286 l 328 381 l 323 381 q 182 224 279 349 q -24 23 53 23 l -33 23 l -52 47 l -52 75 q 19 118 -45 98 q 228 353 113 208 q 427 694 406 594 q 508 766 471 766 m 600 1181 q 627 1140 621 1181 l 623 1059 l 623 1027 q 667 953 623 1001 q 630 929 661 940 q 572 977 604 929 l 559 1027 l 562 1069 l 559 1072 l 555 1072 q 477 1000 545 1072 l 456 997 q 433 1017 441 997 q 586 1177 487 1135 l 600 1181 z "},"":{"ha":979,"x_min":12,"x_max":953,"o":"m 728 1326 q 828 1227 828 1312 q 728 1089 792 1089 l 719 1103 l 743 1232 l 743 1236 l 733 1246 q 382 1132 538 1246 q 315 1075 328 1104 l 315 1046 q 676 885 315 954 q 923 671 893 801 q 909 432 953 542 q 610 135 866 322 q 235 -17 354 -17 q 16 135 80 -17 l 12 182 q 140 415 12 357 l 168 420 l 173 415 l 173 406 q 87 244 87 328 l 87 220 q 197 73 111 73 l 320 73 q 690 263 422 73 q 874 583 882 448 q 771 762 866 717 q 448 861 659 822 q 258 947 314 891 q 201 1046 212 994 q 294 1175 201 1128 q 520 1274 387 1222 q 728 1326 652 1326 m 306 24 q 268 -87 317 24 q 346 -276 372 -163 q 224 -348 302 -348 q 102 -307 137 -348 q 176 -277 68 -267 l 210 -277 l 248 -267 q 289 -172 289 -264 q 226 -117 296 -181 q 244 19 156 -53 q 263 38 248 33 l 306 24 z "},"":{"ha":605,"x_min":-52,"x_max":555,"o":"m 508 766 q 541 723 541 751 l 484 595 q 418 329 418 417 q 484 172 441 172 l 489 168 l 494 168 q 555 49 555 118 q 385 -75 555 -37 l 342 -79 l 328 -79 q 261 -56 261 -76 l 261 -51 q 408 106 261 -24 l 413 111 l 413 115 q 332 376 332 286 l 328 381 l 323 381 q 182 224 279 349 q -24 23 53 23 l -33 23 l -52 47 l -52 75 q 19 118 -45 98 q 228 353 113 208 q 427 694 406 594 q 508 766 471 766 m 442 -22 q 404 -132 453 -22 q 482 -321 509 -209 q 360 -393 439 -393 q 239 -353 273 -393 q 313 -322 204 -312 l 346 -322 l 384 -313 q 425 -217 425 -310 q 362 -162 432 -227 q 380 -26 292 -98 q 399 -7 384 -12 l 442 -22 z "},"":{"ha":979,"x_min":12,"x_max":953,"o":"m 728 1326 q 828 1227 828 1312 q 728 1089 792 1089 l 719 1103 l 743 1232 l 743 1236 l 733 1246 q 382 1132 538 1246 q 315 1075 328 1104 l 315 1046 q 676 885 315 954 q 923 671 893 801 q 909 432 953 542 q 610 135 866 322 q 235 -17 354 -17 q 16 135 80 -17 l 12 182 q 140 415 12 357 l 168 420 l 173 415 l 173 406 q 87 244 87 328 l 87 220 q 197 73 111 73 l 320 73 q 690 263 422 73 q 874 583 882 448 q 771 762 866 717 q 448 861 659 822 q 258 947 314 891 q 201 1046 212 994 q 294 1175 201 1128 q 520 1274 387 1222 q 728 1326 652 1326 m 533 1333 q 506 1373 512 1333 l 509 1455 l 509 1486 q 465 1560 509 1512 q 503 1584 471 1573 q 560 1537 528 1584 l 574 1486 l 570 1444 l 574 1441 l 577 1441 q 656 1513 587 1441 l 676 1516 q 700 1496 691 1516 q 547 1336 646 1378 l 533 1333 z "},"":{"ha":605,"x_min":-52,"x_max":618,"o":"m 508 766 q 541 723 541 751 l 484 595 q 418 329 418 417 q 484 172 441 172 l 489 168 l 494 168 q 555 49 555 118 q 385 -75 555 -37 l 342 -79 l 328 -79 q 261 -56 261 -76 l 261 -51 q 408 106 261 -24 l 413 111 l 413 115 q 332 376 332 286 l 328 381 l 323 381 q 182 224 279 349 q -24 23 53 23 l -33 23 l -52 47 l -52 75 q 19 118 -45 98 q 228 353 113 208 q 427 694 406 594 q 508 766 471 766 m 451 867 q 424 907 430 867 l 427 989 l 427 1020 q 383 1095 427 1046 q 420 1118 389 1107 q 478 1071 446 1118 l 492 1020 l 488 979 l 492 975 l 495 975 q 574 1047 505 975 l 594 1050 q 618 1030 609 1050 q 465 870 564 912 l 451 867 z "},"":{"ha":1019,"x_min":26,"x_max":1356,"o":"m 1246 1292 l 1284 1292 q 1356 1235 1356 1292 q 1296 1202 1356 1189 q 1161 1216 1236 1216 q 321 903 798 1216 q 183 803 304 903 q 93 732 183 759 q 26 760 45 732 q 202 888 26 790 q 1246 1292 788 1292 m 767 1040 q 791 1007 791 1034 l 791 1002 q 611 442 791 884 q 361 0 431 0 q 337 33 337 7 l 337 38 q 380 104 337 55 l 470 252 q 729 1012 729 954 q 767 1040 746 1036 m 484 -164 l 494 -172 q 415 -274 494 -184 q 307 -376 334 -355 l 292 -376 q 277 -351 286 -376 q 386 -233 277 -320 q 484 -164 389 -192 z "},"":{"ha":505,"x_min":0,"x_max":690,"o":"m 671 1391 q 690 1377 690 1384 l 690 1362 q 370 693 690 1307 l 356 650 l 356 641 l 361 641 l 489 655 q 517 636 503 655 q 323 546 517 589 q 123 176 262 546 l 119 133 q 176 85 119 90 l 204 85 q 455 122 326 85 q 610 159 583 159 q 624 135 618 159 q 166 0 507 21 q 33 95 33 24 q 204 503 33 151 l 204 517 q 38 470 94 470 q 0 489 0 479 l 0 508 q 266 627 5 547 q 389 859 311 673 q 590 1291 431 932 q 671 1391 612 1391 m 294 -77 l 305 -84 q 226 -186 305 -96 q 118 -289 145 -267 l 103 -289 q 88 -263 97 -289 q 197 -146 88 -233 q 294 -77 200 -104 z "},"":{"ha":1019,"x_min":26,"x_max":1356,"o":"m 1246 1292 l 1284 1292 q 1356 1235 1356 1292 q 1296 1202 1356 1189 q 1161 1216 1236 1216 q 321 903 798 1216 q 183 803 304 903 q 93 732 183 759 q 26 760 45 732 q 202 888 26 790 q 1246 1292 788 1292 m 767 1040 q 791 1007 791 1034 l 791 1002 q 611 442 791 884 q 361 0 431 0 q 337 33 337 7 l 337 38 q 380 104 337 55 l 470 252 q 729 1012 729 954 q 767 1040 746 1036 m 832 1267 q 805 1308 811 1267 l 808 1390 l 808 1421 q 764 1495 808 1447 q 802 1519 770 1508 q 859 1472 827 1519 l 873 1421 l 869 1379 l 873 1376 l 876 1376 q 955 1448 886 1376 l 975 1451 q 999 1431 990 1451 q 846 1271 945 1313 l 832 1267 z "},"":{"ha":505,"x_min":0,"x_max":999,"o":"m 671 1391 q 690 1377 690 1384 l 690 1362 q 370 693 690 1307 l 356 650 l 356 641 l 361 641 l 489 655 q 517 636 503 655 q 323 546 517 589 q 123 176 262 546 l 119 133 q 176 85 119 90 l 204 85 q 455 122 326 85 q 610 159 583 159 q 624 135 618 159 q 166 0 507 21 q 33 95 33 24 q 204 503 33 151 l 204 517 q 38 470 94 470 q 0 489 0 479 l 0 508 q 266 627 5 547 q 389 859 311 673 q 590 1291 431 932 q 671 1391 612 1391 m 832 1267 q 805 1308 811 1267 l 808 1390 l 808 1421 q 764 1495 808 1447 q 802 1519 770 1508 q 859 1472 827 1519 l 873 1421 l 869 1379 l 873 1376 l 876 1376 q 955 1448 886 1376 l 975 1451 q 999 1431 990 1451 q 846 1271 945 1313 l 832 1267 z "},"":{"ha":1019,"x_min":26,"x_max":1356,"o":"m 1246 1292 l 1284 1292 q 1356 1235 1356 1292 q 1296 1202 1356 1189 q 1161 1216 1236 1216 q 321 903 798 1216 q 183 803 304 903 q 93 732 183 759 q 26 760 45 732 q 202 888 26 790 q 1246 1292 788 1292 m 767 1040 q 791 1007 791 1034 l 791 1002 q 611 442 791 884 q 361 0 431 0 q 337 33 337 7 l 337 38 q 380 104 337 55 l 470 252 q 729 1012 729 954 q 767 1040 746 1036 m 548 709 l 566 718 q 873 819 859 851 q 896 793 880 821 q 878 757 907 770 q 682 696 796 748 l 646 680 q 578 652 614 665 q 525 674 541 638 q 548 709 517 691 z "},"":{"ha":505,"x_min":0,"x_max":690,"o":"m 671 1391 q 690 1377 690 1384 l 690 1362 q 370 693 690 1307 l 356 650 l 356 641 l 361 641 l 489 655 q 517 636 503 655 q 323 546 517 589 q 123 176 262 546 l 119 133 q 176 85 119 90 l 204 85 q 455 122 326 85 q 610 159 583 159 q 624 135 618 159 q 166 0 507 21 q 33 95 33 24 q 204 503 33 151 l 204 517 q 38 470 94 470 q 0 489 0 479 l 0 508 q 266 627 5 547 q 389 859 311 673 q 590 1291 431 932 q 671 1391 612 1391 m 214 824 l 233 827 q 557 859 549 894 q 572 830 563 861 q 547 798 578 804 q 342 781 465 807 l 304 773 q 231 761 270 766 q 184 794 193 755 q 214 824 180 812 z "},"":{"ha":1097,"x_min":0,"x_max":1192,"o":"m 1092 1267 q 1192 1116 1181 1241 l 1192 1106 q 736 370 1192 878 q 218 9 427 58 l 171 0 q 9 128 73 0 l 0 195 l 0 228 q 233 983 0 424 q 328 1249 310 1240 l 356 1253 q 394 1230 394 1253 q 261 907 389 1158 q 66 242 66 502 l 66 233 q 147 95 66 95 l 176 90 q 370 142 300 90 q 802 503 509 190 q 1135 1092 1135 906 l 1135 1101 q 1068 1244 1135 1128 q 1092 1267 1068 1257 m 690 1514 q 775 1505 716 1541 l 891 1423 q 979 1440 951 1408 q 1055 1508 1044 1531 q 1010 1377 1041 1411 q 850 1388 949 1310 l 730 1455 l 673 1402 q 610 1381 644 1333 q 690 1514 679 1501 z "},"":{"ha":987,"x_min":0,"x_max":1078,"o":"m 842 696 q 861 677 858 692 q 712 422 838 599 q 660 214 660 331 q 741 85 660 121 l 779 76 l 812 76 q 969 119 920 86 l 1074 200 l 1078 195 l 1078 148 q 965 56 1078 106 q 764 5 851 5 q 603 109 685 5 q 570 342 570 160 l 555 342 q 100 0 192 0 q 0 128 16 0 q 220 634 78 526 l 229 634 q 248 606 239 634 q 95 247 248 577 l 76 176 l 76 114 q 95 81 76 88 l 119 81 q 726 565 241 81 q 800 682 788 682 l 842 696 m 437 983 q 522 975 463 1011 l 637 892 q 726 909 697 878 q 802 977 790 1001 q 757 847 787 881 q 596 857 696 780 l 476 924 l 419 872 q 357 851 391 802 q 437 983 425 970 z "},"":{"ha":1097,"x_min":0,"x_max":1192,"o":"m 1092 1267 q 1192 1116 1181 1241 l 1192 1106 q 736 370 1192 878 q 218 9 427 58 l 171 0 q 9 128 73 0 l 0 195 l 0 228 q 233 983 0 424 q 328 1249 310 1240 l 356 1253 q 394 1230 394 1253 q 261 907 389 1158 q 66 242 66 502 l 66 233 q 147 95 66 95 l 176 90 q 370 142 300 90 q 802 503 509 190 q 1135 1092 1135 906 l 1135 1101 q 1068 1244 1135 1128 q 1092 1267 1068 1257 m 667 1440 l 686 1440 q 1009 1404 1009 1440 q 1019 1372 1015 1404 q 986 1346 1019 1346 q 783 1372 909 1372 l 745 1372 q 670 1375 709 1372 q 631 1417 631 1378 q 667 1440 631 1436 z "},"":{"ha":987,"x_min":0,"x_max":1078,"o":"m 842 696 q 861 677 858 692 q 712 422 838 599 q 660 214 660 331 q 741 85 660 121 l 779 76 l 812 76 q 969 119 920 86 l 1074 200 l 1078 195 l 1078 148 q 965 56 1078 106 q 764 5 851 5 q 603 109 685 5 q 570 342 570 160 l 555 342 q 100 0 192 0 q 0 128 16 0 q 220 634 78 526 l 229 634 q 248 606 239 634 q 95 247 248 577 l 76 176 l 76 114 q 95 81 76 88 l 119 81 q 726 565 241 81 q 800 682 788 682 l 842 696 m 377 863 l 397 863 q 720 828 720 863 q 729 795 726 828 q 696 770 729 770 q 494 795 619 795 l 455 795 q 381 799 420 795 q 342 841 342 802 q 377 863 342 859 z "},"":{"ha":1097,"x_min":0,"x_max":1192,"o":"m 1092 1267 q 1192 1116 1181 1241 l 1192 1106 q 736 370 1192 878 q 218 9 427 58 l 171 0 q 9 128 73 0 l 0 195 l 0 228 q 233 983 0 424 q 328 1249 310 1240 l 356 1253 q 394 1230 394 1253 q 261 907 389 1158 q 66 242 66 502 l 66 233 q 147 95 66 95 l 176 90 q 370 142 300 90 q 802 503 509 190 q 1135 1092 1135 906 l 1135 1101 q 1068 1244 1135 1128 q 1092 1267 1068 1257 m 794 1383 q 766 1398 794 1383 q 676 1527 739 1413 q 700 1542 687 1544 l 718 1536 q 898 1456 823 1401 q 996 1508 974 1511 q 1026 1481 1023 1493 q 915 1399 980 1445 q 794 1383 850 1354 z "},"":{"ha":987,"x_min":0,"x_max":1078,"o":"m 842 696 q 861 677 858 692 q 712 422 838 599 q 660 214 660 331 q 741 85 660 121 l 779 76 l 812 76 q 969 119 920 86 l 1074 200 l 1078 195 l 1078 148 q 965 56 1078 106 q 764 5 851 5 q 603 109 685 5 q 570 342 570 160 l 555 342 q 100 0 192 0 q 0 128 16 0 q 220 634 78 526 l 229 634 q 248 606 239 634 q 95 247 248 577 l 76 176 l 76 114 q 95 81 76 88 l 119 81 q 726 565 241 81 q 800 682 788 682 l 842 696 m 518 852 q 490 867 518 852 q 399 996 462 882 q 423 1011 410 1013 l 441 1005 q 622 925 546 870 q 720 977 697 980 q 749 950 746 962 q 638 868 703 914 q 518 852 574 823 z "},"":{"ha":1097,"x_min":0,"x_max":1192,"o":"m 1092 1267 q 1192 1116 1181 1241 l 1192 1106 q 736 370 1192 878 q 218 9 427 58 l 171 0 q 9 128 73 0 l 0 195 l 0 228 q 233 983 0 424 q 328 1249 310 1240 l 356 1253 q 394 1230 394 1253 q 261 907 389 1158 q 66 242 66 502 l 66 233 q 147 95 66 95 l 176 90 q 370 142 300 90 q 802 503 509 190 q 1135 1092 1135 906 l 1135 1101 q 1068 1244 1135 1128 q 1092 1267 1068 1257 m 766 1513 q 825 1456 803 1513 l 827 1437 q 723 1310 827 1368 l 694 1302 q 640 1380 652 1302 q 675 1461 640 1388 q 764 1513 675 1495 l 766 1513 m 683 1366 l 683 1359 l 697 1345 l 709 1345 q 792 1418 753 1345 l 797 1447 q 764 1475 797 1472 q 728 1428 741 1475 q 683 1366 683 1381 z "},"":{"ha":987,"x_min":0,"x_max":1078,"o":"m 842 696 q 861 677 858 692 q 712 422 838 599 q 660 214 660 331 q 741 85 660 121 l 779 76 l 812 76 q 969 119 920 86 l 1074 200 l 1078 195 l 1078 148 q 965 56 1078 106 q 764 5 851 5 q 603 109 685 5 q 570 342 570 160 l 555 342 q 100 0 192 0 q 0 128 16 0 q 220 634 78 526 l 229 634 q 248 606 239 634 q 95 247 248 577 l 76 176 l 76 114 q 95 81 76 88 l 119 81 q 726 565 241 81 q 800 682 788 682 l 842 696 m 591 1025 q 650 968 628 1025 l 652 949 q 548 821 652 880 l 519 814 q 465 892 477 814 q 500 972 465 899 q 589 1025 500 1006 l 591 1025 m 508 878 l 508 871 l 522 857 l 534 857 q 617 930 578 857 l 622 958 q 589 987 622 983 q 553 939 566 987 q 508 878 508 892 z "},"":{"ha":1097,"x_min":0,"x_max":1192,"o":"m 1092 1267 q 1192 1116 1181 1241 l 1192 1106 q 736 370 1192 878 q 218 9 427 58 l 171 0 q 9 128 73 0 l 0 195 l 0 228 q 233 983 0 424 q 328 1249 310 1240 l 356 1253 q 394 1230 394 1253 q 261 907 389 1158 q 66 242 66 502 l 66 233 q 147 95 66 95 l 176 90 q 370 142 300 90 q 802 503 509 190 q 1135 1092 1135 906 l 1135 1101 q 1068 1244 1135 1128 q 1092 1267 1068 1257 m 978 1590 l 989 1583 q 909 1480 989 1571 q 802 1378 829 1400 l 787 1378 q 772 1404 781 1378 q 880 1521 772 1434 q 978 1590 884 1563 m 819 1593 l 829 1586 q 750 1483 829 1573 q 642 1381 669 1402 l 627 1381 q 612 1407 621 1381 q 721 1524 612 1437 q 819 1593 724 1565 z "},"":{"ha":987,"x_min":0,"x_max":1078,"o":"m 842 696 q 861 677 858 692 q 712 422 838 599 q 660 214 660 331 q 741 85 660 121 l 779 76 l 812 76 q 969 119 920 86 l 1074 200 l 1078 195 l 1078 148 q 965 56 1078 106 q 764 5 851 5 q 603 109 685 5 q 570 342 570 160 l 555 342 q 100 0 192 0 q 0 128 16 0 q 220 634 78 526 l 229 634 q 248 606 239 634 q 95 247 248 577 l 76 176 l 76 114 q 95 81 76 88 l 119 81 q 726 565 241 81 q 800 682 788 682 l 842 696 m 737 1017 l 748 1010 q 669 907 748 998 q 561 805 588 827 l 546 805 q 531 831 540 805 q 640 948 531 861 q 737 1017 643 989 m 549 1021 l 559 1013 q 480 911 559 1001 q 372 808 399 830 l 357 808 q 342 834 351 808 q 451 951 342 865 q 549 1021 454 993 z "},"":{"ha":1097,"x_min":0,"x_max":1192,"o":"m 1092 1267 q 1192 1116 1181 1241 l 1192 1106 q 736 370 1192 878 q 218 9 427 58 l 171 0 q 9 128 73 0 l 0 195 l 0 228 q 233 983 0 424 q 328 1249 310 1240 l 356 1253 q 394 1230 394 1253 q 261 907 389 1158 q 66 242 66 502 l 66 233 q 147 95 66 95 l 176 90 q 370 142 300 90 q 802 503 509 190 q 1135 1092 1135 906 l 1135 1101 q 1068 1244 1135 1128 q 1092 1267 1068 1257 m 149 81 q 168 62 165 76 q 186 -74 256 -10 q 123 -129 117 -138 q 165 -224 123 -222 l 203 -234 l 236 -234 q 310 -264 345 -224 q 189 -305 275 -305 q 66 -233 110 -305 q 144 -44 40 -121 q 106 66 96 66 l 149 81 z "},"":{"ha":987,"x_min":0,"x_max":1078,"o":"m 842 696 q 861 677 858 692 q 712 422 838 599 q 660 214 660 331 q 741 85 660 121 l 779 76 l 812 76 q 969 119 920 86 l 1074 200 l 1078 195 l 1078 148 q 965 56 1078 106 q 764 5 851 5 q 603 109 685 5 q 570 342 570 160 l 555 342 q 100 0 192 0 q 0 128 16 0 q 220 634 78 526 l 229 634 q 248 606 239 634 q 95 247 248 577 l 76 176 l 76 114 q 95 81 76 88 l 119 81 q 726 565 241 81 q 800 682 788 682 l 842 696 m 198 67 q 217 48 214 62 q 235 -88 305 -24 q 172 -142 165 -152 q 214 -238 172 -235 l 252 -248 l 285 -248 q 359 -278 393 -237 q 237 -319 324 -319 q 115 -247 159 -319 q 193 -58 89 -134 q 155 53 144 53 l 198 67 z "},"":{"ha":949,"x_min":39,"x_max":1175,"o":"m 1139 1346 l 1149 1347 q 1171 1306 1163 1348 q 1105 1186 1175 1270 q 688 321 867 737 q 412 -103 510 -95 q 315 45 344 -109 q 345 501 286 199 l 340 505 l 335 505 q 166 199 231 273 q 94 155 134 159 q 39 241 62 153 q 99 733 50 463 q 169 996 148 1004 q 212 942 203 998 q 160 628 214 912 q 111 295 106 344 l 113 267 l 123 258 q 235 448 172 286 q 386 743 320 602 l 404 758 l 408 759 q 454 677 448 741 q 362 302 457 640 l 357 192 q 427 -9 375 -16 q 621 286 479 -3 q 829 743 669 372 q 1108 1315 900 874 l 1139 1346 m 609 1385 q 636 1345 630 1385 l 633 1263 l 633 1232 q 677 1158 633 1206 q 640 1134 671 1145 q 582 1181 614 1134 l 568 1232 l 572 1274 l 568 1277 l 564 1277 q 486 1205 555 1277 l 466 1202 q 442 1222 451 1202 q 595 1382 496 1340 l 609 1385 z "},"":{"ha":878,"x_min":64,"x_max":863,"o":"m 182 614 q 230 559 219 616 l 160 178 l 164 125 q 183 100 165 99 q 423 444 294 179 q 531 620 461 570 q 560 578 551 621 q 507 281 563 543 l 507 220 l 507 215 q 551 98 517 111 l 559 99 q 809 568 690 108 l 830 583 q 863 549 857 577 q 692 95 858 451 q 570 3 617 6 q 420 187 431 31 l 416 249 l 408 248 q 167 11 229 15 q 66 132 73 34 q 113 397 64 157 l 111 419 l 104 458 q 182 614 140 611 m 602 1112 q 629 1072 623 1112 l 625 990 l 625 959 q 670 884 625 932 q 632 861 664 871 q 574 908 607 861 l 561 959 l 564 1000 l 561 1004 l 557 1004 q 479 932 548 1004 l 459 928 q 435 949 444 928 q 588 1109 489 1067 l 602 1112 z "},"":{"ha":553,"x_min":-18,"x_max":701,"o":"m 208 1318 q 235 1293 233 1312 q 155 836 146 915 q 204 653 151 715 q 299 564 256 591 q 391 736 321 567 q 615 1224 450 826 q 662 1272 645 1270 q 698 1252 694 1263 l 699 1242 q 617 1072 701 1225 q 565 980 618 1059 l 433 703 q 216 274 363 514 q 9 -64 102 32 l 4 -64 l -10 -61 l -12 -52 q 180 303 -18 7 q 284 481 209 365 l 283 491 q 154 582 184 527 q 92 757 105 635 l 90 785 q 208 1318 115 1308 m 473 1558 q 500 1518 494 1558 l 496 1436 l 496 1405 q 541 1331 496 1379 q 503 1307 534 1318 q 446 1354 477 1307 l 432 1405 l 435 1447 l 432 1450 l 428 1450 q 350 1378 418 1450 l 330 1375 q 306 1395 315 1375 q 459 1555 360 1513 l 473 1558 z "},"":{"ha":676,"x_min":-66,"x_max":765,"o":"m 576 622 l 581 622 l 585 598 l 570 54 l 575 54 l 755 201 l 765 191 l 765 144 q 594 -3 765 112 q 589 -79 589 4 q 513 -734 589 -654 q 224 -1124 460 -898 q 15 -1228 75 -1228 q -61 -1152 -22 -1228 l -66 -1133 q 100 -677 -66 -989 q 181 -530 121 -621 q 233 -445 203 -463 q 509 -56 322 -260 l 513 -18 q 500 374 514 404 q 119 11 193 11 q 30 86 50 11 q 43 248 9 161 q 202 549 132 549 l 212 549 q 231 502 231 545 q 138 248 231 469 q 119 163 119 191 l 119 139 q 143 101 119 113 l 153 101 q 452 456 237 123 q 576 622 530 622 m 24 -1133 l 39 -1147 l 58 -1147 q 214 -1043 85 -1147 q 404 -839 277 -1019 q 528 -364 528 -684 l 528 -245 q 509 -132 528 -132 l 314 -393 q 24 -1057 24 -882 l 24 -1133 m 472 1083 q 499 1042 493 1083 l 496 961 l 496 930 q 540 855 496 903 q 503 831 534 842 q 445 879 477 831 l 431 930 l 435 971 l 431 975 l 427 975 q 349 903 418 975 l 329 899 q 305 920 314 899 q 458 1080 359 1038 l 472 1083 z "},"":{"ha":553,"x_min":-18,"x_max":701,"o":"m 208 1318 q 235 1293 233 1312 q 155 836 146 915 q 204 653 151 715 q 299 564 256 591 q 391 736 321 567 q 615 1224 450 826 q 662 1272 645 1270 q 698 1252 694 1263 l 699 1242 q 617 1072 701 1225 q 565 980 618 1059 l 433 703 q 216 274 363 514 q 9 -64 102 32 l 4 -64 l -10 -61 l -12 -52 q 180 303 -18 7 q 284 481 209 365 l 283 491 q 154 582 184 527 q 92 757 105 635 l 90 785 q 208 1318 115 1308 m 585 1484 q 632 1409 622 1484 q 576 1382 621 1382 q 523 1428 523 1382 l 520 1428 q 585 1484 520 1476 m 295 1487 q 342 1413 332 1487 q 286 1385 331 1385 q 233 1431 233 1385 l 231 1431 q 295 1487 231 1480 z "},"":{"ha":990,"x_min":0,"x_max":983,"o":"m 779 1244 q 869 1182 829 1244 q 555 745 842 1062 l 555 736 l 560 736 q 817 788 758 788 q 973 674 930 788 l 983 627 q 954 570 972 570 l 949 570 q 926 655 939 570 q 817 722 872 722 l 812 722 q 404 574 601 707 q 85 171 124 342 q 166 104 85 104 l 252 104 q 627 247 309 104 l 646 247 q 684 138 672 247 l 669 128 l 603 128 q 304 28 494 128 q 171 0 243 9 q 0 166 0 19 q 166 427 0 264 q 218 508 218 488 q 161 560 161 529 q 337 646 161 616 q 788 1135 628 836 l 788 1149 q 760 1163 783 1163 l 669 1163 q 309 1068 357 1068 q 242 1116 242 1068 q 361 1168 242 1168 q 779 1244 452 1177 m 763 1518 l 774 1511 q 694 1409 774 1499 q 587 1306 614 1328 l 572 1306 q 557 1332 566 1306 q 665 1449 557 1362 q 763 1518 669 1491 z "},"":{"ha":659,"x_min":-272,"x_max":695,"o":"m 274 675 l 293 675 q 402 561 402 675 l 402 556 q 331 347 402 513 q 511 210 457 306 l 516 186 l 526 186 q 586 232 546 186 l 681 294 l 695 294 l 695 241 q 624 180 695 214 q 549 91 578 145 q 136 -735 419 -411 q -243 -1048 -131 -1048 l -248 -1048 l -272 -1025 q 312 -80 -240 -798 q 464 119 464 74 q 350 243 442 243 l 231 243 l 212 238 q 170 267 185 243 q 260 380 170 298 q 340 542 340 493 l 340 547 q 250 589 340 589 q 41 480 220 589 l 22 480 q 3 537 3 480 q 94 599 3 576 q 274 675 197 675 m -139 -892 l -139 -911 l -130 -920 l -125 -920 q 132 -650 -1 -819 q 440 -104 383 -334 l 469 -14 l 469 -9 l 454 -9 q 155 -355 409 -45 l -30 -631 q -139 -892 -139 -816 m 431 969 l 442 962 q 363 859 442 949 q 255 757 282 779 l 240 757 q 225 783 234 757 q 334 900 225 813 q 431 969 337 941 z "},"":{"ha":990,"x_min":0,"x_max":983,"o":"m 779 1244 q 869 1182 829 1244 q 555 745 842 1062 l 555 736 l 560 736 q 817 788 758 788 q 973 674 930 788 l 983 627 q 954 570 972 570 l 949 570 q 926 655 939 570 q 817 722 872 722 l 812 722 q 404 574 601 707 q 85 171 124 342 q 166 104 85 104 l 252 104 q 627 247 309 104 l 646 247 q 684 138 672 247 l 669 128 l 603 128 q 304 28 494 128 q 171 0 243 9 q 0 166 0 19 q 166 427 0 264 q 218 508 218 488 q 161 560 161 529 q 337 646 161 616 q 788 1135 628 836 l 788 1149 q 760 1163 783 1163 l 669 1163 q 309 1068 357 1068 q 242 1116 242 1068 q 361 1168 242 1168 q 779 1244 452 1177 m 598 1468 q 646 1393 635 1468 q 589 1366 634 1366 q 536 1411 536 1366 l 534 1411 q 598 1468 534 1460 z "},"":{"ha":659,"x_min":-272,"x_max":695,"o":"m 274 675 l 293 675 q 402 561 402 675 l 402 556 q 331 347 402 513 q 511 210 457 306 l 516 186 l 526 186 q 586 232 546 186 l 681 294 l 695 294 l 695 241 q 624 180 695 214 q 549 91 578 145 q 136 -735 419 -411 q -243 -1048 -131 -1048 l -248 -1048 l -272 -1025 q 312 -80 -240 -798 q 464 119 464 74 q 350 243 442 243 l 231 243 l 212 238 q 170 267 185 243 q 260 380 170 298 q 340 542 340 493 l 340 547 q 250 589 340 589 q 41 480 220 589 l 22 480 q 3 537 3 480 q 94 599 3 576 q 274 675 197 675 m -139 -892 l -139 -911 l -130 -920 l -125 -920 q 132 -650 -1 -819 q 440 -104 383 -334 l 469 -14 l 469 -9 l 454 -9 q 155 -355 409 -45 l -30 -631 q -139 -892 -139 -816 m 295 869 q 342 794 332 869 q 286 767 331 767 q 233 812 233 767 l 231 812 q 295 869 231 861 z "},"":{"ha":990,"x_min":0,"x_max":983,"o":"m 779 1244 q 869 1182 829 1244 q 555 745 842 1062 l 555 736 l 560 736 q 817 788 758 788 q 973 674 930 788 l 983 627 q 954 570 972 570 l 949 570 q 926 655 939 570 q 817 722 872 722 l 812 722 q 404 574 601 707 q 85 171 124 342 q 166 104 85 104 l 252 104 q 627 247 309 104 l 646 247 q 684 138 672 247 l 669 128 l 603 128 q 304 28 494 128 q 171 0 243 9 q 0 166 0 19 q 166 427 0 264 q 218 508 218 488 q 161 560 161 529 q 337 646 161 616 q 788 1135 628 836 l 788 1149 q 760 1163 783 1163 l 669 1163 q 309 1068 357 1068 q 242 1116 242 1068 q 361 1168 242 1168 q 779 1244 452 1177 m 650 1267 q 623 1308 629 1267 l 627 1390 l 627 1421 q 583 1495 627 1447 q 620 1519 589 1508 q 677 1472 646 1519 l 691 1421 l 688 1379 l 691 1376 l 694 1376 q 773 1448 705 1376 l 793 1451 q 817 1431 808 1451 q 664 1271 763 1313 l 650 1267 z "},"":{"ha":659,"x_min":-272,"x_max":695,"o":"m 274 675 l 293 675 q 402 561 402 675 l 402 556 q 331 347 402 513 q 511 210 457 306 l 516 186 l 526 186 q 586 232 546 186 l 681 294 l 695 294 l 695 241 q 624 180 695 214 q 549 91 578 145 q 136 -735 419 -411 q -243 -1048 -131 -1048 l -248 -1048 l -272 -1025 q 312 -80 -240 -798 q 464 119 464 74 q 350 243 442 243 l 231 243 l 212 238 q 170 267 185 243 q 260 380 170 298 q 340 542 340 493 l 340 547 q 250 589 340 589 q 41 480 220 589 l 22 480 q 3 537 3 480 q 94 599 3 576 q 274 675 197 675 m -139 -892 l -139 -911 l -130 -920 l -125 -920 q 132 -650 -1 -819 q 440 -104 383 -334 l 469 -14 l 469 -9 l 454 -9 q 155 -355 409 -45 l -30 -631 q -139 -892 -139 -816 m 302 711 q 275 752 281 711 l 278 833 l 278 865 q 234 939 278 891 q 271 963 240 952 q 329 916 297 963 l 342 865 l 339 823 l 342 820 l 346 820 q 425 892 356 820 l 445 895 q 469 875 460 895 q 315 715 414 757 l 302 711 z "},"":{"ha":0,"x_min":0,"x_max":0,"o":""}}}
